bouazzi-maghribi.glyphspackage
{
glyphname = exclam;
layers = (
{
layerId = m01;
shapes = (
{
closed = 1;
nodes = (
(48,582,o),
(52,601,o),
(98,601,cs),
(145,601,o),
(149,582,o),
(145,544,cs),
(110,178,l),
(85,178,l),
(51,544,ls)
);
},
{
pos = (-15,0);
ref = period;
scale = (0.85,0.85);
}
);
userData = {
com.fontlab.hintData = {
hhints = (
{
position = -12;
width = 128;
},
{
position = 687;
width = 20;
}
);
vhints = (
{
position = 58;
width = 126;
},
{
position = 66;
width = 111;
}
);
};
};
vertWidth = 0;
width = 174;
}
);
metricRight = "=|";
unicode = 33;
}
{
glyphname = numbersign;
layers = (
{
layerId = m01;
shapes = (
{
closed = 1;
nodes = (
(19,236,l),
(109,236,l),
(137,349,l),
(46,349,l),
(56,388,l),
(146,388,l),
(190,568,l),
(236,568,l),
(192,388,l),
(307,388,l),
(351,568,l),
(396,568,l),
(352,388,l),
(440,388,l),
(432,349,l),
(342,349,l),
(314,236,l),
(403,236,l),
(394,197,l),
(305,197,l),
(257,0,l),
(211,0,l),
(260,197,l),
(145,197,l),
(97,0,l),
(50,0,l),
(99,197,l),
(8,197,l)
);
},
{
closed = 1;
nodes = (
(269,236,l),
(297,349,l),
(183,349,l),
(155,236,l)
);
}
);
userData = {
com.fontlab.hintData = {
hhints = (
{
position = 0;
width = 21;
},
{
position = 232;
width = 46;
},
{
position = 411;
width = 46;
},
{
position = 648;
width = 20;
}
);
vhints = (
{
position = 60;
width = 55;
},
{
position = 225;
width = 54;
},
{
position = 249;
width = 54;
},
{
position = 414;
width = 53;
}
);
};
};
vertWidth = 0;
width = 448;
}
);
metricRight = "=|";
unicode = 35;
}
{
glyphname = dollar;
layers = (
{
layerId = m01;
shapes = (
{
closed = 1;
nodes = (
(31,119,o),
(54,137,o),
(71,137,cs),
(82,137,o),
(89,130,o),
(95,118,cs),
(130,46,o),
(173,31,o),
(201,30,c),
(201,264,l),
(82,299,o),
(42,353,o),
(42,421,cs),
(42,520,o),
(121,565,o),
(201,567,c),
(201,632,l),
(235,632,l),
(235,568,l),
(336,565,o),
(383,516,o),
(383,480,cs),
(383,456,o),
(358,445,o),
(344,445,cs),
(332,445,o),
(326,450,o),
(321,462,cs),
(301,513,o),
(269,536,o),
(235,538,c),
(235,332,l),
(348,299,o),
(408,247,o),
(408,156,cs),
(408,17,o),
(268,0,o),
(235,0,c),
(235,-87,l),
(201,-87,l),
(201,0,l),
(71,3,o),
(31,65,o),
(31,94,cs)
);
},
{
closed = 1;
nodes = (
(109,381,o),
(157,359,o),
(201,344,c),
(201,537,l),
(164,537,o),
(109,513,o),
(109,444,cs)
);
},
{
closed = 1;
nodes = (
(276,29,o),
(334,50,o),
(334,129,cs),
(334,205,o),
(291,235,o),
(235,253,c),
(235,30,l)
);
}
);
userData = {
com.fontlab.hintData = {
hhints = (
{
position = 0;
width = 35;
},
{
position = 632;
width = 35;
},
{
position = 633;
width = 35;
},
{
position = 723;
width = 20;
}
);
vhints = (
{
position = 56;
width = 79;
},
{
position = 243;
width = 40;
},
{
position = 400;
width = 87;
}
);
};
};
vertWidth = 0;
width = 439;
}
);
metricRight = "=|";
unicode = 36;
}
{
glyphname = percent;
layers = (
{
layerId = m01;
shapes = (
{
closed = 1;
nodes = (
(37,520,o),
(80,578,o),
(170,578,cs),
(213,578,o),
(241,566,o),
(264,549,cs),
(277,541,o),
(281,538,o),
(301,538,cs),
(445,538,ls),
(473,540,o),
(490,545,o),
(505,566,cs),
(525,595,l),
(554,577,l),
(180,-21,l),
(150,2,l),
(467,511,l),
(293,511,l),
(299,495,o),
(304,467,o),
(304,422,cs),
(304,325,o),
(261,267,o),
(170,267,cs),
(80,267,o),
(37,325,o),
(37,422,cs)
);
},
{
closed = 1;
nodes = (
(99,341,o),
(126,294,o),
(170,294,cs),
(215,294,o),
(241,341,o),
(241,422,cs),
(241,511,o),
(213,551,o),
(170,551,cs),
(127,551,o),
(99,511,o),
(99,422,cs)
);
},
{
closed = 1;
nodes = (
(396,243,o),
(439,301,o),
(530,301,cs),
(620,301,o),
(664,243,o),
(664,145,cs),
(664,48,o),
(620,-10,o),
(530,-10,cs),
(439,-10,o),
(396,48,o),
(396,145,cs)
);
},
{
closed = 1;
nodes = (
(459,64,o),
(485,17,o),
(530,17,cs),
(575,17,o),
(601,64,o),
(601,145,cs),
(601,234,o),
(573,274,o),
(530,274,cs),
(487,274,o),
(459,234,o),
(459,145,cs)
);
}
);
userData = {
com.fontlab.hintData = {
hhints = (
{
position = -12;
width = 32;
},
{
position = -12;
width = 366;
},
{
position = 314;
width = 366;
},
{
position = 314;
width = 32;
},
{
position = 322;
width = 32;
},
{
position = 601;
width = 32;
},
{
position = 648;
width = 32;
},
{
position = 680;
width = 20;
}
);
vhints = (
{
position = 50;
width = 74;
},
{
position = 291;
width = 74;
},
{
position = 473;
width = 74;
},
{
position = 714;
width = 74;
}
);
};
};
vertWidth = 0;
width = 701;
}
);
metricRight = "=|";
unicode = 37;
}
{
glyphname = ampersand;
layers = (
{
layerId = m01;
shapes = (
{
closed = 1;
nodes = (
(33,233,o),
(100,276,o),
(157,311,c),
(130,345,o),
(101,385,o),
(101,443,cs),
(101,517,o),
(160,578,o),
(240,578,cs),
(309,578,o),
(365,536,o),
(365,461,cs),
(365,393,o),
(308,360,o),
(241,325,c),
(290,265,o),
(343,207,o),
(420,137,c),
(474,200,o),
(479,289,o),
(472,354,c),
(493,366,o),
(517,371,o),
(536,368,c),
(556,331,o),
(555,307,o),
(547,281,cs),
(528,226,o),
(493,175,o),
(442,116,c),
(475,83,o),
(541,26,o),
(582,15,c),
(578,-6,l),
(560,-4,ls),
(508,0,o),
(460,10,o),
(419,43,cs),
(395,62,l),
(339,13,o),
(282,-10,o),
(218,-10,cs),
(113,-10,o),
(33,48,o),
(33,150,cs)
);
},
{
closed = 1;
nodes = (
(116,86,o),
(171,31,o),
(244,31,cs),
(299,31,o),
(335,51,o),
(372,83,c),
(296,152,o),
(230,220,o),
(174,287,c),
(155,270,o),
(116,234,o),
(116,167,cs)
);
},
{
closed = 1;
nodes = (
(167,422,o),
(187,384,o),
(222,345,c),
(269,377,o),
(300,417,o),
(300,466,cs),
(300,512,o),
(279,548,o),
(236,548,cs),
(200,548,o),
(167,515,o),
(167,464,cs)
);
}
);
userData = {
com.fontlab.hintData = {
hhints = (
{
position = -12;
width = 49;
},
{
position = -7;
width = 21;
},
{
position = -7;
width = 25;
},
{
position = 645;
width = 35;
}
);
vhints = (
{
position = 46;
width = 97;
},
{
position = 126;
width = 77;
},
{
position = 360;
width = 77;
},
{
position = 565;
width = 91;
}
);
};
};
vertWidth = 0;
width = 615;
}
);
metricRight = "=|";
unicode = 38;
}
{
glyphname = quotesingle;
layers = (
{
layerId = m01;
shapes = (
{
closed = 1;
nodes = (
(64,616,o),
(75,631,o),
(106,631,cs),
(138,631,o),
(149,616,o),
(144,586,cs),
(115,394,l),
(98,394,l),
(68,586,ls)
);
}
);
userData = {
com.fontlab.hintData = {
hhints = (
{
position = 722;
width = 20;
}
);
vhints = (
{
position = 93;
width = 92;
}
);
};
};
vertWidth = 0;
width = 212;
}
);
metricRight = "=|";
unicode = 39;
}
{
glyphname = parenleft;
layers = (
{
layerId = m01;
shapes = (
{
closed = 1;
nodes = (
(76,398,o),
(115,582,o),
(263,588,c),
(263,567,l),
(210,556,o),
(136,483,o),
(136,240,cs),
(136,-5,o),
(214,-77,o),
(263,-88,c),
(263,-109,l),
(115,-103,o),
(76,82,o),
(76,240,cs)
);
}
);
userData = {
com.fontlab.hintData = {
hhints = (
{
position = -128;
width = 25;
},
{
position = 667;
width = 25;
}
);
vhints = (
{
position = 105;
width = 70;
}
);
};
};
vertWidth = 0;
width = 339;
}
);
metricRight = "=|";
unicode = 40;
}
{
glyphname = parenright;
layers = (
{
layerId = m01;
shapes = (
{
closed = 1;
nodes = (
(68,-77,o),
(146,-5,o),
(146,240,cs),
(146,483,o),
(72,556,o),
(18,567,c),
(18,588,l),
(167,582,o),
(205,398,o),
(205,240,cs),
(205,82,o),
(167,-103,o),
(18,-109,c),
(18,-88,l)
);
}
);
userData = {
com.fontlab.hintData = {
hhints = (
{
position = -128;
width = 25;
},
{
position = 667;
width = 25;
}
);
vhints = (
{
position = 175;
width = 70;
}
);
};
};
vertWidth = 0;
width = 223;
}
);
metricRight = "=|";
unicode = 41;
}
{
glyphname = asterisk;
layers = (
{
layerId = m01;
shapes = (
{
closed = 1;
nodes = (
(55,553,o),
(71,551,o),
(83,540,cs),
(148,485,ls),
(156,478,o),
(162,480,o),
(159,495,cs),
(143,575,ls),
(139,592,o),
(148,601,o),
(169,601,cs),
(190,601,o),
(199,592,o),
(195,575,cs),
(179,495,ls),
(176,480,o),
(182,478,o),
(190,485,cs),
(256,541,ls),
(268,551,o),
(285,553,o),
(297,534,cs),
(305,520,o),
(306,503,o),
(286,496,cs),
(204,463,ls),
(189,458,o),
(187,451,o),
(201,446,cs),
(283,413,ls),
(302,405,o),
(306,388,o),
(294,371,cs),
(283,356,o),
(267,354,o),
(253,367,cs),
(192,426,ls),
(180,437,o),
(177,429,o),
(179,416,cs),
(195,337,ls),
(200,317,o),
(192,303,o),
(169,303,cs),
(146,303,o),
(139,317,o),
(143,337,cs),
(159,416,ls),
(161,429,o),
(158,437,o),
(146,426,cs),
(85,368,ls),
(71,354,o),
(55,356,o),
(44,371,cs),
(33,388,o),
(37,405,o),
(55,413,cs),
(137,446,ls),
(151,451,o),
(150,458,o),
(134,463,cs),
(54,495,ls),
(32,503,o),
(33,520,o),
(42,534,cs)
);
}
);
userData = {
com.fontlab.hintData = {
hhints = (
{
position = 507;
width = 60;
},
{
position = 687;
width = 20;
}
);
vhints = (
{
position = 180;
width = 52;
},
{
position = 194;
width = 24;
}
);
};
};
vertWidth = 0;
width = 338;
}
);
metricRight = "=|";
unicode = 42;
}
{
glyphname = plus;
layers = (
{
layerId = m01;
shapes = (
{
closed = 1;
nodes = (
(31,237,l),
(207,237,l),
(207,417,l),
(265,417,l),
(265,237,l),
(442,237,l),
(442,188,l),
(265,188,l),
(265,0,l),
(207,0,l),
(207,188,l),
(31,188,l)
);
}
);
userData = {
com.fontlab.hintData = {
hhints = (
{
position = 0;
width = 21;
},
{
position = 221;
width = 58;
},
{
position = 470;
width = 20;
}
);
vhints = (
{
position = 251;
width = 68;
}
);
};
};
vertWidth = 0;
width = 473;
}
);
unicode = 43;
}
{
glyphname = comma;
layers = (
{
layerId = m01;
shapes = (
{
closed = 1;
nodes = (
(65,-74,o),
(87,-40,o),
(87,-5,cs),
(87,31,o),
(59,47,o),
(59,77,cs),
(59,99,o),
(74,120,o),
(100,120,cs),
(133,120,o),
(158,88,o),
(158,43,cs),
(158,-24,o),
(96,-80,o),
(54,-120,c),
(37,-104,l)
);
}
);
userData = {
com.fontlab.hintData = {
hhints = (
{
position = -141;
width = 282;
}
);
vhints = (
{
position = 109;
width = 84;
}
);
};
};
vertWidth = 0;
width = 195;
}
);
metricRight = "=|";
unicode = 44;
}
{
glyphname = hyphen;
layers = (
{
layerId = m01;
shapes = (
{
closed = 1;
nodes = (
(54,243,l),
(262,243,l),
(262,184,l),
(54,184,l)
);
}
);
userData = {
com.fontlab.hintData = {
hhints = (
{
position = 216;
width = 70;
}
);
vhints = (
{
position = 74;
width = 245;
}
);
};
};
vertWidth = 0;
width = 316;
}
);
metricRight = "=|";
unicode = 45;
}
{
glyphname = period;
layers = (
{
layerId = m01;
shapes = (
{
closed = 1;
nodes = (
(137,-10,o),
(157,13,o),
(158,43,cs),
(158,75,o),
(137,99,o),
(104,99,cs),
(72,99,o),
(51,75,o),
(51,43,cs),
(51,13,o),
(72,-10,o),
(104,-10,cs)
);
}
);
userData = {
com.fontlab.hintData = {
hhints = (
{
position = -12;
width = 128;
}
);
vhints = (
{
position = 70;
width = 126;
}
);
};
};
vertWidth = 0;
width = 209;
}
);
metricRight = "=|";
unicode = 46;
}
{
glyphname = slash;
layers = (
{
layerId = m01;
shapes = (
{
closed = 1;
nodes = (
(245,601,l),
(302,601,l),
(123,-13,l),
(66,-13,l)
);
}
);
userData = {
com.fontlab.hintData = {
hhints = (
{
position = -15;
width = 21;
},
{
position = 687;
width = 20;
}
);
vhints = (
{
position = 92;
width = 277;
}
);
};
};
vertWidth = 0;
width = 368;
}
);
metricRight = "=|";
unicode = 47;
}
{
glyphname = zero;
layers = (
{
layerId = m01;
shapes = (
{
closed = 1;
nodes = (
(30,454,o),
(80,578,o),
(220,578,cs),
(361,578,o),
(411,454,o),
(411,284,cs),
(411,114,o),
(361,-10,o),
(220,-10,cs),
(80,-10,o),
(30,114,o),
(30,284,cs)
);
},
{
closed = 1;
nodes = (
(117,145,o),
(140,20,o),
(220,20,cs),
(301,20,o),
(324,145,o),
(324,284,cs),
(324,422,o),
(301,548,o),
(220,548,cs),
(140,548,o),
(117,422,o),
(117,284,cs)
);
}
);
userData = {
com.fontlab.hintData = {
hhints = (
{
position = -12;
width = 35;
},
{
position = 645;
width = 35;
}
);
vhints = (
{
position = 41;
width = 102;
},
{
position = 387;
width = 102;
}
);
};
};
vertWidth = 0;
width = 441;
}
);
metricRight = "=|";
unicode = 48;
}
{
glyphname = one;
layers = (
{
layerId = m01;
shapes = (
{
closed = 1;
nodes = (
(79,25,l),
(150,31,ls),
(159,31,o),
(166,34,o),
(170,40,cs),
(176,46,o),
(178,56,o),
(178,72,cs),
(178,485,ls),
(178,509,o),
(172,516,o),
(158,518,cs),
(79,527,l),
(79,548,l),
(254,578,l),
(258,573,l),
(258,72,ls),
(258,39,o),
(268,32,o),
(286,31,cs),
(357,25,l),
(357,0,l),
(79,0,l)
);
}
);
userData = {
com.fontlab.hintData = {
hhints = (
{
position = 0;
width = 32;
},
{
position = 660;
width = 20;
}
);
vhints = (
{
position = 226;
width = 94;
}
);
};
};
vertWidth = 0;
width = 436;
}
);
metricRight = "=|";
unicode = 49;
}
{
glyphname = two;
layers = (
{
layerId = m01;
shapes = (
{
closed = 1;
nodes = (
(36,75,o),
(73,133,o),
(177,224,cs),
(251,289,o),
(297,340,o),
(297,431,cs),
(297,493,o),
(278,548,o),
(213,548,cs),
(160,548,o),
(127,502,o),
(113,444,cs),
(110,429,o),
(104,421,o),
(89,421,cs),
(74,421,o),
(42,434,o),
(42,463,cs),
(42,507,o),
(102,578,o),
(219,578,cs),
(308,578,o),
(386,537,o),
(386,419,cs),
(386,324,o),
(323,286,o),
(242,226,cs),
(163,169,o),
(113,109,o),
(99,65,c),
(317,65,ls),
(351,65,o),
(368,71,o),
(385,116,c),
(409,112,l),
(380,0,l),
(28,0,l),
(20,9,l)
);
}
);
userData = {
com.fontlab.hintData = {
hhints = (
{
position = 0;
width = 76;
},
{
position = 645;
width = 35;
}
);
vhints = (
{
position = 353;
width = 105;
}
);
};
};
vertWidth = 0;
width = 429;
}
);
metricRight = "=|";
unicode = 50;
}
{
glyphname = three;
layers = (
{
layerId = m01;
shapes = (
{
closed = 1;
nodes = (
(20,117,o),
(50,133,o),
(65,133,cs),
(77,133,o),
(85,126,o),
(91,110,cs),
(107,62,o),
(143,20,o),
(199,20,cs),
(260,20,o),
(310,55,o),
(310,156,cs),
(310,230,o),
(269,296,o),
(197,296,cs),
(156,296,o),
(133,287,o),
(123,287,cs),
(112,287,o),
(108,297,o),
(108,311,cs),
(108,326,o),
(112,335,o),
(123,335,cs),
(133,335,o),
(156,326,o),
(197,326,cs),
(269,326,o),
(287,390,o),
(287,441,cs),
(287,489,o),
(271,548,o),
(204,548,cs),
(156,548,o),
(124,511,o),
(105,453,cs),
(102,442,o),
(95,436,o),
(84,436,cs),
(72,436,o),
(42,451,o),
(42,477,cs),
(42,513,o),
(97,578,o),
(210,578,cs),
(300,578,o),
(374,536,o),
(374,442,cs),
(374,358,o),
(300,324,o),
(255,316,c),
(255,313,l),
(301,309,o),
(399,275,o),
(399,161,cs),
(399,52,o),
(322,-10,o),
(198,-10,cs),
(79,-10,o),
(20,50,o),
(20,87,cs)
);
}
);
userData = {
com.fontlab.hintData = {
hhints = (
{
position = -12;
width = 35;
},
{
position = 338;
width = 56;
},
{
position = 645;
width = 35;
}
);
vhints = (
{
position = 27;
width = 83;
},
{
position = 53;
width = 74;
},
{
position = 341;
width = 103;
},
{
position = 368;
width = 105;
}
);
};
};
vertWidth = 0;
width = 419;
}
);
metricRight = "=|";
unicode = 51;
}
{
glyphname = four;
layers = (
{
layerId = m01;
shapes = (
{
closed = 1;
nodes = (
(92,303,o),
(188,451,o),
(267,568,c),
(330,568,l),
(330,192,l),
(417,192,l),
(417,152,l),
(330,152,l),
(330,65,ls),
(330,37,o),
(335,31,o),
(355,29,cs),
(393,25,l),
(393,0,l),
(169,0,l),
(169,25,l),
(223,30,ls),
(244,31,o),
(253,37,o),
(253,65,cs),
(253,152,l),
(22,152,l),
(14,170,l)
);
},
{
closed = 1;
nodes = (
(253,192,l),
(253,485,l),
(251,485,l),
(186,383,o),
(126,285,o),
(75,192,c)
);
}
);
userData = {
com.fontlab.hintData = {
hhints = (
{
position = 0;
width = 32;
},
{
position = 179;
width = 47;
},
{
position = 648;
width = 20;
}
);
vhints = (
{
position = 300;
width = 90;
}
);
};
};
vertWidth = 0;
width = 431;
}
);
metricRight = "=|";
unicode = 52;
}
{
glyphname = five;
layers = (
{
layerId = m01;
shapes = (
{
closed = 1;
nodes = (
(29,115,o),
(57,132,o),
(74,132,cs),
(86,132,o),
(94,124,o),
(98,111,cs),
(115,63,o),
(145,20,o),
(205,20,cs),
(279,20,o),
(315,86,o),
(315,173,cs),
(315,286,o),
(255,326,o),
(201,326,cs),
(155,326,o),
(120,306,o),
(84,265,c),
(64,275,l),
(81,560,l),
(89,568,l),
(373,568,l),
(378,561,l),
(357,503,l),
(145,503,ls),
(129,503,o),
(123,500,o),
(121,479,cs),
(101,320,l),
(103,318,l),
(130,343,o),
(180,363,o),
(227,363,cs),
(328,363,o),
(403,302,o),
(403,183,cs),
(403,75,o),
(339,-10,o),
(199,-10,cs),
(89,-10,o),
(29,48,o),
(29,87,cs)
);
}
);
userData = {
com.fontlab.hintData = {
hhints = (
{
position = -12;
width = 35;
},
{
position = 383;
width = 44;
},
{
position = 592;
width = 76;
}
);
vhints = (
{
position = 40;
width = 81;
},
{
position = 376;
width = 104;
}
);
};
};
vertWidth = 0;
width = 432;
}
);
metricRight = "=|";
unicode = 53;
}
{
glyphname = six;
layers = (
{
layerId = m01;
shapes = (
{
closed = 1;
nodes = (
(31,474,o),
(114,578,o),
(249,578,cs),
(351,578,o),
(393,521,o),
(393,487,cs),
(393,463,o),
(366,449,o),
(348,449,cs),
(335,449,o),
(328,456,o),
(326,467,cs),
(313,515,o),
(286,548,o),
(246,548,cs),
(170,548,o),
(116,473,o),
(116,286,c),
(117,286,l),
(140,314,o),
(189,359,o),
(256,359,cs),
(347,359,o),
(418,297,o),
(418,182,cs),
(418,66,o),
(351,-10,o),
(225,-10,cs),
(98,-10,o),
(31,79,o),
(31,263,cs)
);
},
{
closed = 1;
nodes = (
(117,99,o),
(153,20,o),
(227,20,cs),
(298,20,o),
(333,80,o),
(333,169,cs),
(333,267,o),
(280,315,o),
(227,315,cs),
(156,315,o),
(117,252,o),
(117,201,cs)
);
}
);
userData = {
com.fontlab.hintData = {
hhints = (
{
position = -12;
width = 35;
},
{
position = 371;
width = 51;
},
{
position = 645;
width = 35;
}
);
vhints = (
{
position = 44;
width = 99;
},
{
position = 399;
width = 100;
}
);
};
};
vertWidth = 0;
width = 449;
}
);
metricRight = "=|";
unicode = 54;
}
{
glyphname = seven;
layers = (
{
layerId = m01;
shapes = (
{
closed = 1;
nodes = (
(56,568,l),
(410,568,l),
(417,558,l),
(388,451,o),
(343,399,o),
(288,303,cs),
(243,224,o),
(220,134,o),
(225,22,cs),
(225,-3,o),
(208,-10,o),
(183,-10,cs),
(157,-10,o),
(137,-3,o),
(137,25,cs),
(137,125,o),
(185,220,o),
(259,325,cs),
(327,423,o),
(343,473,o),
(351,503,c),
(122,503,ls),
(83,503,o),
(72,490,o),
(61,467,cs),
(53,449,l),
(30,449,l)
);
}
);
userData = {
com.fontlab.hintData = {
hhints = (
{
position = -12;
width = 21;
},
{
position = 592;
width = 76;
},
{
position = 657;
width = 11;
}
);
vhints = (
{
position = 41;
width = 456;
}
);
};
};
vertWidth = 0;
width = 447;
}
);
metricRight = "=|";
unicode = 55;
}
{
glyphname = eight;
layers = (
{
layerId = m01;
shapes = (
{
closed = 1;
nodes = (
(31,241,o),
(86,291,o),
(143,304,c),
(143,307,l),
(92,320,o),
(49,364,o),
(49,434,cs),
(49,525,o),
(123,578,o),
(220,578,cs),
(318,578,o),
(391,525,o),
(391,434,cs),
(391,364,o),
(349,320,o),
(298,307,c),
(298,304,l),
(355,291,o),
(410,241,o),
(410,155,cs),
(410,69,o),
(358,-10,o),
(220,-10,cs),
(83,-10,o),
(31,69,o),
(31,155,cs)
);
},
{
closed = 1;
nodes = (
(116,77,o),
(149,20,o),
(220,20,cs),
(292,20,o),
(325,77,o),
(325,152,cs),
(325,230,o),
(288,287,o),
(220,287,cs),
(152,287,o),
(116,230,o),
(116,152,cs)
);
},
{
closed = 1;
nodes = (
(132,377,o),
(159,318,o),
(220,318,cs),
(281,318,o),
(309,377,o),
(309,435,cs),
(309,501,o),
(278,548,o),
(220,548,cs),
(162,548,o),
(132,501,o),
(132,435,cs)
);
}
);
userData = {
com.fontlab.hintData = {
hhints = (
{
position = -12;
width = 35;
},
{
position = 338;
width = 36;
},
{
position = 645;
width = 35;
}
);
vhints = (
{
position = 42;
width = 100;
},
{
position = 64;
width = 97;
},
{
position = 369;
width = 97;
},
{
position = 388;
width = 100;
}
);
};
};
vertWidth = 0;
width = 441;
}
);
metricRight = "=|";
unicode = 56;
}
{
glyphname = nine;
layers = (
{
layerId = m01;
shapes = (
{
closed = 1;
nodes = (
(26,506,o),
(104,578,o),
(213,578,cs),
(267,578,o),
(314,559,o),
(346,521,cs),
(379,481,o),
(400,412,o),
(400,307,cs),
(400,184,o),
(379,109,o),
(344,60,cs),
(312,15,o),
(259,-10,o),
(191,-10,cs),
(88,-10,o),
(43,42,o),
(43,79,cs),
(43,105,o),
(66,122,o),
(83,122,cs),
(97,122,o),
(103,116,o),
(106,105,cs),
(119,65,o),
(140,20,o),
(198,20,cs),
(253,20,o),
(282,62,o),
(298,118,cs),
(313,177,o),
(317,246,o),
(317,299,c),
(315,299,l),
(287,258,o),
(242,228,o),
(190,228,cs),
(102,228,o),
(26,282,o),
(26,388,cs)
);
},
{
closed = 1;
nodes = (
(111,331,o),
(149,273,o),
(215,273,cs),
(260,273,o),
(293,300,o),
(307,340,cs),
(312,354,o),
(313,371,o),
(313,385,cs),
(313,468,o),
(280,548,o),
(212,548,cs),
(145,548,o),
(111,490,o),
(111,412,cs)
);
}
);
userData = {
com.fontlab.hintData = {
hhints = (
{
position = -12;
width = 35;
},
{
position = 268;
width = 53;
},
{
position = 645;
width = 35;
}
);
vhints = (
{
position = 36;
width = 100;
},
{
position = 379;
width = 98;
}
);
};
};
vertWidth = 0;
width = 426;
}
);
metricRight = "=|";
unicode = 57;
}
{
glyphname = question;
layers = (
{
layerId = m01;
shapes = (
{
closed = 1;
nodes = (
(21,530,o),
(55,601,o),
(167,601,cs),
(243,601,o),
(301,563,o),
(301,485,cs),
(301,418,o),
(248,387,o),
(220,366,cs),
(177,337,o),
(155,306,o),
(155,269,cs),
(155,222,o),
(195,207,o),
(213,207,cs),
(223,207,o),
(232,208,o),
(238,210,c),
(245,193,l),
(222,174,o),
(190,169,o),
(163,169,cs),
(118,169,o),
(73,198,o),
(73,252,cs),
(73,290,o),
(90,312,o),
(141,351,cs),
(180,380,o),
(217,432,o),
(217,485,cs),
(217,535,o),
(202,571,o),
(163,571,cs),
(129,571,o),
(105,544,o),
(93,480,cs),
(90,466,o),
(78,460,o),
(66,460,cs),
(51,460,o),
(21,471,o),
(21,502,cs)
);
},
{
closed = 1;
nodes = (
(105,74,o),
(127,96,o),
(158,96,cs),
(188,96,o),
(210,74,o),
(210,43,cs),
(210,12,o),
(188,-10,o),
(158,-10,cs),
(127,-10,o),
(105,12,o),
(105,43,cs)
);
}
);
userData = {
com.fontlab.hintData = {
hhints = (
{
position = -12;
width = 125;
},
{
position = 199;
width = 44;
},
{
position = 672;
width = 35;
}
);
vhints = (
{
position = 29;
width = 85;
},
{
position = 90;
width = 97;
},
{
position = 128;
width = 124;
},
{
position = 260;
width = 99;
}
);
};
};
vertWidth = 0;
width = 322;
}
);
metricRight = "=|";
unicode = 63;
}
{
glyphname = A;
layers = (
{
layerId = m01;
shapes = (
{
closed = 1;
nodes = (
(-21,25,l),
(33,27,o),
(41,37,o),
(58,83,cs),
(88,161,o),
(124,263,o),
(150,337,cs),
(239,588,l),
(302,588,l),
(483,76,ls),
(498,31,o),
(507,29,o),
(557,25,c),
(557,0,l),
(339,0,l),
(339,25,l),
(377,28,ls),
(404,31,o),
(409,40,o),
(400,65,cs),
(343,227,l),
(153,227,l),
(133,167,o),
(115,114,o),
(101,63,cs),
(94,40,o),
(97,31,o),
(122,29,cs),
(166,25,l),
(166,0,l),
(-21,0,l)
);
},
{
closed = 1;
nodes = (
(333,259,l),
(249,502,l),
(246,502,l),
(221,428,o),
(191,344,o),
(164,259,c)
);
}
);
userData = {
com.fontlab.hintData = {
hhints = (
{
position = 0;
width = 29;
},
{
position = 267;
width = 38;
},
{
position = 672;
width = 20;
}
);
};
};
vertWidth = 0;
width = 502;
}
);
unicode = 65;
}
{
glyphname = B;
layers = (
{
layerId = m01;
shapes = (
{
closed = 1;
nodes = (
(26,25,l),
(101,30,o),
(102,31,o),
(102,79,cs),
(102,509,ls),
(102,557,o),
(101,558,o),
(26,564,c),
(26,588,l),
(271,588,ls),
(339,588,o),
(389,580,o),
(422,558,cs),
(456,535,o),
(475,500,o),
(475,453,cs),
(475,388,o),
(428,338,o),
(348,322,c),
(348,320,l),
(430,309,o),
(502,265,o),
(502,165,cs),
(502,47,o),
(418,0,o),
(289,0,cs),
(26,0,l)
);
},
{
closed = 1;
nodes = (
(186,43,o),
(200,30,o),
(268,30,cs),
(341,30,o),
(411,57,o),
(411,159,cs),
(411,249,o),
(353,302,o),
(248,302,cs),
(186,302,l),
(186,95,ls)
);
},
{
closed = 1;
nodes = (
(243,332,ls),
(332,332,o),
(385,365,o),
(385,448,cs),
(385,536,o),
(317,558,o),
(255,558,cs),
(189,558,o),
(186,553,o),
(186,516,cs),
(186,332,l)
);
}
);
userData = {
com.fontlab.hintData = {
hhints = (
{
position = 0;
width = 35;
},
{
position = 355;
width = 35;
},
{
position = 657;
width = 35;
}
);
vhints = (
{
position = 125;
width = 99;
},
{
position = 458;
width = 105;
},
{
position = 488;
width = 107;
}
);
};
};
vertWidth = 0;
width = 594;
}
);
unicode = 66;
}
{
glyphname = C;
layers = (
{
layerId = m01;
shapes = (
{
closed = 1;
nodes = (
(35,386,o),
(64,459,o),
(112,513,cs),
(163,570,o),
(247,601,o),
(352,601,cs),
(429,601,o),
(494,586,o),
(532,568,c),
(532,435,l),
(507,435,l),
(490,536,o),
(430,571,o),
(343,571,cs),
(185,571,o),
(130,432,o),
(130,292,cs),
(130,190,o),
(167,17,o),
(342,17,cs),
(453,17,o),
(496,82,o),
(520,170,c),
(546,170,l),
(534,28,l),
(493,6,o),
(415,-13,o),
(347,-13,cs),
(252,-13,o),
(168,7,o),
(116,60,cs),
(65,111,o),
(35,190,o),
(35,290,cs)
);
}
);
userData = {
com.fontlab.hintData = {
hhints = (
{
position = -15;
width = 35;
},
{
position = 672;
width = 35;
}
);
vhints = (
{
position = 48;
width = 112;
},
{
position = 603;
width = 30;
},
{
position = 619;
width = 30;
}
);
};
};
vertWidth = 0;
width = 627;
}
);
unicode = 67;
}
{
glyphname = D;
layers = (
{
layerId = m01;
shapes = (
{
closed = 1;
nodes = (
(26,25,l),
(101,30,o),
(102,31,o),
(102,79,cs),
(102,509,ls),
(102,557,o),
(101,558,o),
(26,564,c),
(26,588,l),
(308,588,ls),
(555,588,o),
(617,444,o),
(617,304,cs),
(617,152,o),
(552,0,o),
(291,0,cs),
(26,0,l)
);
},
{
closed = 1;
nodes = (
(186,39,o),
(201,30,o),
(275,30,cs),
(418,30,o),
(522,87,o),
(522,301,cs),
(522,445,o),
(465,558,o),
(285,558,cs),
(194,558,o),
(186,554,o),
(186,510,cs),
(186,106,ls)
);
}
);
userData = {
com.fontlab.hintData = {
hhints = (
{
position = 0;
width = 35;
},
{
position = 657;
width = 35;
}
);
vhints = (
{
position = 125;
width = 99;
},
{
position = 619;
width = 112;
}
);
};
};
vertWidth = 0;
width = 717;
}
);
unicode = 68;
}
{
glyphname = E;
layers = (
{
layerId = m01;
shapes = (
{
closed = 1;
nodes = (
(26,25,l),
(101,30,o),
(102,31,o),
(102,79,cs),
(102,509,ls),
(102,557,o),
(101,558,o),
(26,564,c),
(26,588,l),
(455,588,l),
(455,449,l),
(430,449,l),
(418,537,o),
(398,558,o),
(301,558,cs),
(218,558,ls),
(191,558,o),
(186,555,o),
(186,528,cs),
(186,322,l),
(305,322,ls),
(378,322,o),
(381,343,o),
(389,395,c),
(414,395,l),
(414,216,l),
(389,216,l),
(381,269,o),
(378,290,o),
(305,290,cs),
(186,290,l),
(186,102,ls),
(186,60,o),
(190,46,o),
(208,38,cs),
(226,31,o),
(256,30,o),
(296,30,cs),
(403,30,o),
(441,43,o),
(461,147,c),
(486,147,l),
(476,0,l),
(26,0,l)
);
}
);
userData = {
com.fontlab.hintData = {
hhints = (
{
position = 0;
width = 35;
},
{
position = 341;
width = 38;
},
{
position = 657;
width = 35;
}
);
vhints = (
{
position = 125;
width = 99;
},
{
position = 462;
width = 30;
},
{
position = 510;
width = 30;
},
{
position = 547;
width = 30;
}
);
};
};
vertWidth = 0;
width = 557;
}
);
unicode = 69;
}
{
glyphname = F;
layers = (
{
layerId = m01;
shapes = (
{
closed = 1;
nodes = (
(26,25,l),
(101,30,o),
(102,31,o),
(102,79,cs),
(102,509,ls),
(102,557,o),
(101,558,o),
(26,564,c),
(26,588,l),
(458,588,l),
(458,452,l),
(432,452,l),
(420,539,o),
(401,558,o),
(302,558,cs),
(218,558,ls),
(190,558,o),
(186,556,o),
(186,528,cs),
(186,310,l),
(305,310,ls),
(378,310,o),
(381,331,o),
(389,385,c),
(414,385,l),
(414,203,l),
(389,203,l),
(381,258,o),
(378,278,o),
(305,278,cs),
(186,278,l),
(186,79,ls),
(186,31,o),
(189,30,o),
(277,25,c),
(277,0,l),
(26,0,l)
);
}
);
userData = {
com.fontlab.hintData = {
hhints = (
{
position = 0;
width = 29;
},
{
position = 327;
width = 38;
},
{
position = 657;
width = 35;
}
);
vhints = (
{
position = 125;
width = 99;
},
{
position = 462;
width = 30;
},
{
position = 513;
width = 30;
}
);
};
};
vertWidth = 0;
width = 533;
}
);
unicode = 70;
}
{
glyphname = G;
layers = (
{
layerId = m01;
shapes = (
{
closed = 1;
nodes = (
(35,371,o),
(55,439,o),
(99,496,cs),
(147,559,o),
(232,601,o),
(360,601,cs),
(428,601,o),
(501,587,o),
(542,566,c),
(542,433,l),
(517,433,l),
(499,529,o),
(445,571,o),
(351,571,cs),
(184,571,o),
(130,431,o),
(130,297,cs),
(130,190,o),
(167,17,o),
(362,17,cs),
(391,17,o),
(415,21,o),
(437,30,cs),
(455,37,o),
(466,46,o),
(466,76,cs),
(466,190,ls),
(466,232,o),
(462,237,o),
(376,243,c),
(376,268,l),
(610,268,l),
(610,243,l),
(554,237,o),
(550,233,o),
(550,190,cs),
(550,23,l),
(496,6,o),
(414,-13,o),
(354,-13,cs),
(280,-13,o),
(205,-3,o),
(140,42,cs),
(78,86,o),
(35,173,o),
(35,283,cs)
);
}
);
userData = {
com.fontlab.hintData = {
hhints = (
{
position = -15;
width = 35;
},
{
position = 286;
width = 29;
},
{
position = 672;
width = 35;
}
);
vhints = (
{
position = 48;
width = 112;
},
{
position = 555;
width = 99;
},
{
position = 615;
width = 30;
}
);
};
};
vertWidth = 0;
width = 673;
}
);
unicode = 71;
}
{
glyphname = H;
layers = (
{
layerId = m01;
shapes = (
{
closed = 1;
nodes = (
(26,25,l),
(101,30,o),
(102,31,o),
(102,79,cs),
(102,509,ls),
(102,557,o),
(101,558,o),
(26,564,c),
(26,588,l),
(263,588,l),
(263,564,l),
(189,558,o),
(186,557,o),
(186,509,cs),
(186,322,l),
(484,322,l),
(484,509,ls),
(484,557,o),
(482,558,o),
(407,564,c),
(407,588,l),
(645,588,l),
(645,564,l),
(571,558,o),
(568,557,o),
(568,509,cs),
(568,79,ls),
(568,31,o),
(571,30,o),
(645,25,c),
(645,0,l),
(407,0,l),
(407,25,l),
(482,30,o),
(484,31,o),
(484,79,cs),
(484,290,l),
(186,290,l),
(186,79,ls),
(186,31,o),
(189,30,o),
(263,25,c),
(263,0,l),
(26,0,l)
);
}
);
userData = {
com.fontlab.hintData = {
hhints = (
{
position = 0;
width = 29;
},
{
position = 341;
width = 38;
},
{
position = 663;
width = 29;
}
);
vhints = (
{
position = 125;
width = 99;
},
{
position = 574;
width = 99;
}
);
};
};
vertWidth = 0;
width = 734;
}
);
unicode = 72;
}
{
glyphname = I;
layers = (
{
layerId = m01;
shapes = (
{
closed = 1;
nodes = (
(26,25,l),
(101,30,o),
(102,31,o),
(102,79,cs),
(102,509,ls),
(102,557,o),
(101,558,o),
(26,564,c),
(26,588,l),
(263,588,l),
(263,564,l),
(189,558,o),
(186,557,o),
(186,509,cs),
(186,79,ls),
(186,31,o),
(189,30,o),
(263,25,c),
(263,0,l),
(26,0,l)
);
}
);
userData = {
com.fontlab.hintData = {
hhints = (
{
position = 0;
width = 29;
},
{
position = 663;
width = 29;
}
);
vhints = (
{
position = 125;
width = 99;
}
);
};
};
vertWidth = 0;
width = 319;
}
);
unicode = 73;
}
{
glyphname = J;
layers = (
{
layerId = m01;
shapes = (
{
closed = 1;
nodes = (
(30,-68,o),
(60,-54,o),
(79,-31,cs),
(99,-7,o),
(114,34,o),
(114,116,cs),
(114,509,ls),
(114,557,o),
(112,558,o),
(37,564,c),
(37,588,l),
(275,588,l),
(275,564,l),
(201,558,o),
(198,557,o),
(198,509,cs),
(198,122,ls),
(198,35,o),
(188,-36,o),
(111,-71,cs),
(78,-86,o),
(37,-95,o),
(4,-97,c),
(0,-76,l)
);
}
);
userData = {
com.fontlab.hintData = {
hhints = (
{
position = 663;
width = 29;
}
);
vhints = (
{
position = 134;
width = 99;
}
);
};
};
vertWidth = 0;
width = 324;
}
);
unicode = 74;
}
{
glyphname = K;
layers = (
{
layerId = m01;
shapes = (
{
closed = 1;
nodes = (
(26,25,l),
(101,30,o),
(102,31,o),
(102,79,cs),
(102,509,ls),
(102,557,o),
(101,558,o),
(26,564,c),
(26,588,l),
(263,588,l),
(263,564,l),
(189,558,o),
(186,557,o),
(186,509,cs),
(186,309,l),
(248,371,o),
(344,472,o),
(393,527,cs),
(412,549,o),
(410,559,o),
(392,561,cs),
(360,564,l),
(360,588,l),
(566,588,l),
(566,564,l),
(494,559,o),
(477,550,o),
(433,511,cs),
(381,466,o),
(316,401,o),
(260,339,c),
(317,252,o),
(389,167,o),
(464,86,cs),
(501,48,o),
(528,24,o),
(563,16,c),
(563,-4,l),
(509,-2,ls),
(457,0,o),
(412,15,o),
(362,71,cs),
(296,146,o),
(237,226,o),
(189,300,c),
(188,303,l),
(186,303,l),
(186,79,ls),
(186,31,o),
(189,30,o),
(263,25,c),
(263,0,l),
(26,0,l)
);
}
);
userData = {
com.fontlab.hintData = {
hhints = (
{
position = -5;
width = 24;
},
{
position = 0;
width = 29;
},
{
position = 663;
width = 29;
}
);
vhints = (
{
position = 125;
width = 99;
},
{
position = 483;
width = 188;
}
);
};
};
vertWidth = 0;
width = 605;
}
);
unicode = 75;
}
{
glyphname = L;
layers = (
{
layerId = m01;
shapes = (
{
closed = 1;
nodes = (
(26,25,l),
(101,30,o),
(102,31,o),
(102,79,cs),
(102,509,ls),
(102,557,o),
(101,558,o),
(26,564,c),
(26,588,l),
(268,588,l),
(268,564,l),
(189,558,o),
(186,557,o),
(186,509,cs),
(186,102,ls),
(186,60,o),
(190,46,o),
(208,38,cs),
(226,31,o),
(256,30,o),
(299,30,cs),
(388,30,o),
(435,41,o),
(452,152,c),
(477,152,l),
(467,0,l),
(26,0,l)
);
}
);
userData = {
com.fontlab.hintData = {
hhints = (
{
position = 0;
width = 35;
},
{
position = 663;
width = 29;
}
);
vhints = (
{
position = 125;
width = 99;
},
{
position = 536;
width = 30;
}
);
};
};
vertWidth = 0;
width = 521;
}
);
unicode = 76;
}
{
glyphname = M;
layers = (
{
layerId = m01;
shapes = (
{
closed = 1;
nodes = (
(25,25,l),
(69,28,o),
(90,31,o),
(95,67,cs),
(99,95,o),
(101,128,o),
(101,173,cs),
(101,509,ls),
(101,557,o),
(99,558,o),
(24,564,c),
(24,588,l),
(197,588,l),
(227,513,o),
(263,438,o),
(296,362,cs),
(396,135,l),
(398,135,l),
(500,363,ls),
(534,438,o),
(569,513,o),
(598,588,c),
(769,588,l),
(769,564,l),
(695,558,o),
(692,557,o),
(692,509,cs),
(692,79,ls),
(692,31,o),
(695,30,o),
(769,25,c),
(769,0,l),
(532,0,l),
(532,25,l),
(606,30,o),
(608,31,o),
(608,79,cs),
(608,510,l),
(605,510,l),
(384,10,l),
(361,10,l),
(141,510,l),
(140,510,l),
(140,173,ls),
(140,128,o),
(141,95,o),
(146,67,cs),
(151,31,o),
(171,29,o),
(226,25,c),
(226,0,l),
(25,0,l)
);
}
);
userData = {
com.fontlab.hintData = {
hhints = (
{
position = 0;
width = 29;
},
{
position = 663;
width = 29;
}
);
vhints = (
{
position = 123;
width = 46;
},
{
position = 720;
width = 99;
}
);
};
};
vertWidth = 0;
width = 869;
}
);
unicode = 77;
}
{
glyphname = N;
layers = (
{
layerId = m01;
shapes = (
{
closed = 1;
nodes = (
(26,25,l),
(70,28,o),
(90,31,o),
(95,67,cs),
(100,95,o),
(101,128,o),
(101,173,cs),
(101,509,ls),
(101,557,o),
(100,558,o),
(25,564,c),
(25,588,l),
(188,588,l),
(298,432,o),
(408,275,o),
(520,119,c),
(521,117,l),
(521,416,ls),
(521,461,o),
(520,493,o),
(515,521,cs),
(510,557,o),
(490,559,o),
(435,564,c),
(435,588,l),
(636,588,l),
(636,564,l),
(592,560,o),
(571,557,o),
(566,521,cs),
(562,493,o),
(560,461,o),
(560,416,cs),
(560,0,l),
(504,0,l),
(384,171,o),
(264,341,o),
(142,512,c),
(141,512,l),
(141,173,ls),
(141,128,o),
(142,95,o),
(146,67,cs),
(152,31,o),
(172,29,o),
(227,25,c),
(227,0,l),
(26,0,l)
);
}
);
userData = {
com.fontlab.hintData = {
hhints = (
{
position = 0;
width = 29;
},
{
position = 663;
width = 29;
}
);
vhints = (
{
position = 124;
width = 46;
},
{
position = 618;
width = 46;
}
);
};
};
vertWidth = 0;
width = 718;
}
);
unicode = 78;
}
{
glyphname = O;
layers = (
{
layerId = m01;
shapes = (
{
closed = 1;
nodes = (
(35,389,o),
(61,468,o),
(107,519,cs),
(155,572,o),
(224,601,o),
(318,601,cs),
(411,601,o),
(481,572,o),
(529,519,cs),
(575,468,o),
(601,389,o),
(601,294,cs),
(601,199,o),
(575,121,o),
(529,70,cs),
(481,16,o),
(411,-13,o),
(318,-13,cs),
(224,-13,o),
(155,16,o),
(107,70,cs),
(61,121,o),
(35,199,o),
(35,294,cs)
);
},
{
closed = 1;
nodes = (
(130,169,o),
(167,17,o),
(318,17,cs),
(469,17,o),
(506,169,o),
(506,294,cs),
(506,419,o),
(469,571,o),
(318,571,cs),
(167,571,o),
(130,419,o),
(130,294,cs)
);
}
);
userData = {
com.fontlab.hintData = {
hhints = (
{
position = -15;
width = 35;
},
{
position = 672;
width = 35;
}
);
vhints = (
{
position = 48;
width = 112;
},
{
position = 602;
width = 112;
}
);
};
};
vertWidth = 0;
width = 699;
}
);
unicode = 79;
}
{
glyphname = P;
layers = (
{
layerId = m01;
shapes = (
{
closed = 1;
nodes = (
(26,25,l),
(101,30,o),
(102,31,o),
(102,79,cs),
(102,509,ls),
(102,557,o),
(101,558,o),
(26,564,c),
(26,588,l),
(263,588,ls),
(322,588,o),
(377,580,o),
(418,554,cs),
(456,530,o),
(484,486,o),
(484,422,cs),
(484,315,o),
(409,269,o),
(344,252,cs),
(312,245,o),
(274,241,o),
(235,241,cs),
(186,241,l),
(186,79,ls),
(186,31,o),
(189,30,o),
(277,25,c),
(277,0,l),
(26,0,l)
);
},
{
closed = 1;
nodes = (
(186,273,o),
(199,271,o),
(249,271,cs),
(322,271,o),
(392,309,o),
(392,416,cs),
(392,508,o),
(339,558,o),
(251,558,cs),
(196,558,o),
(186,551,o),
(186,527,cs),
(186,304,ls)
);
}
);
userData = {
com.fontlab.hintData = {
hhints = (
{
position = 0;
width = 29;
},
{
position = 284;
width = 35;
},
{
position = 657;
width = 35;
}
);
vhints = (
{
position = 125;
width = 99;
},
{
position = 466;
width = 108;
}
);
};
};
vertWidth = 0;
width = 551;
}
);
unicode = 80;
}
{
glyphname = Q;
layers = (
{
layerId = m01;
shapes = (
{
closed = 1;
nodes = (
(35,390,o),
(61,468,o),
(107,519,cs),
(155,572,o),
(224,601,o),
(318,601,cs),
(412,601,o),
(481,572,o),
(529,519,cs),
(575,468,o),
(601,390,o),
(601,294,cs),
(601,199,o),
(575,121,o),
(529,70,cs),
(493,30,o),
(446,3,o),
(385,-7,c),
(394,-24,o),
(412,-48,o),
(434,-72,cs),
(482,-124,o),
(524,-135,o),
(545,-135,cs),
(552,-135,o),
(558,-135,o),
(567,-134,c),
(569,-148,l),
(552,-159,o),
(528,-164,o),
(498,-164,cs),
(408,-164,o),
(329,-102,o),
(285,-11,c),
(208,-6,o),
(149,22,o),
(107,70,cs),
(61,121,o),
(35,199,o),
(35,294,cs)
);
},
{
closed = 1;
nodes = (
(130,169,o),
(167,17,o),
(318,17,cs),
(469,17,o),
(506,169,o),
(506,294,cs),
(506,419,o),
(469,571,o),
(318,571,cs),
(167,571,o),
(130,419,o),
(130,294,cs)
);
}
);
userData = {
com.fontlab.hintData = {
hhints = (
{
position = -193;
width = 34;
},
{
position = -13;
width = 33;
},
{
position = 672;
width = 35;
}
);
vhints = (
{
position = 48;
width = 112;
},
{
position = 602;
width = 112;
}
);
};
};
vertWidth = 0;
width = 699;
}
);
unicode = 81;
}
{
glyphname = R;
layers = (
{
layerId = m01;
shapes = (
{
closed = 1;
nodes = (
(26,25,l),
(101,30,o),
(102,31,o),
(102,79,cs),
(102,509,ls),
(102,557,o),
(101,558,o),
(26,564,c),
(26,588,l),
(274,588,ls),
(423,588,o),
(474,524,o),
(474,443,cs),
(474,362,o),
(415,309,o),
(335,293,c),
(335,292,l),
(425,269,o),
(441,213,o),
(451,137,cs),
(458,79,o),
(472,31,o),
(538,25,c),
(538,0,l),
(469,0,ls),
(419,0,o),
(387,19,o),
(374,73,cs),
(365,112,o),
(356,179,o),
(350,203,cs),
(335,261,o),
(296,277,o),
(245,277,cs),
(186,277,l),
(186,79,ls),
(186,43,o),
(186,42,o),
(189,38,cs),
(195,28,o),
(214,28,o),
(250,25,c),
(250,0,l),
(26,0,l)
);
},
{
closed = 1;
nodes = (
(254,307,ls),
(336,307,o),
(383,346,o),
(383,435,cs),
(383,536,o),
(311,558,o),
(248,558,cs),
(192,558,o),
(186,552,o),
(186,516,cs),
(186,307,l)
);
}
);
userData = {
com.fontlab.hintData = {
hhints = (
{
position = 0;
width = 29;
},
{
position = 326;
width = 35;
},
{
position = 657;
width = 35;
},
{
position = 663;
width = 29;
}
);
vhints = (
{
position = 125;
width = 99;
},
{
position = 455;
width = 107;
}
);
};
};
vertWidth = 0;
width = 592;
}
);
unicode = 82;
}
{
glyphname = S;
layers = (
{
layerId = m01;
shapes = (
{
closed = 1;
nodes = (
(64,174,l),
(85,79,o),
(138,17,o),
(218,17,cs),
(293,17,o),
(340,61,o),
(340,134,cs),
(340,210,o),
(259,249,o),
(222,264,cs),
(207,269,ls),
(117,301,o),
(46,348,o),
(46,437,cs),
(46,549,o),
(138,601,o),
(241,601,cs),
(299,601,o),
(357,587,o),
(386,564,c),
(386,444,l),
(360,444,l),
(346,530,o),
(305,571,o),
(232,571,cs),
(161,571,o),
(123,525,o),
(123,463,cs),
(123,412,o),
(171,376,o),
(228,354,cs),
(255,344,ls),
(354,308,o),
(422,260,o),
(422,160,cs),
(422,73,o),
(363,-13,o),
(212,-13,cs),
(153,-13,o),
(82,3,o),
(45,38,c),
(37,174,l)
);
}
);
userData = {
com.fontlab.hintData = {
hhints = (
{
position = -15;
width = 35;
},
{
position = 672;
width = 35;
}
);
vhints = (
{
position = 50;
width = 32;
},
{
position = 61;
width = 91;
},
{
position = 407;
width = 97;
},
{
position = 430;
width = 31;
}
);
};
};
vertWidth = 0;
width = 494;
}
);
unicode = 83;
}
{
glyphname = T;
layers = (
{
layerId = m01;
shapes = (
{
closed = 1;
nodes = (
(16,588,l),
(506,588,l),
(506,447,l),
(481,447,l),
(470,540,o),
(453,558,o),
(353,558,cs),
(303,558,l),
(303,79,ls),
(303,31,o),
(306,30,o),
(397,25,c),
(397,0,l),
(125,0,l),
(125,25,l),
(216,30,o),
(219,31,o),
(219,79,cs),
(219,558,l),
(169,558,ls),
(69,558,o),
(51,540,o),
(41,447,c),
(16,447,l)
);
}
);
userData = {
com.fontlab.hintData = {
hhints = (
{
position = 0;
width = 29;
},
{
position = 657;
width = 35;
}
);
vhints = (
{
position = 22;
width = 30;
},
{
position = 261;
width = 99;
},
{
position = 569;
width = 30;
}
);
};
};
vertWidth = 0;
width = 571;
}
);
unicode = 84;
}
{
glyphname = U;
layers = (
{
layerId = m01;
shapes = (
{
closed = 1;
nodes = (
(21,588,l),
(258,588,l),
(258,564,l),
(184,558,o),
(181,557,o),
(181,509,cs),
(181,234,ls),
(181,153,o),
(194,102,o),
(220,68,cs),
(246,34,o),
(283,17,o),
(332,17,cs),
(381,17,o),
(418,34,o),
(445,68,cs),
(470,102,o),
(483,153,o),
(483,234,cs),
(483,509,ls),
(483,557,o),
(481,558,o),
(407,564,c),
(407,588,l),
(644,588,l),
(644,564,l),
(570,558,o),
(567,557,o),
(567,509,cs),
(567,217,ls),
(567,166,o),
(559,121,o),
(544,91,cs),
(505,7,o),
(416,-13,o),
(332,-13,cs),
(248,-13,o),
(159,8,o),
(120,91,cs),
(106,120,o),
(97,165,o),
(97,215,cs),
(97,509,ls),
(97,557,o),
(95,558,o),
(21,564,c)
);
}
);
userData = {
com.fontlab.hintData = {
hhints = (
{
position = -15;
width = 35;
},
{
position = 663;
width = 29;
}
);
vhints = (
{
position = 119;
width = 99;
},
{
position = 573;
width = 99;
}
);
};
};
vertWidth = 0;
width = 728;
}
);
unicode = 85;
}
{
glyphname = V;
layers = (
{
layerId = m01;
shapes = (
{
closed = 1;
nodes = (
(-13,588,l),
(206,588,l),
(206,564,l),
(162,559,ls),
(141,558,o),
(139,550,o),
(146,529,cs),
(168,461,o),
(194,386,o),
(220,312,cs),
(300,94,l),
(301,92,l),
(390,336,ls),
(420,421,o),
(447,496,o),
(456,533,cs),
(460,549,o),
(459,558,o),
(437,559,cs),
(390,564,l),
(390,588,l),
(578,588,l),
(578,564,l),
(532,561,o),
(522,559,o),
(504,519,cs),
(484,474,o),
(450,388,o),
(415,293,cs),
(306,0,l),
(246,0,l),
(150,272,ls),
(120,357,o),
(89,442,o),
(62,513,cs),
(45,558,o),
(34,562,o),
(-13,564,c)
);
}
);
userData = {
com.fontlab.hintData = {
hhints = (
{
position = 0;
width = 21;
},
{
position = 663;
width = 29;
}
);
};
};
vertWidth = 0;
width = 588;
}
);
unicode = 86;
}
{
glyphname = W;
layers = (
{
layerId = m01;
shapes = (
{
closed = 1;
nodes = (
(-9,588,l),
(204,588,l),
(204,564,l),
(162,559,ls),
(141,558,o),
(137,553,o),
(144,524,cs),
(178,391,o),
(215,248,o),
(260,102,c),
(261,102,l),
(391,573,l),
(455,573,l),
(502,417,o),
(550,259,o),
(599,102,c),
(601,102,l),
(664,345,ls),
(685,425,o),
(704,495,o),
(709,526,cs),
(713,544,o),
(711,556,o),
(691,558,cs),
(638,564,l),
(638,588,l),
(832,588,l),
(832,564,l),
(780,560,o),
(770,556,o),
(753,507,cs),
(742,474,o),
(722,400,o),
(695,303,cs),
(610,0,l),
(545,0,l),
(502,152,o),
(455,309,o),
(403,471,c),
(402,471,l),
(268,0,l),
(203,0,l),
(130,271,ls),
(107,356,o),
(83,441,o),
(63,508,cs),
(49,558,o),
(41,561,o),
(-9,564,c)
);
}
);
userData = {
com.fontlab.hintData = {
hhints = (
{
position = 0;
width = 21;
},
{
position = 663;
width = 29;
}
);
};
};
vertWidth = 0;
width = 872;
}
);
unicode = 87;
}
{
glyphname = X;
layers = (
{
layerId = m01;
shapes = (
{
closed = 1;
nodes = (
(-14,25,l),
(40,30,o),
(48,32,o),
(77,71,cs),
(112,117,o),
(180,222,o),
(229,293,c),
(93,510,ls),
(64,556,o),
(54,562,o),
(0,564,c),
(0,588,l),
(220,588,l),
(220,564,l),
(179,559,ls),
(163,558,o),
(161,547,o),
(171,530,cs),
(277,364,l),
(279,364,l),
(320,422,o),
(357,479,o),
(389,532,cs),
(399,549,o),
(399,558,o),
(381,560,cs),
(340,564,l),
(340,588,l),
(528,588,l),
(528,564,l),
(478,561,o),
(467,557,o),
(430,512,cs),
(394,467,o),
(345,400,o),
(298,331,c),
(464,73,ls),
(489,34,o),
(499,29,o),
(560,25,c),
(560,0,l),
(319,0,l),
(319,25,l),
(366,30,ls),
(382,31,o),
(390,38,o),
(379,54,cs),
(250,259,l),
(249,259,l),
(203,190,o),
(162,121,o),
(125,54,cs),
(117,40,o),
(122,32,o),
(135,31,cs),
(189,25,l),
(189,0,l),
(-14,0,l)
);
}
);
userData = {
com.fontlab.hintData = {
hhints = (
{
position = -190;
width = 20;
},
{
position = 0;
width = 29;
},
{
position = 663;
width = 29;
}
);
vhints = (
{
position = 650;
width = 28;
}
);
};
};
vertWidth = 0;
width = 579;
}
);
unicode = 88;
}
{
glyphname = Y;
layers = (
{
layerId = m01;
shapes = (
{
closed = 1;
nodes = (
(-8,588,l),
(212,588,l),
(212,564,l),
(162,558,ls),
(149,557,o),
(146,548,o),
(152,533,cs),
(190,451,o),
(234,366,o),
(283,276,c),
(285,276,l),
(330,365,o),
(388,481,o),
(409,532,cs),
(416,548,o),
(414,558,o),
(399,559,cs),
(353,564,l),
(353,588,l),
(539,588,l),
(539,564,l),
(482,561,o),
(477,554,o),
(448,507,cs),
(422,465,o),
(358,346,o),
(315,259,cs),
(306,242,o),
(304,230,o),
(304,209,cs),
(304,79,ls),
(304,32,o),
(306,30,o),
(394,25,c),
(394,0,l),
(130,0,l),
(130,25,l),
(217,30,o),
(220,32,o),
(220,79,cs),
(220,206,ls),
(220,223,o),
(216,237,o),
(207,255,cs),
(165,339,o),
(115,434,o),
(67,521,cs),
(49,557,o),
(37,562,o),
(-8,564,c)
);
}
);
userData = {
com.fontlab.hintData = {
hhints = (
{
position = 0;
width = 29;
},
{
position = 663;
width = 29;
}
);
vhints = (
{
position = -12;
width = 185;
},
{
position = 256;
width = 99;
},
{
position = 483;
width = 149;
}
);
};
};
vertWidth = 0;
width = 546;
}
);
unicode = 89;
}
{
glyphname = Z;
layers = (
{
layerId = m01;
shapes = (
{
closed = 1;
nodes = (
(135,194,o),
(263,377,o),
(387,558,c),
(234,558,ls),
(118,558,o),
(97,540,o),
(87,442,c),
(59,442,l),
(59,588,l),
(494,588,l),
(499,577,l),
(370,394,o),
(243,213,o),
(119,30,c),
(291,30,ls),
(421,30,o),
(461,45,o),
(477,151,c),
(504,151,l),
(495,0,l),
(11,0,l),
(7,11,l)
);
}
);
userData = {
com.fontlab.hintData = {
hhints = (
{
position = 0;
width = 35;
},
{
position = 657;
width = 35;
},
{
position = 679;
width = 13;
}
);
vhints = (
{
position = 71;
width = 32;
}
);
};
};
vertWidth = 0;
width = 563;
}
);
unicode = 90;
}
{
glyphname = bracketleft;
layers = (
{
layerId = m01;
shapes = (
{
closed = 1;
nodes = (
(96,588,l),
(231,588,l),
(231,565,l),
(155,562,o),
(150,558,o),
(150,519,cs),
(150,-39,ls),
(150,-79,o),
(155,-82,o),
(231,-86,c),
(231,-109,l),
(96,-109,l)
);
}
);
userData = {
com.fontlab.hintData = {
hhints = (
{
position = -128;
width = 27;
},
{
position = 665;
width = 27;
}
);
vhints = (
{
position = 133;
width = 63;
}
);
};
};
vertWidth = 0;
width = 327;
}
);
metricRight = "=|";
unicode = 91;
}
{
glyphname = backslash;
layers = (
{
layerId = m01;
shapes = (
{
closed = 1;
nodes = (
(122,601,l),
(302,-13,l),
(245,-13,l),
(65,601,l)
);
}
);
userData = {
com.fontlab.hintData = {
hhints = (
{
position = -15;
width = 21;
},
{
position = 687;
width = 20;
}
);
vhints = (
{
position = 91;
width = 278;
}
);
};
};
vertWidth = 0;
width = 367;
}
);
metricRight = "=|";
unicode = 92;
}
{
glyphname = bracketright;
layers = (
{
layerId = m01;
shapes = (
{
closed = 1;
nodes = (
(104,-82,o),
(109,-79,o),
(109,-39,cs),
(109,519,ls),
(109,558,o),
(104,562,o),
(27,565,c),
(27,588,l),
(162,588,l),
(162,-109,l),
(27,-109,l),
(27,-86,l)
);
}
);
userData = {
com.fontlab.hintData = {
hhints = (
{
position = -128;
width = 27;
},
{
position = 665;
width = 27;
}
);
vhints = (
{
position = 134;
width = 63;
}
);
};
};
vertWidth = 0;
width = 189;
}
);
metricRight = "=|";
unicode = 93;
}
{
glyphname = underscore;
layers = (
{
layerId = m01;
shapes = (
{
closed = 1;
nodes = (
(425,-64,l),
(425,-106,l),
(0,-106,l),
(0,-64,l)
);
}
);
userData = {
com.fontlab.hintData = {
hhints = (
{
position = -125;
width = 50;
}
);
vhints = (
{
position = 0;
width = 500;
}
);
};
};
vertWidth = 0;
width = 425;
}
);
metricRight = "=|";
unicode = 95;
}
{
glyphname = a;
layers = (
{
layerId = m01;
shapes = (
{
closed = 1;
nodes = (
(207,-10,o),
(258,23,o),
(285,41,c),
(297,9,o),
(310,-10,o),
(340,-10,cs),
(371,-10,o),
(408,-1,o),
(440,15,c),
(435,36,l),
(423,33,o),
(405,31,o),
(392,35,cs),
(377,38,o),
(362,54,o),
(362,108,cs),
(362,314,ls),
(362,363,o),
(351,427,o),
(223,427,cs),
(127,427,o),
(51,377,o),
(51,330,cs),
(51,303,o),
(82,290,o),
(99,290,cs),
(116,290,o),
(122,299,o),
(126,314,cs),
(144,377,o),
(179,397,o),
(213,397,cs),
(246,397,o),
(286,380,o),
(286,312,cs),
(286,276,l),
(264,254,o),
(182,233,o),
(115,212,cs),
(54,193,o),
(36,150,o),
(36,111,cs),
(36,47,o),
(78,-10,o),
(158,-10,cs)
);
},
{
closed = 1;
nodes = (
(147,35,o),
(122,72,o),
(122,122,cs),
(122,162,o),
(140,183,o),
(188,201,cs),
(222,213,o),
(267,230,o),
(286,241,c),
(286,122,ls),
(286,53,o),
(233,35,o),
(200,35,cs)
);
}
);
width = 549;
}
);
unicode = 97;
}
{
glyphname = b;
layers = (
{
layerId = m01;
shapes = (
{
closed = 1;
nodes = (
(14,609,l),
(147,631,l),
(153,626,l),
(153,366,l),
(185,385,o),
(235,427,o),
(300,427,cs),
(453,427,o),
(464,270,o),
(464,218,cs),
(464,44,o),
(365,-10,o),
(252,-10,cs),
(188,-10,o),
(153,6,o),
(123,23,c),
(89,-10,l),
(74,-3,l),
(74,546,ls),
(74,578,o),
(68,582,o),
(46,585,cs),
(14,588,l)
);
},
{
closed = 1;
nodes = (
(153,118,o),
(154,100,o),
(159,85,cs),
(175,43,o),
(208,20,o),
(253,20,cs),
(337,20,o),
(375,88,o),
(375,213,cs),
(375,360,o),
(300,381,o),
(266,381,cs),
(218,381,o),
(182,362,o),
(162,321,cs),
(155,308,o),
(153,294,o),
(153,273,cs),
(153,139,ls)
);
}
);
userData = {
com.fontlab.hintData = {
hhints = (
{
position = -12;
width = 35;
},
{
position = 448;
width = 54;
},
{
position = 692;
width = 25;
},
{
position = 722;
width = 20;
},
{
position = 722;
width = 20;
}
);
vhints = (
{
position = 90;
width = 94;
},
{
position = 445;
width = 104;
}
);
};
};
vertWidth = 0;
width = 550;
}
);
unicode = 98;
}
{
glyphname = c;
layers = (
{
layerId = m01;
shapes = (
{
closed = 1;
nodes = (
(36,317,o),
(88,427,o),
(242,427,cs),
(334,427,o),
(390,383,o),
(390,344,cs),
(390,312,o),
(357,301,o),
(340,301,cs),
(324,301,o),
(319,309,o),
(314,323,cs),
(297,369,o),
(272,397,o),
(233,397,cs),
(174,397,o),
(124,346,o),
(124,219,cs),
(124,139,o),
(148,34,o),
(249,34,cs),
(311,34,o),
(345,65,o),
(371,124,c),
(396,112,l),
(372,21,o),
(292,-10,o),
(233,-10,cs),
(105,-10,o),
(36,62,o),
(36,204,cs)
);
}
);
userData = {
com.fontlab.hintData = {
hhints = (
{
position = -12;
width = 52;
},
{
position = 467;
width = 35;
}
);
vhints = (
{
position = 49;
width = 104;
}
);
};
};
vertWidth = 0;
width = 453;
}
);
unicode = 99;
}
{
glyphname = d;
layers = (
{
layerId = m01;
shapes = (
{
closed = 1;
nodes = (
(36,274,o),
(58,330,o),
(94,368,cs),
(130,405,o),
(182,427,o),
(252,427,cs),
(291,427,o),
(322,419,o),
(346,406,c),
(346,546,ls),
(346,578,o),
(341,582,o),
(319,585,cs),
(286,588,l),
(286,609,l),
(420,631,l),
(426,626,l),
(426,74,ls),
(426,31,o),
(429,29,o),
(490,25,c),
(490,0,l),
(352,0,l),
(345,6,l),
(345,48,l),
(299,10,o),
(259,-10,o),
(213,-10,cs),
(101,-10,o),
(36,74,o),
(36,200,cs)
);
},
{
closed = 1;
nodes = (
(124,112,o),
(163,36,o),
(241,36,cs),
(286,36,o),
(323,53,o),
(340,97,cs),
(345,111,o),
(346,126,o),
(346,145,cs),
(346,294,ls),
(346,317,o),
(345,329,o),
(338,343,cs),
(323,378,o),
(291,397,o),
(251,397,cs),
(164,397,o),
(124,320,o),
(124,210,cs)
);
}
);
userData = {
com.fontlab.hintData = {
hhints = (
{
position = -12;
width = 54;
},
{
position = 0;
width = 29;
},
{
position = 467;
width = 35;
},
{
position = 692;
width = 25;
},
{
position = 722;
width = 20;
},
{
position = 722;
width = 20;
}
);
vhints = (
{
position = 49;
width = 104;
},
{
position = 414;
width = 94;
}
);
};
};
vertWidth = 0;
width = 547;
}
);
unicode = 100;
}
{
glyphname = e;
layers = (
{
layerId = m01;
shapes = (
{
closed = 1;
nodes = (
(36,332,o),
(99,427,o),
(231,427,cs),
(387,427,o),
(403,306,o),
(403,256,cs),
(403,228,o),
(387,224,o),
(369,224,cs),
(124,224,l),
(122,135,o),
(144,33,o),
(249,33,cs),
(316,33,o),
(348,74,o),
(372,123,c),
(398,110,l),
(375,43,o),
(326,-10,o),
(232,-10,cs),
(93,-10,o),
(36,71,o),
(36,205,cs)
);
},
{
closed = 1;
nodes = (
(286,256,ls),
(309,256,o),
(314,267,o),
(314,283,cs),
(314,316,o),
(305,397,o),
(226,397,cs),
(138,397,o),
(125,291,o),
(125,256,c)
);
}
);
userData = {
com.fontlab.hintData = {
hhints = (
{
position = -12;
width = 51;
},
{
position = 263;
width = 38;
},
{
position = 467;
width = 35;
}
);
vhints = (
{
position = 49;
width = 104;
},
{
position = 377;
width = 104;
}
);
};
};
vertWidth = 0;
width = 469;
}
);
unicode = 101;
}
{
glyphname = f;
layers = (
{
layerId = m01;
shapes = (
{
closed = 1;
nodes = (
(22,417,l),
(87,417,l),
(87,446,ls),
(87,502,o),
(95,547,o),
(115,577,cs),
(136,609,o),
(176,631,o),
(223,631,cs),
(291,631,o),
(327,597,o),
(327,569,cs),
(327,543,o),
(302,529,o),
(285,529,cs),
(272,529,o),
(266,535,o),
(262,543,cs),
(241,592,o),
(222,601,o),
(204,601,cs),
(191,601,o),
(161,592,o),
(163,512,cs),
(167,417,l),
(271,417,l),
(271,383,l),
(167,383,l),
(167,73,ls),
(167,30,o),
(170,28,o),
(248,25,c),
(248,0,l),
(23,0,l),
(23,25,l),
(84,29,o),
(87,31,o),
(87,74,cs),
(87,383,l),
(22,383,l)
);
}
);
userData = {
com.fontlab.hintData = {
hhints = (
{
position = 0;
width = 29;
},
{
position = 450;
width = 40;
},
{
position = 707;
width = 35;
}
);
vhints = (
{
position = 107;
width = 94;
}
);
};
};
vertWidth = 0;
width = 291;
}
);
unicode = 102;
}
{
glyphname = g;
layers = (
{
layerId = m01;
shapes = (
{
closed = 1;
nodes = (
(31,-20,o),
(92,0,o),
(128,12,c),
(128,14,l),
(88,18,o),
(54,50,o),
(54,80,cs),
(54,113,o),
(86,138,o),
(132,156,c),
(132,157,l),
(93,167,o),
(40,204,o),
(40,284,cs),
(40,347,o),
(86,427,o),
(216,427,cs),
(255,427,o),
(302,417,o),
(326,400,c),
(434,435,l),
(441,428,l),
(424,374,l),
(357,364,l),
(372,349,o),
(383,320,o),
(383,284,cs),
(383,181,o),
(292,145,o),
(211,145,cs),
(202,145,o),
(184,146,o),
(168,148,c),
(157,145,o),
(124,131,o),
(124,106,cs),
(124,90,o),
(134,70,o),
(195,70,cs),
(263,70,ls),
(354,70,o),
(427,37,o),
(427,-54,cs),
(427,-107,o),
(399,-147,o),
(360,-171,cs),
(319,-195,o),
(265,-206,o),
(214,-206,cs),
(116,-206,o),
(31,-167,o),
(31,-82,cs)
);
},
{
closed = 1;
nodes = (
(111,-139,o),
(162,-176,o),
(234,-176,cs),
(294,-176,o),
(355,-144,o),
(355,-76,cs),
(355,-12,o),
(300,6,o),
(225,6,cs),
(185,6,o),
(157,1,o),
(138,-14,cs),
(120,-27,o),
(111,-48,o),
(111,-77,cs)
);
},
{
closed = 1;
nodes = (
(127,213,o),
(167,175,o),
(214,175,cs),
(264,175,o),
(301,213,o),
(301,284,cs),
(301,366,o),
(258,397,o),
(216,397,cs),
(171,397,o),
(127,368,o),
(127,284,cs)
);
}
);
userData = {
com.fontlab.hintData = {
hhints = (
{
position = -242;
width = 35;
},
{
position = 7;
width = 75;
},
{
position = 171;
width = 35;
},
{
position = 467;
width = 35;
}
);
vhints = (
{
position = 42;
width = 95;
},
{
position = 53;
width = 102;
},
{
position = 69;
width = 83;
},
{
position = 360;
width = 96;
},
{
position = 424;
width = 84;
}
);
};
};
vertWidth = 0;
width = 476;
}
);
unicode = 103;
}
{
glyphname = h;
layers = (
{
layerId = m01;
shapes = (
{
closed = 1;
nodes = (
(15,25,l),
(74,29,o),
(78,32,o),
(78,74,cs),
(78,546,ls),
(78,576,o),
(73,581,o),
(51,584,cs),
(18,588,l),
(18,609,l),
(151,631,l),
(157,626,l),
(157,362,l),
(210,398,o),
(249,427,o),
(311,427,cs),
(390,427,o),
(436,377,o),
(436,292,cs),
(436,74,ls),
(436,32,o),
(442,29,o),
(500,25,c),
(500,0,l),
(293,0,l),
(293,25,l),
(352,29,o),
(357,32,o),
(357,74,cs),
(357,275,ls),
(357,349,o),
(325,381,o),
(267,381,cs),
(222,381,o),
(183,353,o),
(165,319,cs),
(159,306,o),
(158,294,o),
(158,273,cs),
(158,74,ls),
(158,32,o),
(163,29,o),
(221,25,c),
(221,0,l),
(15,0,l)
);
}
);
userData = {
com.fontlab.hintData = {
hhints = (
{
position = 0;
width = 29;
},
{
position = 448;
width = 54;
},
{
position = 722;
width = 20;
}
);
vhints = (
{
position = 95;
width = 94;
},
{
position = 423;
width = 94;
}
);
};
};
vertWidth = 0;
width = 558;
}
);
unicode = 104;
}
{
glyphname = k;
layers = (
{
layerId = m01;
shapes = (
{
closed = 1;
nodes = (
(14,25,l),
(75,29,o),
(78,31,o),
(78,74,cs),
(78,546,ls),
(78,578,o),
(73,582,o),
(51,585,cs),
(18,588,l),
(18,609,l),
(152,631,l),
(158,626,l),
(158,228,l),
(159,228,l),
(179,257,o),
(263,362,o),
(288,392,cs),
(305,412,o),
(312,417,o),
(341,417,cs),
(429,417,l),
(429,393,l),
(380,388,o),
(358,377,o),
(329,356,cs),
(300,335,o),
(273,310,o),
(232,264,cs),
(224,254,o),
(226,250,o),
(230,244,cs),
(262,198,o),
(329,117,o),
(381,65,cs),
(408,39,o),
(429,26,o),
(454,20,c),
(454,-4,l),
(391,-2,ls),
(363,0,o),
(330,10,o),
(299,42,cs),
(255,87,o),
(194,161,o),
(159,216,c),
(158,216,l),
(158,74,ls),
(158,31,o),
(161,29,o),
(221,25,c),
(221,0,l),
(14,0,l)
);
}
);
userData = {
com.fontlab.hintData = {
hhints = (
{
position = 0;
width = 29;
},
{
position = 254;
width = 14;
},
{
position = 462;
width = 28;
},
{
position = 692;
width = 25;
},
{
position = 722;
width = 20;
},
{
position = 722;
width = 20;
}
);
vhints = (
{
position = 95;
width = 94;
}
);
};
};
vertWidth = 0;
width = 482;
}
);
unicode = 107;
}
{
glyphname = l;
layers = (
{
layerId = m01;
shapes = (
{
closed = 1;
nodes = (
(14,25,l),
(75,29,o),
(78,31,o),
(78,74,cs),
(78,546,ls),
(78,578,o),
(73,582,o),
(51,585,cs),
(18,588,l),
(18,609,l),
(152,631,l),
(158,626,l),
(158,74,ls),
(158,31,o),
(161,29,o),
(221,25,c),
(221,0,l),
(14,0,l)
);
}
);
userData = {
com.fontlab.hintData = {
hhints = (
{
position = 0;
width = 29;
},
{
position = 722;
width = 20;
}
);
vhints = (
{
position = 95;
width = 94;
}
);
};
};
vertWidth = 0;
width = 255;
}
);
unicode = 108;
}
{
glyphname = m;
layers = (
{
layerId = m01;
shapes = (
{
closed = 1;
nodes = (
(23,25,l),
(84,29,o),
(87,31,o),
(87,74,cs),
(87,342,ls),
(87,372,o),
(82,377,o),
(60,380,cs),
(27,384,l),
(27,405,l),
(159,427,l),
(167,362,l),
(197,384,o),
(250,427,o),
(316,427,cs),
(375,427,o),
(407,401,o),
(428,361,c),
(458,380,o),
(508,427,o),
(577,427,cs),
(658,427,o),
(704,377,o),
(704,292,cs),
(704,74,ls),
(704,31,o),
(707,29,o),
(768,25,c),
(768,0,l),
(560,0,l),
(560,25,l),
(622,29,o),
(624,31,o),
(624,74,cs),
(624,275,ls),
(624,350,o),
(592,381,o),
(538,381,cs),
(491,381,o),
(454,354,o),
(441,320,cs),
(436,306,o),
(435,294,o),
(435,273,cs),
(435,74,ls),
(435,31,o),
(439,29,o),
(499,25,c),
(499,0,l),
(292,0,l),
(292,25,l),
(353,29,o),
(356,31,o),
(356,74,cs),
(356,275,ls),
(356,327,o),
(347,381,o),
(274,381,cs),
(227,381,o),
(190,352,o),
(174,318,cs),
(168,306,o),
(167,294,o),
(167,273,cs),
(167,74,ls),
(167,31,o),
(170,29,o),
(231,25,c),
(231,0,l),
(23,0,l)
);
}
);
userData = {
com.fontlab.hintData = {
hhints = (
{
position = 0;
width = 29;
},
{
position = 448;
width = 54;
}
);
vhints = (
{
position = 107;
width = 94;
},
{
position = 423;
width = 94;
},
{
position = 739;
width = 94;
}
);
};
};
vertWidth = 0;
width = 850;
}
);
unicode = 109;
}
{
glyphname = n;
layers = (
{
layerId = m01;
shapes = (
{
closed = 1;
nodes = (
(23,25,l),
(84,29,o),
(87,31,o),
(87,74,cs),
(87,342,ls),
(87,372,o),
(82,377,o),
(60,380,cs),
(27,384,l),
(27,405,l),
(154,427,l),
(166,362,l),
(219,396,o),
(258,427,o),
(321,427,cs),
(399,427,o),
(446,377,o),
(446,292,cs),
(446,74,ls),
(446,31,o),
(449,29,o),
(509,25,c),
(509,0,l),
(302,0,l),
(302,25,l),
(363,29,o),
(366,31,o),
(366,74,cs),
(366,275,ls),
(366,349,o),
(334,381,o),
(277,381,cs),
(231,381,o),
(193,353,o),
(175,320,cs),
(169,306,o),
(167,294,o),
(167,273,cs),
(167,74,ls),
(167,31,o),
(170,29,o),
(231,25,c),
(231,0,l),
(23,0,l)
);
}
);
userData = {
com.fontlab.hintData = {
hhints = (
{
position = 0;
width = 29;
},
{
position = 448;
width = 54;
}
);
vhints = (
{
position = 107;
width = 94;
},
{
position = 435;
width = 94;
}
);
};
};
vertWidth = 0;
width = 569;
}
);
unicode = 110;
}
{
glyphname = o;
layers = (
{
layerId = m01;
shapes = (
{
closed = 1;
nodes = (
(36,346,o),
(103,427,o),
(240,427,cs),
(377,427,o),
(444,346,o),
(444,208,cs),
(444,71,o),
(377,-10,o),
(240,-10,cs),
(103,-10,o),
(36,71,o),
(36,208,cs)
);
},
{
closed = 1;
nodes = (
(124,91,o),
(161,20,o),
(240,20,cs),
(318,20,o),
(355,91,o),
(355,208,cs),
(355,326,o),
(318,397,o),
(240,397,cs),
(161,397,o),
(124,326,o),
(124,208,cs)
);
}
);
userData = {
com.fontlab.hintData = {
hhints = (
{
position = -12;
width = 35;
},
{
position = 467;
width = 35;
}
);
vhints = (
{
position = 49;
width = 104;
},
{
position = 425;
width = 104;
}
);
};
};
vertWidth = 0;
width = 528;
}
);
unicode = 111;
}
{
glyphname = p;
layers = (
{
layerId = m01;
shapes = (
{
closed = 1;
nodes = (
(78,-167,o),
(82,-165,o),
(82,-122,cs),
(82,342,ls),
(82,372,o),
(77,377,o),
(55,380,cs),
(23,384,l),
(23,405,l),
(151,427,l),
(162,364,l),
(195,385,o),
(244,427,o),
(306,427,cs),
(461,427,o),
(472,278,o),
(472,218,cs),
(472,43,o),
(374,-10,o),
(259,-10,cs),
(220,-10,o),
(180,-1,o),
(162,9,c),
(162,-122,ls),
(162,-165,o),
(167,-167,o),
(238,-171,c),
(238,-195,l),
(18,-195,l),
(18,-171,l)
);
},
{
closed = 1;
nodes = (
(162,114,o),
(163,97,o),
(168,82,cs),
(181,43,o),
(215,20,o),
(260,20,cs),
(345,20,o),
(384,88,o),
(384,213,cs),
(384,359,o),
(308,381,o),
(274,381,cs),
(229,381,o),
(193,360,o),
(173,321,cs),
(165,306,o),
(162,294,o),
(162,273,cs),
(162,133,ls)
);
}
);
userData = {
com.fontlab.hintData = {
hhints = (
{
position = -230;
width = 29;
},
{
position = -12;
width = 35;
},
{
position = 448;
width = 54;
}
);
vhints = (
{
position = 100;
width = 94;
},
{
position = 455;
width = 104;
}
);
};
};
vertWidth = 0;
width = 559;
}
);
unicode = 112;
}
{
glyphname = q;
layers = (
{
layerId = m01;
shapes = (
{
closed = 1;
nodes = (
(36,275,o),
(58,330,o),
(95,368,cs),
(133,406,o),
(186,427,o),
(254,427,cs),
(291,427,o),
(334,418,o),
(366,400,c),
(403,427,l),
(426,427,l),
(426,-122,ls),
(426,-165,o),
(431,-167,o),
(490,-171,c),
(490,-195,l),
(278,-195,l),
(278,-171,l),
(342,-167,o),
(346,-165,o),
(346,-122,cs),
(346,45,l),
(302,13,o),
(260,-10,o),
(212,-10,cs),
(110,-10,o),
(36,62,o),
(36,198,cs)
);
},
{
closed = 1;
nodes = (
(124,113,o),
(161,36,o),
(245,36,cs),
(292,36,o),
(324,54,o),
(340,99,cs),
(345,112,o),
(346,127,o),
(346,145,cs),
(346,289,ls),
(346,309,o),
(344,325,o),
(339,338,cs),
(323,382,o),
(292,397,o),
(247,397,cs),
(161,397,o),
(124,314,o),
(124,209,cs)
);
}
);
userData = {
com.fontlab.hintData = {
hhints = (
{
position = -230;
width = 29;
},
{
position = -12;
width = 54;
},
{
position = 467;
width = 35;
}
);
vhints = (
{
position = 49;
width = 104;
},
{
position = 414;
width = 94;
}
);
};
};
vertWidth = 0;
width = 541;
}
);
unicode = 113;
}
{
glyphname = r;
layers = (
{
layerId = m01;
shapes = (
{
closed = 1;
nodes = (
(23,25,l),
(83,29,o),
(87,31,o),
(87,74,cs),
(87,342,ls),
(87,372,o),
(82,377,o),
(60,380,cs),
(27,384,l),
(27,405,l),
(157,427,l),
(167,359,l),
(223,408,o),
(248,427,o),
(279,427,cs),
(312,427,o),
(324,404,o),
(324,385,cs),
(324,359,o),
(305,337,o),
(285,337,cs),
(281,337,o),
(274,338,o),
(268,342,cs),
(243,355,o),
(229,360,o),
(215,360,cs),
(196,360,o),
(167,338,o),
(167,273,cs),
(167,74,ls),
(167,31,o),
(172,29,o),
(248,25,c),
(248,0,l),
(23,0,l)
);
}
);
userData = {
com.fontlab.hintData = {
hhints = (
{
position = 0;
width = 29;
},
{
position = 424;
width = 78;
},
{
position = 452;
width = 25;
}
);
vhints = (
{
position = 107;
width = 94;
}
);
};
};
vertWidth = 0;
width = 356;
}
);
unicode = 114;
}
{
glyphname = s;
layers = (
{
layerId = m01;
shapes = (
{
closed = 1;
nodes = (
(59,142,l),
(76,70,o),
(114,20,o),
(183,20,cs),
(228,20,o),
(262,47,o),
(262,90,cs),
(262,148,o),
(208,167,o),
(170,179,cs),
(99,201,o),
(42,232,o),
(42,303,cs),
(42,383,o),
(105,427,o),
(196,427,cs),
(235,427,o),
(278,418,o),
(306,398,c),
(306,298,l),
(281,298,l),
(275,350,o),
(246,397,o),
(186,397,cs),
(144,397,o),
(110,372,o),
(110,328,cs),
(110,281,o),
(166,263,o),
(201,252,cs),
(288,224,o),
(334,190,o),
(334,116,cs),
(334,43,o),
(276,-10,o),
(175,-10,cs),
(125,-10,o),
(73,3,o),
(42,31,c),
(34,142,l)
);
}
);
userData = {
com.fontlab.hintData = {
hhints = (
{
position = -12;
width = 35;
},
{
position = 467;
width = 35;
}
);
vhints = (
{
position = 47;
width = 29;
},
{
position = 56;
width = 80;
},
{
position = 315;
width = 85;
},
{
position = 338;
width = 29;
}
);
};
};
vertWidth = 0;
width = 397;
}
);
unicode = 115;
}
{
glyphname = t;
layers = (
{
layerId = m01;
shapes = (
{
closed = 1;
nodes = (
(22,417,l),
(87,417,l),
(139,524,l),
(163,524,l),
(163,417,l),
(273,417,l),
(273,383,l),
(163,383,l),
(163,119,ls),
(163,54,o),
(191,34,o),
(220,34,cs),
(241,34,o),
(260,37,o),
(280,45,c),
(287,27,l),
(262,12,o),
(221,-10,o),
(178,-10,cs),
(148,-10,o),
(84,0,o),
(84,87,cs),
(84,383,l),
(22,383,l)
);
}
);
userData = {
com.fontlab.hintData = {
hhints = (
{
position = -12;
width = 52;
},
{
position = 450;
width = 40;
}
);
vhints = (
{
position = 103;
width = 94;
}
);
};
};
vertWidth = 0;
width = 314;
}
);
unicode = 116;
}
{
glyphname = u;
layers = (
{
layerId = m01;
shapes = (
{
closed = 1;
nodes = (
(19,405,l),
(153,427,l),
(159,422,l),
(159,133,ls),
(159,66,o),
(195,36,o),
(244,36,cs),
(289,36,o),
(329,60,o),
(349,99,cs),
(353,108,o),
(356,127,o),
(356,150,cs),
(356,342,ls),
(356,372,o),
(351,377,o),
(329,380,cs),
(296,384,l),
(296,405,l),
(430,427,l),
(436,422,l),
(436,74,ls),
(436,31,o),
(441,29,o),
(499,25,c),
(499,0,l),
(363,0,l),
(355,51,l),
(330,39,o),
(272,-10,o),
(199,-10,cs),
(136,-10,o),
(79,20,o),
(79,117,cs),
(79,342,ls),
(79,372,o),
(74,377,o),
(51,380,cs),
(19,384,l)
);
}
);
userData = {
com.fontlab.hintData = {
hhints = (
{
position = -12;
width = 54;
},
{
position = 0;
width = 29;
},
{
position = 452;
width = 25;
},
{
position = 482;
width = 20;
}
);
vhints = (
{
position = 96;
width = 94;
},
{
position = 422;
width = 94;
}
);
};
};
vertWidth = 0;
width = 558;
}
);
unicode = 117;
}
{
glyphname = v;
layers = (
{
layerId = m01;
shapes = (
{
closed = 1;
nodes = (
(1,417,l),
(191,417,l),
(191,392,l),
(153,388,ls),
(137,386,o),
(133,379,o),
(139,363,cs),
(156,317,o),
(173,268,o),
(190,219,cs),
(241,77,l),
(243,77,l),
(300,234,ls),
(320,288,o),
(336,337,o),
(343,365,cs),
(346,377,o),
(343,386,o),
(330,388,cs),
(288,392,l),
(288,417,l),
(450,417,l),
(450,392,l),
(411,390,o),
(401,385,o),
(388,355,cs),
(377,328,o),
(352,272,o),
(327,206,cs),
(252,0,l),
(190,0,l),
(125,184,ls),
(104,242,o),
(84,298,o),
(61,354,cs),
(48,385,o),
(41,388,o),
(1,392,c)
);
}
);
userData = {
com.fontlab.hintData = {
hhints = (
{
position = 0;
width = 21;
},
{
position = 461;
width = 29;
}
);
};
};
vertWidth = 0;
width = 466;
}
);
unicode = 118;
}
{
glyphname = w;
layers = (
{
layerId = m01;
shapes = (
{
closed = 1;
nodes = (
(-2,417,l),
(178,417,l),
(178,392,l),
(148,389,ls),
(133,388,o),
(128,380,o),
(133,364,cs),
(160,272,o),
(186,173,o),
(217,76,c),
(218,76,l),
(317,406,l),
(382,406,l),
(417,296,o),
(451,186,o),
(488,76,c),
(490,76,l),
(516,172,o),
(555,309,o),
(566,360,cs),
(570,375,o),
(569,386,o),
(554,388,cs),
(506,392,l),
(506,417,l),
(673,417,l),
(673,392,l),
(631,389,o),
(621,386,o),
(607,343,cs),
(586,276,o),
(536,125,o),
(500,0,c),
(435,0,l),
(401,108,o),
(366,216,o),
(331,324,c),
(328,324,l),
(228,0,l),
(163,0,l),
(128,128,o),
(90,243,o),
(54,355,cs),
(44,388,o),
(33,390,o),
(-2,392,c)
);
}
);
userData = {
com.fontlab.hintData = {
hhints = (
{
position = 0;
width = 21;
},
{
position = 461;
width = 29;
}
);
};
};
vertWidth = 0;
width = 710;
}
);
unicode = 119;
}
{
glyphname = x;
layers = (
{
layerId = m01;
shapes = (
{
closed = 1;
nodes = (
(1,25,l),
(38,27,o),
(57,31,o),
(79,61,cs),
(114,107,o),
(147,156,o),
(179,201,c),
(142,256,o),
(105,311,o),
(70,360,cs),
(49,388,o),
(41,390,o),
(7,392,c),
(7,417,l),
(184,417,l),
(184,392,l),
(159,389,ls),
(146,388,o),
(145,378,o),
(151,368,cs),
(223,262,l),
(224,262,l),
(249,301,o),
(272,337,o),
(292,369,cs),
(298,378,o),
(299,387,o),
(286,388,cs),
(252,392,l),
(252,417,l),
(411,417,l),
(411,392,l),
(370,390,o),
(359,387,o),
(337,360,cs),
(303,320,o),
(270,277,o),
(242,235,c),
(280,175,o),
(320,116,o),
(359,60,cs),
(380,29,o),
(394,26,o),
(433,25,c),
(433,0,l),
(233,0,l),
(233,25,l),
(269,29,ls),
(281,31,o),
(284,38,o),
(275,53,cs),
(199,171,l),
(197,171,l),
(168,127,o),
(141,86,o),
(122,49,cs),
(117,40,o),
(116,31,o),
(128,29,cs),
(164,25,l),
(164,0,l),
(1,0,l)
);
}
);
userData = {
com.fontlab.hintData = {
hhints = (
{
position = 0;
width = 29;
},
{
position = 461;
width = 29;
}
);
};
};
vertWidth = 0;
width = 450;
}
);
unicode = 120;
}
{
glyphname = y;
layers = (
{
layerId = m01;
shapes = (
{
closed = 1;
nodes = (
(-3,417,l),
(191,417,l),
(191,392,l),
(155,388,ls),
(135,387,o),
(137,377,o),
(142,362,cs),
(174,273,o),
(208,180,o),
(247,77,c),
(248,77,l),
(286,179,o),
(330,308,o),
(343,359,cs),
(347,376,o),
(345,386,o),
(331,388,cs),
(287,392,l),
(287,417,l),
(450,417,l),
(450,392,l),
(407,389,o),
(402,383,o),
(387,349,cs),
(361,289,o),
(282,82,o),
(230,-70,cs),
(186,-195,o),
(143,-206,o),
(109,-206,cs),
(73,-206,o),
(49,-182,o),
(49,-161,cs),
(49,-137,o),
(71,-114,o),
(87,-114,cs),
(97,-114,o),
(104,-118,o),
(112,-126,cs),
(128,-141,o),
(135,-144,o),
(144,-144,cs),
(153,-144,o),
(168,-136,o),
(181,-108,cs),
(194,-81,o),
(202,-55,o),
(202,-36,cs),
(202,-21,o),
(200,-8,o),
(195,6,cs),
(174,65,o),
(104,246,o),
(61,348,cs),
(46,385,o),
(38,390,o),
(-3,392,c)
);
}
);
userData = {
com.fontlab.hintData = {
hhints = (
{
position = -242;
width = 73;
},
{
position = 461;
width = 29;
}
);
};
};
vertWidth = 0;
width = 469;
}
);
unicode = 121;
}
{
glyphname = z;
layers = (
{
layerId = m01;
shapes = (
{
closed = 1;
nodes = (
(105,138,o),
(194,262,o),
(282,387,c),
(197,387,ls),
(105,387,o),
(87,369,o),
(76,291,c),
(50,291,l),
(50,417,l),
(376,417,l),
(383,405,l),
(293,280,o),
(204,155,o),
(118,30,c),
(228,30,ls),
(322,30,o),
(351,50,o),
(364,130,c),
(391,130,l),
(382,0,l),
(21,0,l),
(14,13,l)
);
}
);
userData = {
com.fontlab.hintData = {
hhints = (
{
position = 0;
width = 35;
},
{
position = 455;
width = 35;
}
);
vhints = (
{
position = 61;
width = 31;
},
{
position = 431;
width = 31;
}
);
};
};
vertWidth = 0;
width = 442;
}
);
unicode = 122;
}
{
glyphname = braceleft;
layers = (
{
layerId = m01;
shapes = (
{
closed = 1;
nodes = (
(57,252,l),
(119,251,o),
(136,291,o),
(130,349,cs),
(122,429,ls),
(114,500,o),
(115,588,o),
(221,588,cs),
(243,588,l),
(243,565,l),
(173,562,o),
(169,515,o),
(175,458,cs),
(182,393,ls),
(189,325,o),
(205,263,o),
(105,242,c),
(105,237,l),
(205,217,o),
(189,155,o),
(182,87,cs),
(175,21,ls),
(169,-36,o),
(173,-82,o),
(243,-86,c),
(243,-109,l),
(221,-109,ls),
(115,-109,o),
(114,-20,o),
(122,50,cs),
(130,130,ls),
(137,190,o),
(125,227,o),
(57,227,c)
);
}
);
userData = {
com.fontlab.hintData = {
hhints = (
{
position = -128;
width = 27;
},
{
position = 267;
width = 12;
},
{
position = 267;
width = 30;
},
{
position = 665;
width = 27;
}
);
vhints = (
{
position = 79;
width = 56;
},
{
position = 152;
width = 66;
},
{
position = 165;
width = 67;
}
);
};
};
vertWidth = 0;
width = 300;
}
);
metricRight = "=|";
unicode = 123;
}
{
glyphname = bar;
layers = (
{
layerId = m01;
shapes = (
{
closed = 1;
nodes = (
(58,638,l),
(116,638,l),
(116,-212,l),
(58,-212,l)
);
}
);
userData = {
com.fontlab.hintData = {
hhints = (
{
position = -250;
width = 1000;
}
);
vhints = (
{
position = 80;
width = 68;
}
);
};
};
vertWidth = 0;
width = 174;
}
);
metricRight = "=|";
unicode = 124;
}
{
glyphname = braceright;
layers = (
{
layerId = m01;
shapes = (
{
closed = 1;
nodes = (
(101,-82,o),
(105,-36,o),
(99,21,cs),
(92,87,ls),
(85,155,o),
(69,217,o),
(169,237,c),
(169,242,l),
(69,263,o),
(85,325,o),
(92,393,cs),
(99,458,ls),
(105,515,o),
(101,562,o),
(31,565,c),
(31,588,l),
(53,588,ls),
(159,588,o),
(160,500,o),
(152,429,cs),
(144,349,ls),
(137,289,o),
(151,252,o),
(217,252,c),
(217,227,l),
(151,227,o),
(137,190,o),
(144,130,cs),
(152,50,ls),
(160,-20,o),
(159,-109,o),
(53,-109,cs),
(31,-109,l),
(31,-86,l)
);
}
);
userData = {
com.fontlab.hintData = {
hhints = (
{
position = -128;
width = 27;
},
{
position = 267;
width = 30;
},
{
position = 665;
width = 27;
}
);
vhints = (
{
position = 108;
width = 67;
},
{
position = 122;
width = 66;
},
{
position = 205;
width = 56;
}
);
};
};
vertWidth = 0;
width = 248;
}
);
metricRight = "=|";
unicode = 125;
}
{
glyphname = multiply;
layers = (
{
layerId = m01;
shapes = (
{
closed = 1;
nodes = (
(198,213,l),
(46,367,l),
(80,406,l),
(234,250,l),
(387,406,l),
(423,367,l),
(271,213,l),
(423,56,l),
(387,19,l),
(234,175,l),
(80,19,l),
(46,56,l)
);
}
);
userData = {
com.fontlab.hintData = {
hhints = (
{
position = 22;
width = 456;
}
);
vhints = (
{
position = 63;
width = 444;
}
);
};
};
vertWidth = 0;
width = 469;
}
);
unicode = 215;
}
{
glyphname = divide;
layers = (
{
layerId = m01;
shapes = (
{
closed = 1;
nodes = (
(184,99,o),
(206,122,o),
(235,122,cs),
(262,122,o),
(284,99,o),
(284,73,cs),
(284,44,o),
(262,22,o),
(235,22,cs),
(206,22,o),
(184,44,o),
(184,73,cs)
);
},
{
closed = 1;
nodes = (
(184,380,o),
(206,403,o),
(235,403,cs),
(262,403,o),
(284,380,o),
(284,354,cs),
(284,325,o),
(262,303,o),
(235,303,cs),
(206,303,o),
(184,325,o),
(184,354,cs)
);
},
{
pos = (33,28);
ref = minus;
scale = (0.85,0.85);
}
);
userData = {
com.fontlab.hintData = {
hhints = (
{
position = 26;
width = 118;
},
{
position = 221;
width = 58;
},
{
position = 356;
width = 118;
}
);
vhints = (
{
position = 225;
width = 117;
}
);
};
};
vertWidth = 0;
width = 459;
}
);
unicode = 247;
}
{
glyphname = dotlessi;
layers = (
{
layerId = m01;
shapes = (
{
closed = 1;
nodes = (
(23,25,l),
(84,29,o),
(87,31,o),
(87,74,cs),
(87,342,ls),
(87,372,o),
(82,377,o),
(60,380,cs),
(27,384,l),
(27,405,l),
(161,427,l),
(167,422,l),
(167,74,ls),
(167,31,o),
(170,29,o),
(231,25,c),
(231,0,l),
(23,0,l)
);
}
);
userData = {
com.fontlab.hintData = {
hhints = (
{
position = 0;
width = 29;
},
{
position = 452;
width = 25;
},
{
position = 482;
width = 20;
}
);
vhints = (
{
position = 107;
width = 94;
}
);
};
};
vertWidth = 0;
width = 265;
}
);
unicode = 305;
}
{
glyphname = uni0237;
layers = (
{
layerId = m01;
shapes = (
{
closed = 1;
nodes = (
(28,-173,o),
(57,-155,o),
(72,-125,cs),
(90,-90,o),
(94,-31,o),
(94,31,cs),
(94,342,ls),
(94,371,o),
(89,377,o),
(67,380,cs),
(35,384,l),
(35,405,l),
(168,427,l),
(174,422,l),
(174,6,ls),
(174,-100,o),
(149,-174,o),
(41,-198,cs),
(17,-203,o),
(-7,-206,o),
(-22,-206,c),
(-24,-185,l)
);
}
);
userData = {
com.fontlab.hintData = {
hhints = (
{
position = -242;
width = 24;
},
{
position = 452;
width = 25;
},
{
position = 482;
width = 20;
}
);
vhints = (
{
position = 106;
width = 94;
}
);
};
};
vertWidth = 0;
width = 263;
}
);
unicode = 567;
}
{
glyphname = "comma-ar";
layers = (
{
layerId = m01;
shapes = (
{
angle = 180;
pos = (164,88);
ref = comma;
scale = (0.85,0.85);
}
);
width = 163;
},
{
associatedMasterId = m01;
layerId = "6896EEAA-B0B7-47AB-8AB0-0FDF3A1A0B5F";
name = "9 Oct 23 at 12:30";
shapes = (
{
closed = 1;
nodes = (
(36,59,l),
(33,82,o),
(36,97,o),
(50,115,c),
(45,119,l),
(15,99,o),
(5,72,o),
(5,52,cs),
(5,34,o),
(15,21,o),
(33,21,cs),
(47,21,o),
(59,33,o),
(59,48,cs),
(59,65,o),
(47,74,o),
(25,73,c)
);
}
);
width = 64;
}
);
metricRight = "=|";
unicode = 1548;
}
{
glyphname = "hamza-ar";
layers = (
{
anchors = (
{
name = bottom;
pos = (147,-61);
},
{
name = top;
pos = (147,329);
}
);
background = {
shapes = (
{
closed = 1;
nodes = (
(121,63,qs),
(158,55,o),
(190,50,q),
(223,46,l),
(260,46,ls),
(266,46,o),
(291,40,q),
(288,31,o),
(266,27,qs),
(240,23,l),
(163,15,l),
(132,15,o),
(67,27,o),
(14,46,o),
(2,69,q),
(-4,118,l),
(5,138,o),
(20,161,o),
(72,195,o),
(106,207,q),
(40,238,o),
(66,281,q),
(89,305,l),
(134,332,l),
(209,361,o),
(284,337,q),
(279,276,l),
(232,274,ls),
(187,274,o),
(158,261,o),
(163,245,q),
(176,239,l),
(183,241,o),
(218,232,qs),
(255,221,o),
(208,172,q),
(164,151,ls),
(127,134,o),
(94,116,o),
(88,100,qs),
(78,71,o)
);
}
);
};
layerId = m01;
shapes = (
{
closed = 1;
nodes = (
(121,-26,o),
(62,6,o),
(62,40,cs),
(62,77,o),
(135,105,o),
(186,117,cs),
(204,121,o),
(213,130,o),
(213,147,cs),
(213,164,o),
(203,172,o),
(183,174,cs),
(144,177,o),
(111,182,o),
(111,200,cs),
(111,221,o),
(178,247,o),
(244,234,cs),
(263,230,o),
(275,235,o),
(281,250,cs),
(287,266,o),
(280,279,o),
(260,283,cs),
(166,304,o),
(59,268,o),
(59,200,cs),
(59,161,o),
(94,142,o),
(141,130,c),
(144,157,l),
(79,137,o),
(10,102,o),
(10,44,cs),
(10,-10,o),
(62,-35,o),
(188,-35,c),
(188,-26,l)
);
}
);
width = 293;
}
);
unicode = 1569;
}
{
glyphname = "alef-ar";
kernRight = "middle-reh";
layers = (
{
anchors = (
{
name = bottom;
pos = (100,-52);
},
{
name = top;
pos = (66,660);
}
);
background = {
shapes = (
{
closed = 1;
nodes = (
(123,197,o),
(123,218,qs),
(123,306,l),
(123,408,ls),
(123,428,o),
(123,501,o),
(123,536,qs),
(123,567,o),
(114,620,o),
(111,629,q),
(94,623,o),
(79,614,o),
(69,602,o),
(68,580,o),
(68,569,q),
(64,522,ls),
(62,506,o),
(56,486,o),
(39,454,o),
(20,422,o),
(21,419,q),
(21,407,o),
(21,395,qs),
(21,389,o),
(25,379,o),
(32,379,qs),
(34,379,o),
(78,387,o),
(72,381,q),
(72,356,o),
(72,323,o),
(72,288,o),
(72,257,o),
(72,223,qs),
(72,201,l),
(72,183,l),
(74,49,l),
(89,14,l),
(104,2,o),
(118,-7,q),
(120,-7,o),
(137,-5,q),
(122,-5,o),
(123,40,o),
(123,68,qs),
(123,135,ls),
(123,155,o)
);
}
);
};
layerId = m01;
shapes = (
{
closed = 1;
nodes = (
(189,0,l),
(186,9,l),
(146,19,o),
(127,51,o),
(127,107,cs),
(127,431,ls),
(127,509,o),
(107,593,o),
(71,645,c),
(27,609,l),
(59,563,o),
(76,494,o),
(76,427,cs),
(76,104,ls),
(76,26,o),
(100,-31,o),
(163,-46,c)
);
},
{
closed = 1;
nodes = (
(96,535,l),
(71,645,l),
(61,645,l),
(25,619,o),
(10,592,o),
(10,564,cs),
(10,528,o),
(38,488,o),
(78,451,c)
);
}
);
width = 199;
},
{
associatedMasterId = m01;
background = {
shapes = (
{
closed = 1;
nodes = (
(112,197,o),
(112,218,qs),
(112,306,l),
(112,408,ls),
(112,428,o),
(112,501,o),
(112,536,qs),
(112,567,o),
(103,620,o),
(100,629,q),
(83,623,o),
(68,614,o),
(58,602,o),
(57,580,o),
(57,569,q),
(53,522,ls),
(51,506,o),
(45,486,o),
(28,454,o),
(9,422,o),
(10,419,q),
(10,407,o),
(10,395,qs),
(10,389,o),
(14,379,o),
(21,379,qs),
(23,379,o),
(67,387,o),
(61,381,q),
(61,356,o),
(61,323,o),
(61,288,o),
(61,257,o),
(61,223,qs),
(61,201,l),
(61,183,l),
(63,49,l),
(78,14,l),
(93,2,o),
(107,-7,q),
(109,-7,o),
(126,-5,q),
(111,-5,o),
(112,40,o),
(112,68,qs),
(112,135,ls),
(112,155,o)
);
}
);
};
layerId = "D43771B7-0651-43A5-AFDB-72BA5C26BA04";
name = "5 Oct 23 at 18:51";
shapes = (
{
closed = 1;
nodes = (
(54,80,l),
(106,80,l),
(106,630,l),
(54,561,l)
);
},
{
closed = 1;
nodes = (
(41,614,o),
(20,584,o),
(20,546,cs),
(20,516,o),
(33,480,o),
(54,443,c),
(97,518,l),
(106,630,l),
(96,630,l)
);
},
{
closed = 1;
nodes = (
(54,80,l),
(54,1,o),
(81,-15,o),
(147,-41,c),
(151,-35,l),
(107,0,o),
(106,19,o),
(106,80,c)
);
}
);
width = 171;
},
{
associatedMasterId = m01;
background = {
shapes = (
{
closed = 1;
nodes = (
(112,197,o),
(112,218,qs),
(112,306,l),
(112,408,ls),
(112,428,o),
(112,501,o),
(112,536,qs),
(112,567,o),
(103,620,o),
(100,629,q),
(83,623,o),
(68,614,o),
(58,602,o),
(57,580,o),
(57,569,q),
(53,522,ls),
(51,506,o),
(45,486,o),
(28,454,o),
(9,422,o),
(10,419,q),
(10,407,o),
(10,395,qs),
(10,389,o),
(14,379,o),
(21,379,qs),
(23,379,o),
(67,387,o),
(61,381,q),
(61,356,o),
(61,323,o),
(61,288,o),
(61,257,o),
(61,223,qs),
(61,201,l),
(61,183,l),
(63,49,l),
(78,14,l),
(93,2,o),
(107,-7,q),
(109,-7,o),
(126,-5,q),
(111,-5,o),
(112,40,o),
(112,68,qs),
(112,135,ls),
(112,155,o)
);
}
);
};
layerId = "1ADC714F-FA99-4FC5-8CDD-8C69A99EB807";
name = "5 Oct 23 at 19:00";
shapes = (
{
closed = 0;
nodes = (
(38,627,l),
(72,578,o),
(90,501,o),
(90,429,cs),
(90,81,ls),
(90,24,o),
(107,-15,o),
(149,-24,c)
);
}
);
width = 171;
}
);
unicode = 1575;
}
{
glyphname = "hah-ar";
kernRight = "middle-reh";
layers = (
{
anchors = (
{
name = bottom;
pos = (253,-452);
},
{
name = center;
pos = (253,-113);
},
{
name = top;
pos = (314,368);
}
);
background = {
shapes = (
{
closed = 1;
nodes = (
(462,146,q),
(513,172,l),
(519,177,o),
(529,182,o),
(529,188,qs),
(529,192,o),
(513,225,o),
(503,232,o),
(483,234,o),
(446,237,o),
(416,241,o),
(375,252,o),
(365,255,qs),
(349,261,o),
(332,267,qs),
(327,269,o),
(271,282,o),
(250,290,o),
(239,300,qs),
(225,311,o),
(209,321,o),
(184,349,o),
(178,361,qs),
(177,363,o),
(160,404,o),
(152,415,q),
(151,414,o),
(142,408,q),
(134,400,o),
(126,380,o),
(122,356,o),
(117,338,o),
(117,316,qs),
(117,309,o),
(118,292,o),
(119,282,q),
(133,238,ls),
(134,234,o),
(152,230,qs),
(161,228,o),
(162,230,q),
(172,243,o),
(178,273,o),
(182,280,q),
(233,245,ls),
(258,227,o),
(270,220,o),
(313,208,o),
(325,205,qs),
(381,192,o),
(384,191,q),
(374,183,o),
(323,173,qs),
(297,168,o),
(257,161,qs),
(226,154,o),
(175,129,qs),
(116,100,o),
(94,76,qs),
(64,43,o),
(53,20,qs),
(47,7,o),
(25,-74,o),
(25,-119,qs),
(25,-140,o),
(29,-179,o),
(38,-224,o),
(59,-255,qs),
(73,-277,o),
(106,-313,qs),
(123,-331,o),
(150,-350,qs),
(165,-360,o),
(220,-391,qs),
(248,-406,o),
(304,-418,o),
(337,-425,qs),
(345,-427,o),
(413,-440,o),
(444,-440,qs),
(573,-435,ls),
(593,-435,o),
(603,-432,o),
(619,-428,qs),
(653,-418,ls),
(666,-414,o),
(680,-406,q),
(683,-403,o),
(687,-401,q),
(669,-402,o),
(606,-410,o),
(585,-410,qs),
(543,-410,ls),
(529,-410,o),
(496,-409,o),
(487,-408,qs),
(443,-403,o),
(409,-398,qs),
(350,-390,o),
(330,-383,qs),
(286,-370,o),
(216,-333,o),
(156,-283,o),
(116,-228,o),
(96,-165,o),
(91,-137,o),
(91,-95,qs),
(91,-66,o),
(99,-45,qs),
(103,-33,o),
(115,-5,q),
(125,4,o),
(140,25,qs),
(160,53,o),
(186,66,qs),
(228,88,o),
(257,100,o),
(318,118,o),
(367,125,o),
(395,129,q),
(432,137,ls),
(437,138,o)
);
}
);
};
layerId = m01;
shapes = (
{
closed = 1;
nodes = (
(465,-435,l),
(159,-390,o),
(61,-288,o),
(61,-130,cs),
(60,18,o),
(198,142,o),
(467,158,cs),
(483,159,o),
(495,170,o),
(496,185,cs),
(497,207,o),
(484,219,o),
(466,220,cs),
(349,228,o),
(242,279,o),
(196,368,cs),
(188,382,o),
(174,389,o),
(160,384,cs),
(146,379,o),
(138,364,o),
(143,348,cs),
(161,281,o),
(177,200,o),
(179,127,c),
(183,138,l),
(67,74,o),
(9,-32,o),
(10,-133,cs),
(10,-306,o),
(125,-411,o),
(463,-446,c)
);
},
{
closed = 1;
nodes = (
(198,204,o),
(197,250,o),
(190,312,c),
(175,304,l),
(222,240,o),
(294,197,o),
(392,187,c),
(392,195,l),
(310,190,o),
(242,170,o),
(187,140,c),
(192,135,l)
);
}
);
width = 506;
},
{
associatedMasterId = m01;
background = {
shapes = (
{
closed = 1;
nodes = (
(470,146,q),
(521,172,l),
(527,177,o),
(537,182,o),
(537,188,qs),
(537,192,o),
(521,225,o),
(511,232,o),
(491,234,o),
(454,237,o),
(424,241,o),
(383,252,o),
(373,255,qs),
(357,261,o),
(340,267,qs),
(335,269,o),
(279,282,o),
(258,290,o),
(247,300,qs),
(233,311,o),
(217,321,o),
(192,349,o),
(186,361,qs),
(185,363,o),
(168,404,o),
(160,415,q),
(159,414,o),
(150,408,q),
(142,400,o),
(134,380,o),
(130,356,o),
(125,338,o),
(125,316,qs),
(125,309,o),
(126,292,o),
(127,282,q),
(141,238,ls),
(142,234,o),
(160,230,qs),
(169,228,o),
(170,230,q),
(180,243,o),
(186,273,o),
(190,280,q),
(241,245,ls),
(266,227,o),
(278,220,o),
(321,208,o),
(333,205,qs),
(389,192,o),
(392,191,q),
(382,183,o),
(331,173,qs),
(305,168,o),
(265,161,qs),
(234,154,o),
(183,129,qs),
(124,100,o),
(102,76,qs),
(72,43,o),
(61,20,qs),
(55,7,o),
(33,-74,o),
(33,-119,qs),
(33,-140,o),
(37,-179,o),
(46,-224,o),
(67,-255,qs),
(81,-277,o),
(114,-313,qs),
(131,-331,o),
(158,-350,qs),
(173,-360,o),
(228,-391,qs),
(256,-406,o),
(312,-418,o),
(345,-425,qs),
(353,-427,o),
(421,-440,o),
(452,-440,qs),
(581,-435,ls),
(601,-435,o),
(611,-432,o),
(627,-428,qs),
(661,-418,ls),
(674,-414,o),
(688,-406,q),
(691,-403,o),
(695,-401,q),
(677,-402,o),
(614,-410,o),
(593,-410,qs),
(551,-410,ls),
(537,-410,o),
(504,-409,o),
(495,-408,qs),
(451,-403,o),
(417,-398,qs),
(358,-390,o),
(338,-383,qs),
(294,-370,o),
(224,-333,o),
(164,-283,o),
(124,-228,o),
(104,-165,o),
(99,-137,o),
(99,-95,qs),
(99,-66,o),
(107,-45,qs),
(111,-33,o),
(123,-5,q),
(133,4,o),
(148,25,qs),
(168,53,o),
(194,66,qs),
(236,88,o),
(265,100,o),
(326,118,o),
(375,125,o),
(403,129,q),
(440,137,ls),
(445,138,o)
);
}
);
};
layerId = "AFC12DF5-6178-4563-9AC1-97996D1389EA";
name = "18 Dec 21 at 15:16";
shapes = (
{
closed = 1;
nodes = (
(604,-396,o),
(552,-399,o),
(503,-399,cs),
(245,-399,o),
(83,-308,o),
(82,-137,cs),
(83,31,o),
(251,150,o),
(523,149,c),
(513,179,l),
(492,181,o),
(472,181,o),
(453,181,cs),
(200,181,o),
(31,47,o),
(31,-137,cs),
(30,-342,o),
(225,-450,o),
(509,-450,cs),
(559,-450,o),
(611,-447,o),
(666,-440,c),
(660,-389,l)
);
},
{
closed = 1;
nodes = (
(342,201,o),
(212,283,o),
(180,425,c),
(168,419,l),
(200,252,o),
(347,149,o),
(523,149,c),
(513,201,l)
);
}
);
width = 600;
},
{
associatedMasterId = m01;
background = {
shapes = (
{
closed = 1;
nodes = (
(470,146,q),
(521,172,l),
(527,177,o),
(537,182,o),
(537,188,qs),
(537,192,o),
(521,225,o),
(511,232,o),
(491,234,o),
(454,237,o),
(424,241,o),
(383,252,o),
(373,255,qs),
(357,261,o),
(340,267,qs),
(335,269,o),
(279,282,o),
(258,290,o),
(247,300,qs),
(233,311,o),
(217,321,o),
(192,349,o),
(186,361,qs),
(185,363,o),
(168,404,o),
(160,415,q),
(159,414,o),
(150,408,q),
(142,400,o),
(134,380,o),
(130,356,o),
(125,338,o),
(125,316,qs),
(125,309,o),
(126,292,o),
(127,282,q),
(141,238,ls),
(142,234,o),
(160,230,qs),
(169,228,o),
(170,230,q),
(180,243,o),
(186,273,o),
(190,280,q),
(241,245,ls),
(266,227,o),
(278,220,o),
(321,208,o),
(333,205,qs),
(389,192,o),
(392,191,q),
(382,183,o),
(331,173,qs),
(305,168,o),
(265,161,qs),
(234,154,o),
(183,129,qs),
(124,100,o),
(102,76,qs),
(72,43,o),
(61,20,qs),
(55,7,o),
(33,-74,o),
(33,-119,qs),
(33,-140,o),
(37,-179,o),
(46,-224,o),
(67,-255,qs),
(81,-277,o),
(114,-313,qs),
(131,-331,o),
(158,-350,qs),
(173,-360,o),
(228,-391,qs),
(256,-406,o),
(312,-418,o),
(345,-425,qs),
(353,-427,o),
(421,-440,o),
(452,-440,qs),
(581,-435,ls),
(601,-435,o),
(611,-432,o),
(627,-428,qs),
(661,-418,ls),
(674,-414,o),
(688,-406,q),
(691,-403,o),
(695,-401,q),
(677,-402,o),
(614,-410,o),
(593,-410,qs),
(551,-410,ls),
(537,-410,o),
(504,-409,o),
(495,-408,qs),
(451,-403,o),
(417,-398,qs),
(358,-390,o),
(338,-383,qs),
(294,-370,o),
(224,-333,o),
(164,-283,o),
(124,-228,o),
(104,-165,o),
(99,-137,o),
(99,-95,qs),
(99,-66,o),
(107,-45,qs),
(111,-33,o),
(123,-5,q),
(133,4,o),
(148,25,qs),
(168,53,o),
(194,66,qs),
(236,88,o),
(265,100,o),
(326,118,o),
(375,125,o),
(403,129,q),
(440,137,ls),
(445,138,o)
);
}
);
};
layerId = "01B44BFD-457A-4A7C-9435-0B3A49657583";
name = "2 Apr 22 at 15:38";
shapes = (
{
closed = 1;
nodes = (
(604,-396,o),
(552,-399,o),
(503,-399,cs),
(245,-399,o),
(83,-308,o),
(82,-137,cs),
(83,31,o),
(251,150,o),
(523,149,c),
(463,191,l),
(204,191,o),
(31,53,o),
(31,-137,cs),
(30,-422,o),
(384,-457,o),
(660,-399,c),
(660,-389,l)
);
},
{
closed = 1;
nodes = (
(166,283,c),
(174,283,l),
(174,337,o),
(208,349,o),
(232,349,cs),
(311,349,o),
(371,149,o),
(523,149,c),
(528,160,l),
(518,201,l),
(382,201,o),
(360,401,o),
(252,401,cs),
(179,401,o),
(147,340,o)
);
}
);
width = 600;
},
{
associatedMasterId = m01;
background = {
shapes = (
{
closed = 1;
nodes = (
(470,146,q),
(521,172,l),
(527,177,o),
(537,182,o),
(537,188,qs),
(537,192,o),
(521,225,o),
(511,232,o),
(491,234,o),
(454,237,o),
(424,241,o),
(383,252,o),
(373,255,qs),
(357,261,o),
(340,267,qs),
(335,269,o),
(279,282,o),
(258,290,o),
(247,300,qs),
(233,311,o),
(217,321,o),
(192,349,o),
(186,361,qs),
(185,363,o),
(168,404,o),
(160,415,q),
(159,414,o),
(150,408,q),
(142,400,o),
(134,380,o),
(130,356,o),
(125,338,o),
(125,316,qs),
(125,309,o),
(126,292,o),
(127,282,q),
(141,238,ls),
(142,234,o),
(160,230,qs),
(169,228,o),
(170,230,q),
(180,243,o),
(186,273,o),
(190,280,q),
(241,245,ls),
(266,227,o),
(278,220,o),
(321,208,o),
(333,205,qs),
(389,192,o),
(392,191,q),
(382,183,o),
(331,173,qs),
(305,168,o),
(265,161,qs),
(234,154,o),
(183,129,qs),
(124,100,o),
(102,76,qs),
(72,43,o),
(61,20,qs),
(55,7,o),
(33,-74,o),
(33,-119,qs),
(33,-140,o),
(37,-179,o),
(46,-224,o),
(67,-255,qs),
(81,-277,o),
(114,-313,qs),
(131,-331,o),
(158,-350,qs),
(173,-360,o),
(228,-391,qs),
(256,-406,o),
(312,-418,o),
(345,-425,qs),
(353,-427,o),
(421,-440,o),
(452,-440,qs),
(581,-435,ls),
(601,-435,o),
(611,-432,o),
(627,-428,qs),
(661,-418,ls),
(674,-414,o),
(688,-406,q),
(691,-403,o),
(695,-401,q),
(677,-402,o),
(614,-410,o),
(593,-410,qs),
(551,-410,ls),
(537,-410,o),
(504,-409,o),
(495,-408,qs),
(451,-403,o),
(417,-398,qs),
(358,-390,o),
(338,-383,qs),
(294,-370,o),
(224,-333,o),
(164,-283,o),
(124,-228,o),
(104,-165,o),
(99,-137,o),
(99,-95,qs),
(99,-66,o),
(107,-45,qs),
(111,-33,o),
(123,-5,q),
(133,4,o),
(148,25,qs),
(168,53,o),
(194,66,qs),
(236,88,o),
(265,100,o),
(326,118,o),
(375,125,o),
(403,129,q),
(440,137,ls),
(445,138,o)
);
}
);
};
layerId = "19D4E056-2DCE-4C1B-8C9D-0598BA19A6F1";
name = "5 Oct 23 at 19:07";
shapes = (
{
closed = 1;
nodes = (
(604,-396,o),
(552,-399,o),
(503,-399,cs),
(245,-399,o),
(83,-308,o),
(82,-137,cs),
(83,31,o),
(251,150,o),
(523,149,c),
(463,191,l),
(204,191,o),
(31,53,o),
(31,-137,cs),
(30,-422,o),
(384,-457,o),
(660,-399,c),
(660,-389,l)
);
},
{
closed = 1;
nodes = (
(322,207,o),
(149,288,o),
(149,420,cs),
(149,432,o),
(150,446,o),
(153,460,c),
(141,462,l),
(135,439,o),
(132,418,o),
(132,398,cs),
(132,235,o),
(321,149,o),
(523,149,c),
(528,160,l),
(518,201,l)
);
}
);
width = 600;
},
{
associatedMasterId = m01;
background = {
shapes = (
{
closed = 1;
nodes = (
(470,146,q),
(521,172,l),
(527,177,o),
(537,182,o),
(537,188,qs),
(537,192,o),
(521,225,o),
(511,232,o),
(491,234,o),
(454,237,o),
(424,241,o),
(383,252,o),
(373,255,qs),
(357,261,o),
(340,267,qs),
(335,269,o),
(279,282,o),
(258,290,o),
(247,300,qs),
(233,311,o),
(217,321,o),
(192,349,o),
(186,361,qs),
(185,363,o),
(168,404,o),
(160,415,q),
(159,414,o),
(150,408,q),
(142,400,o),
(134,380,o),
(130,356,o),
(125,338,o),
(125,316,qs),
(125,309,o),
(126,292,o),
(127,282,q),
(141,238,ls),
(142,234,o),
(160,230,qs),
(169,228,o),
(170,230,q),
(180,243,o),
(186,273,o),
(190,280,q),
(241,245,ls),
(266,227,o),
(278,220,o),
(321,208,o),
(333,205,qs),
(389,192,o),
(392,191,q),
(382,183,o),
(331,173,qs),
(305,168,o),
(265,161,qs),
(234,154,o),
(183,129,qs),
(124,100,o),
(102,76,qs),
(72,43,o),
(61,20,qs),
(55,7,o),
(33,-74,o),
(33,-119,qs),
(33,-140,o),
(37,-179,o),
(46,-224,o),
(67,-255,qs),
(81,-277,o),
(114,-313,qs),
(131,-331,o),
(158,-350,qs),
(173,-360,o),
(228,-391,qs),
(256,-406,o),
(312,-418,o),
(345,-425,qs),
(353,-427,o),
(421,-440,o),
(452,-440,qs),
(581,-435,ls),
(601,-435,o),
(611,-432,o),
(627,-428,qs),
(661,-418,ls),
(674,-414,o),
(688,-406,q),
(691,-403,o),
(695,-401,q),
(677,-402,o),
(614,-410,o),
(593,-410,qs),
(551,-410,ls),
(537,-410,o),
(504,-409,o),
(495,-408,qs),
(451,-403,o),
(417,-398,qs),
(358,-390,o),
(338,-383,qs),
(294,-370,o),
(224,-333,o),
(164,-283,o),
(124,-228,o),
(104,-165,o),
(99,-137,o),
(99,-95,qs),
(99,-66,o),
(107,-45,qs),
(111,-33,o),
(123,-5,q),
(133,4,o),
(148,25,qs),
(168,53,o),
(194,66,qs),
(236,88,o),
(265,100,o),
(326,118,o),
(375,125,o),
(403,129,q),
(440,137,ls),
(445,138,o)
);
}
);
};
layerId = "D3AE7003-7C2C-4754-A610-722B1C80A67E";
name = "5 Oct 23 at 19:09";
shapes = (
{
closed = 0;
nodes = (
(157,417,l),
(191,259,o),
(319,188,o),
(535,188,c)
);
},
{
closed = 0;
nodes = (
(535,219,l),
(217,219,o),
(44,76,o),
(44,-101,cs),
(44,-276,o),
(178,-389,o),
(585,-428,cs)
);
}
);
width = 600;
},
{
associatedMasterId = m01;
background = {
shapes = (
{
closed = 1;
nodes = (
(470,146,q),
(521,172,l),
(527,177,o),
(537,182,o),
(537,188,qs),
(537,192,o),
(521,225,o),
(511,232,o),
(491,234,o),
(454,237,o),
(424,241,o),
(383,252,o),
(373,255,qs),
(357,261,o),
(340,267,qs),
(335,269,o),
(279,282,o),
(258,290,o),
(247,300,qs),
(233,311,o),
(217,321,o),
(192,349,o),
(186,361,qs),
(185,363,o),
(168,404,o),
(160,415,q),
(159,414,o),
(150,408,q),
(142,400,o),
(134,380,o),
(130,356,o),
(125,338,o),
(125,316,qs),
(125,309,o),
(126,292,o),
(127,282,q),
(141,238,ls),
(142,234,o),
(160,230,qs),
(169,228,o),
(170,230,q),
(180,243,o),
(186,273,o),
(190,280,q),
(241,245,ls),
(266,227,o),
(278,220,o),
(321,208,o),
(333,205,qs),
(389,192,o),
(392,191,q),
(382,183,o),
(331,173,qs),
(305,168,o),
(265,161,qs),
(234,154,o),
(183,129,qs),
(124,100,o),
(102,76,qs),
(72,43,o),
(61,20,qs),
(55,7,o),
(33,-74,o),
(33,-119,qs),
(33,-140,o),
(37,-179,o),
(46,-224,o),
(67,-255,qs),
(81,-277,o),
(114,-313,qs),
(131,-331,o),
(158,-350,qs),
(173,-360,o),
(228,-391,qs),
(256,-406,o),
(312,-418,o),
(345,-425,qs),
(353,-427,o),
(421,-440,o),
(452,-440,qs),
(581,-435,ls),
(601,-435,o),
(611,-432,o),
(627,-428,qs),
(661,-418,ls),
(674,-414,o),
(688,-406,q),
(691,-403,o),
(695,-401,q),
(677,-402,o),
(614,-410,o),
(593,-410,qs),
(551,-410,ls),
(537,-410,o),
(504,-409,o),
(495,-408,qs),
(451,-403,o),
(417,-398,qs),
(358,-390,o),
(338,-383,qs),
(294,-370,o),
(224,-333,o),
(164,-283,o),
(124,-228,o),
(104,-165,o),
(99,-137,o),
(99,-95,qs),
(99,-66,o),
(107,-45,qs),
(111,-33,o),
(123,-5,q),
(133,4,o),
(148,25,qs),
(168,53,o),
(194,66,qs),
(236,88,o),
(265,100,o),
(326,118,o),
(375,125,o),
(403,129,q),
(440,137,ls),
(445,138,o)
);
}
);
};
layerId = "9BC53E45-722A-4FE9-9467-B24662A970E3";
name = "5 Oct 23 at 19:10";
shapes = (
{
closed = 1;
nodes = (
(331,218,o),
(213,285,o),
(183,425,c),
(132,410,l),
(170,241,o),
(307,170,o),
(534,170,c),
(536,218,l)
);
},
{
closed = 1;
nodes = (
(167,-390,o),
(69,-288,o),
(69,-130,cs),
(68,29,o),
(226,159,o),
(533,159,c),
(535,207,l),
(206,206,o),
(17,56,o),
(18,-133,cs),
(18,-306,o),
(133,-411,o),
(471,-446,c),
(473,-435,l)
);
}
);
width = 600;
},
{
associatedMasterId = m01;
background = {
shapes = (
{
closed = 1;
nodes = (
(470,146,q),
(521,172,l),
(527,177,o),
(537,182,o),
(537,188,qs),
(537,192,o),
(521,225,o),
(511,232,o),
(491,234,o),
(454,237,o),
(424,241,o),
(383,252,o),
(373,255,qs),
(357,261,o),
(340,267,qs),
(335,269,o),
(279,282,o),
(258,290,o),
(247,300,qs),
(233,311,o),
(217,321,o),
(192,349,o),
(186,361,qs),
(185,363,o),
(168,404,o),
(160,415,q),
(159,414,o),
(150,408,q),
(142,400,o),
(134,380,o),
(130,356,o),
(125,338,o),
(125,316,qs),
(125,309,o),
(126,292,o),
(127,282,q),
(141,238,ls),
(142,234,o),
(160,230,qs),
(169,228,o),
(170,230,q),
(180,243,o),
(186,273,o),
(190,280,q),
(241,245,ls),
(266,227,o),
(278,220,o),
(321,208,o),
(333,205,qs),
(389,192,o),
(392,191,q),
(382,183,o),
(331,173,qs),
(305,168,o),
(265,161,qs),
(234,154,o),
(183,129,qs),
(124,100,o),
(102,76,qs),
(72,43,o),
(61,20,qs),
(55,7,o),
(33,-74,o),
(33,-119,qs),
(33,-140,o),
(37,-179,o),
(46,-224,o),
(67,-255,qs),
(81,-277,o),
(114,-313,qs),
(131,-331,o),
(158,-350,qs),
(173,-360,o),
(228,-391,qs),
(256,-406,o),
(312,-418,o),
(345,-425,qs),
(353,-427,o),
(421,-440,o),
(452,-440,qs),
(581,-435,ls),
(601,-435,o),
(611,-432,o),
(627,-428,qs),
(661,-418,ls),
(674,-414,o),
(688,-406,q),
(691,-403,o),
(695,-401,q),
(677,-402,o),
(614,-410,o),
(593,-410,qs),
(551,-410,ls),
(537,-410,o),
(504,-409,o),
(495,-408,qs),
(451,-403,o),
(417,-398,qs),
(358,-390,o),
(338,-383,qs),
(294,-370,o),
(224,-333,o),
(164,-283,o),
(124,-228,o),
(104,-165,o),
(99,-137,o),
(99,-95,qs),
(99,-66,o),
(107,-45,qs),
(111,-33,o),
(123,-5,q),
(133,4,o),
(148,25,qs),
(168,53,o),
(194,66,qs),
(236,88,o),
(265,100,o),
(326,118,o),
(375,125,o),
(403,129,q),
(440,137,ls),
(445,138,o)
);
}
);
};
layerId = "5B162DC6-CF4E-4C88-92C4-8A62D670FD4F";
name = "5 Oct 23 at 19:13";
shapes = (
{
closed = 1;
nodes = (
(505,219,l),
(353,219,o),
(211,292,o),
(183,425,c),
(132,410,l),
(168,280,o),
(273,183,o),
(454,183,c),
(453,197,l),
(158,197,o),
(17,27,o),
(18,-133,cs),
(18,-306,o),
(133,-411,o),
(471,-446,c),
(473,-435,l),
(167,-390,o),
(69,-288,o),
(69,-130,cs),
(68,23,o),
(215,150,o),
(502,159,c)
);
},
{
closed = 1;
nodes = (
(175,295,o),
(187,227,o),
(187,111,c),
(199,111,l),
(209,229,o),
(205,287,o),
(182,411,c),
(135,398,l)
);
}
);
width = 600;
},
{
associatedMasterId = m01;
background = {
shapes = (
{
closed = 1;
nodes = (
(470,146,q),
(521,172,l),
(527,177,o),
(537,182,o),
(537,188,qs),
(537,192,o),
(521,225,o),
(511,232,o),
(491,234,o),
(454,237,o),
(424,241,o),
(383,252,o),
(373,255,qs),
(357,261,o),
(340,267,qs),
(335,269,o),
(279,282,o),
(258,290,o),
(247,300,qs),
(233,311,o),
(217,321,o),
(192,349,o),
(186,361,qs),
(185,363,o),
(168,404,o),
(160,415,q),
(159,414,o),
(150,408,q),
(142,400,o),
(134,380,o),
(130,356,o),
(125,338,o),
(125,316,qs),
(125,309,o),
(126,292,o),
(127,282,q),
(141,238,ls),
(142,234,o),
(160,230,qs),
(169,228,o),
(170,230,q),
(180,243,o),
(186,273,o),
(190,280,q),
(241,245,ls),
(266,227,o),
(278,220,o),
(321,208,o),
(333,205,qs),
(389,192,o),
(392,191,q),
(382,183,o),
(331,173,qs),
(305,168,o),
(265,161,qs),
(234,154,o),
(183,129,qs),
(124,100,o),
(102,76,qs),
(72,43,o),
(61,20,qs),
(55,7,o),
(33,-74,o),
(33,-119,qs),
(33,-140,o),
(37,-179,o),
(46,-224,o),
(67,-255,qs),
(81,-277,o),
(114,-313,qs),
(131,-331,o),
(158,-350,qs),
(173,-360,o),
(228,-391,qs),
(256,-406,o),
(312,-418,o),
(345,-425,qs),
(353,-427,o),
(421,-440,o),
(452,-440,qs),
(581,-435,ls),
(601,-435,o),
(611,-432,o),
(627,-428,qs),
(661,-418,ls),
(674,-414,o),
(688,-406,q),
(691,-403,o),
(695,-401,q),
(677,-402,o),
(614,-410,o),
(593,-410,qs),
(551,-410,ls),
(537,-410,o),
(504,-409,o),
(495,-408,qs),
(451,-403,o),
(417,-398,qs),
(358,-390,o),
(338,-383,qs),
(294,-370,o),
(224,-333,o),
(164,-283,o),
(124,-228,o),
(104,-165,o),
(99,-137,o),
(99,-95,qs),
(99,-66,o),
(107,-45,qs),
(111,-33,o),
(123,-5,q),
(133,4,o),
(148,25,qs),
(168,53,o),
(194,66,qs),
(236,88,o),
(265,100,o),
(326,118,o),
(375,125,o),
(403,129,q),
(440,137,ls),
(445,138,o)
);
}
);
};
layerId = "927D4934-FB4F-423D-9DE0-166D982F0422";
name = "5 Oct 23 at 19:14";
shapes = (
{
closed = 1;
nodes = (
(191,138,l),
(75,74,o),
(17,-32,o),
(18,-133,cs),
(18,-306,o),
(133,-411,o),
(471,-446,c),
(473,-435,l),
(167,-390,o),
(69,-288,o),
(69,-130,cs),
(68,23,o),
(215,150,o),
(502,159,c),
(505,219,l),
(353,219,o),
(211,292,o),
(183,425,c),
(132,410,l),
(156,336,o),
(185,225,o),
(187,127,c)
);
},
{
closed = 1;
nodes = (
(200,135,l),
(206,204,o),
(205,250,o),
(198,312,c),
(183,304,l),
(230,240,o),
(302,197,o),
(400,187,c),
(400,195,l),
(318,190,o),
(250,170,o),
(195,140,c)
);
}
);
width = 600;
}
);
unicode = 1581;
}
{
glyphname = "dal-ar";
kernRight = "teh-reh";
layers = (
{
anchors = (
{
name = bottom;
pos = (140,-80);
},
{
name = top;
pos = (255,363);
}
);
background = {
shapes = (
{
closed = 1;
nodes = (
(123,-33,qs),
(108,-33,o),
(79,-26,o),
(48,-8,o),
(37,6,o),
(28,14,q),
(24,20,o),
(24,36,qs),
(24,47,o),
(38,61,qs),
(48,70,o),
(62,77,qs),
(85,88,o),
(120,96,qs),
(139,100,o),
(165,105,qs),
(198,114,o),
(211,120,q),
(193,130,o),
(158,148,o),
(141,162,o),
(131,173,q),
(119,181,o),
(111,203,q),
(101,220,o),
(98,243,o),
(98,251,q),
(92,268,o),
(86,300,o),
(86,310,q),
(83,310,o),
(77,310,o),
(68,310,q),
(64,309,o),
(56,317,q),
(54,319,o),
(50,324,q),
(51,357,o),
(54,447,o),
(64,457,o),
(98,475,o),
(105,475,qs),
(108,475,o),
(117,435,qs),
(122,409,o),
(132,360,q),
(132,359,o),
(137,322,qs),
(139,305,o),
(143,259,o),
(154,223,o),
(187,191,o),
(210,179,q),
(227,168,o),
(247,159,q),
(262,150,o),
(274,145,q),
(292,142,l),
(304,142,o),
(310,141,o),
(322,142,qs),
(330,142,o),
(338,140,qs),
(351,138,o),
(364,124,o),
(363,112,qs),
(362,106,o),
(360,101,qs),
(357,92,o),
(354,85,o),
(347,78,o),
(312,70,o),
(292,82,o),
(284,85,q),
(278,88,l),
(271,84,o),
(261,82,q),
(236,72,o),
(216,65,o),
(189,57,o),
(156,47,o),
(126,37,o),
(119,35,qs),
(99,27,o),
(99,21,q),
(114,7,o),
(144,-20,o),
(141,-26,q),
(139,-33,o)
);
}
);
};
layerId = m01;
shapes = (
{
closed = 1;
nodes = (
(78,-37,l),
(119,29,l),
(162,57,o),
(217,73,o),
(279,72,cs),
(296,73,o),
(313,72,o),
(331,69,cs),
(350,66,o),
(362,73,o),
(367,91,cs),
(373,113,o),
(367,125,o),
(347,131,cs),
(187,183,o),
(121,274,o),
(121,409,c),
(66,409,l),
(50,284,l),
(65,282,l),
(93,363,l),
(73,351,l),
(86,243,o),
(140,163,o),
(243,109,c),
(244,130,l),
(158,122,o),
(77,85,o),
(20,18,c),
(20,9,l),
(70,-37,l)
);
}
);
width = 379;
},
{
associatedMasterId = m01;
background = {
shapes = (
{
closed = 1;
nodes = (
(292,-33,qs),
(277,-33,o),
(248,-26,o),
(217,-8,o),
(206,6,o),
(197,14,q),
(193,20,o),
(193,36,qs),
(193,47,o),
(207,61,qs),
(217,70,o),
(231,77,qs),
(254,88,o),
(289,96,qs),
(308,100,o),
(334,105,qs),
(367,114,o),
(380,120,q),
(362,130,o),
(327,148,o),
(310,162,o),
(300,173,q),
(288,181,o),
(280,203,q),
(270,220,o),
(267,243,o),
(267,251,q),
(261,268,o),
(255,300,o),
(255,310,q),
(252,310,o),
(246,310,o),
(237,310,q),
(233,309,o),
(225,317,q),
(223,319,o),
(219,324,q),
(220,357,o),
(223,447,o),
(233,457,o),
(267,475,o),
(274,475,qs),
(277,475,o),
(286,435,qs),
(291,409,o),
(301,360,q),
(301,359,o),
(306,322,qs),
(308,305,o),
(312,259,o),
(323,223,o),
(356,191,o),
(379,179,q),
(396,168,o),
(416,159,q),
(431,150,o),
(443,145,q),
(461,142,l),
(473,142,o),
(479,141,o),
(491,142,qs),
(499,142,o),
(507,140,qs),
(520,138,o),
(533,124,o),
(532,112,qs),
(531,106,o),
(529,101,qs),
(526,92,o),
(523,85,o),
(516,78,o),
(481,70,o),
(461,82,o),
(453,85,q),
(447,88,l),
(440,84,o),
(430,82,q),
(405,72,o),
(385,65,o),
(358,57,o),
(325,47,o),
(295,37,o),
(288,35,qs),
(268,27,o),
(268,21,q),
(283,7,o),
(313,-20,o),
(310,-26,q),
(308,-33,o)
);
}
);
};
layerId = "13498F96-F2AE-46CF-8E77-DB3DA5B2C06B";
name = "2 Apr 22 at 14:54";
shapes = (
{
closed = 0;
nodes = (
(259,463,l),
(243,241,o),
(319,97,o),
(529,27,c),
(394,73,o),
(309,72,o),
(169,6,c)
);
}
);
width = 600;
},
{
associatedMasterId = m01;
background = {
shapes = (
{
closed = 1;
nodes = (
(292,-33,qs),
(277,-33,o),
(248,-26,o),
(217,-8,o),
(206,6,o),
(197,14,q),
(193,20,o),
(193,36,qs),
(193,47,o),
(207,61,qs),
(217,70,o),
(231,77,qs),
(254,88,o),
(289,96,qs),
(308,100,o),
(334,105,qs),
(367,114,o),
(380,120,q),
(362,130,o),
(327,148,o),
(310,162,o),
(300,173,q),
(288,181,o),
(280,203,q),
(270,220,o),
(267,243,o),
(267,251,q),
(261,268,o),
(255,300,o),
(255,310,q),
(252,310,o),
(246,310,o),
(237,310,q),
(233,309,o),
(225,317,q),
(223,319,o),
(219,324,q),
(220,357,o),
(223,447,o),
(233,457,o),
(267,475,o),
(274,475,qs),
(277,475,o),
(286,435,qs),
(291,409,o),
(301,360,q),
(301,359,o),
(306,322,qs),
(308,305,o),
(312,259,o),
(323,223,o),
(356,191,o),
(379,179,q),
(396,168,o),
(416,159,q),
(431,150,o),
(443,145,q),
(461,142,l),
(473,142,o),
(479,141,o),
(491,142,qs),
(499,142,o),
(507,140,qs),
(520,138,o),
(533,124,o),
(532,112,qs),
(531,106,o),
(529,101,qs),
(526,92,o),
(523,85,o),
(516,78,o),
(481,70,o),
(461,82,o),
(453,85,q),
(447,88,l),
(440,84,o),
(430,82,q),
(405,72,o),
(385,65,o),
(358,57,o),
(325,47,o),
(295,37,o),
(288,35,qs),
(268,27,o),
(268,21,q),
(283,7,o),
(313,-20,o),
(310,-26,q),
(308,-33,o)
);
}
);
};
layerId = "455E0BA6-FE6F-4C25-9568-A84BB66936B9";
name = "2 Apr 22 at 15:03";
shapes = (
{
closed = 0;
nodes = (
(259,463,l),
(243,278,o),
(319,159,o),
(529,101,c)
);
},
{
closed = 0;
nodes = (
(526,93,l),
(397,121,o),
(270,85,o),
(198,0,c)
);
}
);
width = 600;
},
{
associatedMasterId = m01;
background = {
shapes = (
{
closed = 1;
nodes = (
(116,-33,qs),
(101,-33,o),
(72,-26,o),
(41,-8,o),
(30,6,o),
(21,14,q),
(17,20,o),
(17,36,qs),
(17,47,o),
(31,61,qs),
(41,70,o),
(55,77,qs),
(78,88,o),
(113,96,qs),
(132,100,o),
(158,105,qs),
(191,114,o),
(204,120,q),
(186,130,o),
(151,148,o),
(134,162,o),
(124,173,q),
(112,181,o),
(104,203,q),
(94,220,o),
(91,243,o),
(91,251,q),
(85,268,o),
(79,300,o),
(79,310,q),
(76,310,o),
(70,310,o),
(61,310,q),
(57,309,o),
(49,317,q),
(47,319,o),
(43,324,q),
(44,357,o),
(47,447,o),
(57,457,o),
(91,475,o),
(98,475,qs),
(101,475,o),
(110,435,qs),
(115,409,o),
(125,360,q),
(125,359,o),
(130,322,qs),
(132,305,o),
(136,259,o),
(147,223,o),
(180,191,o),
(203,179,q),
(220,168,o),
(240,159,q),
(255,150,o),
(267,145,q),
(285,142,l),
(297,142,o),
(303,141,o),
(315,142,qs),
(323,142,o),
(331,140,qs),
(344,138,o),
(357,124,o),
(356,112,qs),
(355,106,o),
(353,101,qs),
(350,92,o),
(347,85,o),
(340,78,o),
(305,70,o),
(285,82,o),
(277,85,q),
(271,88,l),
(264,84,o),
(254,82,q),
(229,72,o),
(209,65,o),
(182,57,o),
(149,47,o),
(119,37,o),
(112,35,qs),
(92,27,o),
(92,21,q),
(107,7,o),
(137,-20,o),
(134,-26,q),
(132,-33,o)
);
}
);
};
layerId = "9F9DF98A-D47A-41FD-B2E3-93A62FFCCA5B";
name = "5 Oct 23 at 19:19";
shapes = (
{
closed = 1;
nodes = (
(178,168,o),
(73,272,o),
(112,447,c),
(101,447,l),
(39,221,o),
(158,118,o),
(345,58,c),
(366,112,l)
);
},
{
closed = 1;
nodes = (
(27,0,l),
(103,49,o),
(226,85,o),
(345,58,c),
(366,112,l),
(235,143,o),
(118,118,o),
(29,67,c),
(20,4,l)
);
},
{
closed = 1;
nodes = (
(255,47,o),
(327,17,o),
(345,58,c),
(347,85,l),
(234,106,l)
);
}
);
width = 386;
},
{
associatedMasterId = m01;
background = {
shapes = (
{
closed = 1;
nodes = (
(116,-33,qs),
(101,-33,o),
(72,-26,o),
(41,-8,o),
(30,6,o),
(21,14,q),
(17,20,o),
(17,36,qs),
(17,47,o),
(31,61,qs),
(41,70,o),
(55,77,qs),
(78,88,o),
(113,96,qs),
(132,100,o),
(158,105,qs),
(191,114,o),
(204,120,q),
(186,130,o),
(151,148,o),
(134,162,o),
(124,173,q),
(112,181,o),
(104,203,q),
(94,220,o),
(91,243,o),
(91,251,q),
(85,268,o),
(79,300,o),
(79,310,q),
(76,310,o),
(70,310,o),
(61,310,q),
(57,309,o),
(49,317,q),
(47,319,o),
(43,324,q),
(44,357,o),
(47,447,o),
(57,457,o),
(91,475,o),
(98,475,qs),
(101,475,o),
(110,435,qs),
(115,409,o),
(125,360,q),
(125,359,o),
(130,322,qs),
(132,305,o),
(136,259,o),
(147,223,o),
(180,191,o),
(203,179,q),
(220,168,o),
(240,159,q),
(255,150,o),
(267,145,q),
(285,142,l),
(297,142,o),
(303,141,o),
(315,142,qs),
(323,142,o),
(331,140,qs),
(344,138,o),
(357,124,o),
(356,112,qs),
(355,106,o),
(353,101,qs),
(350,92,o),
(347,85,o),
(340,78,o),
(305,70,o),
(285,82,o),
(277,85,q),
(271,88,l),
(264,84,o),
(254,82,q),
(229,72,o),
(209,65,o),
(182,57,o),
(149,47,o),
(119,37,o),
(112,35,qs),
(92,27,o),
(92,21,q),
(107,7,o),
(137,-20,o),
(134,-26,q),
(132,-33,o)
);
}
);
};
layerId = "17AA844D-F59D-4383-8BFA-B7F40ECF01EA";
name = "5 Oct 23 at 19:23";
shapes = (
{
closed = 1;
nodes = (
(369,122,l),
(187,172,o),
(113,267,o),
(114,411,cs),
(114,426,o),
(114,440,o),
(115,454,c),
(65,457,l),
(63,438,o),
(63,423,o),
(63,408,cs),
(62,233,o),
(149,120,o),
(352,64,c)
);
},
{
closed = 1;
nodes = (
(116,36,l),
(42,42,l),
(13,18,l),
(13,9,l),
(68,-42,l)
);
},
{
closed = 1;
nodes = (
(101,36,o),
(179,73,o),
(272,72,cs),
(297,73,o),
(323,70,o),
(352,64,c),
(366,122,l),
(336,128,o),
(305,132,o),
(275,131,cs),
(176,132,o),
(78,95,o),
(13,18,c),
(56,-21,l)
);
},
{
closed = 1;
nodes = (
(115,449,l),
(65,457,l),
(43,284,l),
(58,282,l)
);
}
);
width = 386;
},
{
associatedMasterId = m01;
background = {
shapes = (
{
closed = 1;
nodes = (
(116,-33,qs),
(101,-33,o),
(72,-26,o),
(41,-8,o),
(30,6,o),
(21,14,q),
(17,20,o),
(17,36,qs),
(17,47,o),
(31,61,qs),
(41,70,o),
(55,77,qs),
(78,88,o),
(113,96,qs),
(132,100,o),
(158,105,qs),
(191,114,o),
(204,120,q),
(186,130,o),
(151,148,o),
(134,162,o),
(124,173,q),
(112,181,o),
(104,203,q),
(94,220,o),
(91,243,o),
(91,251,q),
(85,268,o),
(79,300,o),
(79,310,q),
(76,310,o),
(70,310,o),
(61,310,q),
(57,309,o),
(49,317,q),
(47,319,o),
(43,324,q),
(44,357,o),
(47,447,o),
(57,457,o),
(91,475,o),
(98,475,qs),
(101,475,o),
(110,435,qs),
(115,409,o),
(125,360,q),
(125,359,o),
(130,322,qs),
(132,305,o),
(136,259,o),
(147,223,o),
(180,191,o),
(203,179,q),
(220,168,o),
(240,159,q),
(255,150,o),
(267,145,q),
(285,142,l),
(297,142,o),
(303,141,o),
(315,142,qs),
(323,142,o),
(331,140,qs),
(344,138,o),
(357,124,o),
(356,112,qs),
(355,106,o),
(353,101,qs),
(350,92,o),
(347,85,o),
(340,78,o),
(305,70,o),
(285,82,o),
(277,85,q),
(271,88,l),
(264,84,o),
(254,82,q),
(229,72,o),
(209,65,o),
(182,57,o),
(149,47,o),
(119,37,o),
(112,35,qs),
(92,27,o),
(92,21,q),
(107,7,o),
(137,-20,o),
(134,-26,q),
(132,-33,o)
);
}
);
};
layerId = "1669E4A0-01A8-4CAA-9D76-561BE5B6BF85";
name = "5 Oct 23 at 19:24";
shapes = (
{
closed = 1;
nodes = (
(71,-37,l),
(112,29,l),
(155,57,o),
(210,73,o),
(272,72,cs),
(289,73,o),
(306,72,o),
(324,69,cs),
(343,66,o),
(355,73,o),
(360,91,cs),
(366,113,o),
(360,125,o),
(340,131,cs),
(179,183,o),
(113,275,o),
(114,411,cs),
(114,415,o),
(115,445,o),
(115,454,c),
(65,457,l),
(43,284,l),
(58,282,l),
(86,363,l),
(66,351,l),
(79,243,o),
(133,163,o),
(236,109,c),
(237,130,l),
(151,122,o),
(70,85,o),
(13,18,c),
(13,9,l),
(63,-37,l)
);
}
);
width = 386;
}
);
unicode = 1583;
}
{
glyphname = "reh-ar";
kernRight = "reh-reh";
layers = (
{
anchors = (
{
name = bottom;
pos = (280,-210);
},
{
name = top;
pos = (288,248);
}
);
background = {
shapes = (
{
closed = 1;
nodes = (
(303,218,o),
(288,218,qs),
(279,218,o),
(278,202,q),
(275,185,o),
(264,172,q),
(261,164,l),
(261,148,o),
(279,116,qs),
(325,29,l),
(305,-29,o),
(267,-70,qs),
(235,-104,o),
(193,-128,q),
(168,-144,o),
(113,-165,o),
(69,-165,q),
(5,-169,l),
(5,-176,l),
(14,-187,o),
(21,-189,q),
(117,-208,ls),
(123,-209,o),
(137,-212,q),
(152,-212,o),
(167,-212,q),
(198,-209,l),
(214,-206,o),
(223,-200,q),
(240,-185,o),
(271,-155,o),
(281,-144,qs),
(320,-97,o),
(335,-51,q),
(359,9,o),
(359,92,qs),
(359,120,o)
);
}
);
};
layerId = m01;
shapes = (
{
closed = 1;
nodes = (
(320,-208,o),
(373,-28,o),
(373,52,cs),
(373,111,o),
(354,177,o),
(318,217,c),
(309,216,l),
(336,43,l),
(316,-97,o),
(150,-167,o),
(39,-167,cs),
(10,-167,l),
(10,-180,l),
(38,-197,o),
(82,-208,o),
(117,-208,cs)
);
},
{
closed = 1;
nodes = (
(354,96,l),
(318,217,l),
(309,217,l),
(273,198,o),
(261,180,o),
(261,162,cs),
(261,119,o),
(327,72,o),
(327,4,cs),
(327,0,o),
(327,-5,o),
(326,-9,c)
);
}
);
width = 383;
},
{
associatedMasterId = m01;
background = {
shapes = (
{
closed = 1;
nodes = (
(313,218,o),
(298,218,qs),
(289,218,o),
(288,202,q),
(285,185,o),
(274,172,q),
(271,164,l),
(271,148,o),
(289,116,qs),
(335,29,l),
(315,-29,o),
(277,-70,qs),
(245,-104,o),
(203,-128,q),
(178,-144,o),
(123,-165,o),
(79,-165,q),
(15,-169,l),
(15,-176,l),
(24,-187,o),
(31,-189,q),
(127,-208,ls),
(133,-209,o),
(147,-212,q),
(162,-212,o),
(177,-212,q),
(208,-209,l),
(224,-206,o),
(233,-200,q),
(250,-185,o),
(281,-155,o),
(291,-144,qs),
(330,-97,o),
(345,-51,q),
(369,9,o),
(369,92,qs),
(369,120,o)
);
}
);
};
layerId = "FD06FECE-34A6-401B-A0BB-1EF2C388042B";
name = "27 Sep 23 at 16:28";
shapes = (
{
closed = 1;
nodes = (
(330,-208,o),
(383,-28,o),
(383,52,cs),
(383,111,o),
(364,177,o),
(328,217,c),
(319,216,l),
(346,43,l),
(326,-97,o),
(160,-167,o),
(49,-167,cs),
(20,-167,l),
(20,-180,l),
(48,-197,o),
(92,-208,o),
(127,-208,cs)
);
},
{
closed = 1;
nodes = (
(364,96,l),
(328,217,l),
(319,217,l),
(283,198,o),
(271,180,o),
(271,162,cs),
(271,119,o),
(337,72,o),
(337,4,cs),
(337,0,o),
(337,-5,o),
(336,-9,c)
);
}
);
width = 403;
}
);
unicode = 1585;
}
{
glyphname = "seen-ar";
layers = (
{
anchors = (
{
name = bottom;
pos = (799,-106);
},
{
name = top;
pos = (706,251);
}
);
background = {
shapes = (
{
closed = 1;
nodes = (
(657,-20,l),
(663,-66,o),
(646,-114,q),
(611,-183,o),
(531,-244,qs),
(467,-290,o),
(382,-293,q),
(295,-293,o),
(213,-243,q),
(135,-175,o),
(102,-76,qs),
(79,-2,l),
(58,75,l),
(82,32,l),
(106,-25,l),
(142,-97,l),
(189,-157,l),
(235,-207,o),
(293,-227,q),
(343,-240,o),
(403,-236,q),
(475,-224,o),
(518,-195,qs),
(578,-155,o),
(606,-108,q),
(630,-61,o),
(634,-29,q),
(619,7,l),
(648,12,l)
);
},
{
closed = 1;
nodes = (
(876,143,qs),
(884,129,o),
(884,114,qs),
(884,105,o),
(866,75,o),
(855,70,q),
(848,69,o),
(832,69,qs),
(808,69,o),
(783,76,o),
(780,79,qs),
(772,88,o),
(766,106,q),
(765,108,o),
(757,150,q),
(750,148,o),
(720,140,o),
(705,136,q),
(707,130,o),
(712,117,qs),
(713,113,o),
(713,106,qs),
(713,93,o),
(697,76,o),
(688,76,qs),
(679,76,o),
(670,78,o),
(666,80,q),
(660,81,o),
(651,93,o),
(649,101,q),
(641,120,o),
(637,141,q),
(596,141,l),
(590,122,o),
(615,29,o),
(619,7,q),
(648,12,l),
(656,8,o),
(678,6,o),
(682,6,qs),
(697,6,o),
(733,17,o),
(738,23,qs),
(740,25,o),
(747,42,q),
(751,36,o),
(786,16,o),
(802,7,q),
(821,2,o),
(835,2,qs),
(846,2,o),
(865,5,o),
(899,20,o),
(924,41,o),
(930,57,qs),
(932,63,o),
(936,83,qs),
(937,87,o),
(941,106,o),
(941,113,qs),
(941,124,o),
(932,154,o),
(913,187,o),
(901,200,q),
(895,207,o),
(885,217,qs),
(871,231,o),
(855,242,qs),
(847,247,o),
(821,266,qs),
(800,282,o),
(763,301,o),
(748,309,qs),
(702,333,o),
(686,288,q),
(700,253,l),
(733,257,l),
(750,249,o),
(771,235,qs),
(783,227,o),
(800,214,qs),
(815,205,o),
(835,187,qs),
(844,178,o),
(861,162,q),
(872,150,o)
);
}
);
};
layerId = m01;
shapes = (
{
closed = 1;
nodes = (
(635,-284,o),
(711,-71,o),
(633,141,c),
(586,119,l),
(653,-64,o),
(591,-232,o),
(383,-232,cs),
(202,-232,o),
(111,-106,o),
(67,72,c),
(54,68,l),
(95,-130,o),
(190,-284,o),
(383,-284,cs)
);
},
{
closed = 1;
nodes = (
(681,52,l),
(651,52,o),
(633,71,o),
(633,141,c),
(601,98,l),
(601,60,o),
(614,0,o),
(681,0,c)
);
},
{
closed = 1;
nodes = (
(739,0,o),
(781,27,o),
(781,142,c),
(729,142,l),
(729,71,o),
(711,52,o),
(681,52,c),
(681,0,l)
);
},
{
closed = 1;
nodes = (
(829,52,l),
(799,52,o),
(781,71,o),
(781,142,c),
(729,142,l),
(729,27,o),
(761,0,o),
(829,0,c)
);
},
{
closed = 1;
nodes = (
(949,0,o),
(921,153,o),
(850,255,c),
(817,204,l),
(865,133,o),
(888,52,o),
(829,52,c),
(829,0,l)
);
},
{
closed = 1;
nodes = (
(880,192,l),
(850,255,l),
(841,254,l),
(775,189,o),
(803,157,o),
(880,114,c)
);
}
);
width = 947;
},
{
associatedMasterId = m01;
background = {
shapes = (
{
closed = 1;
nodes = (
(657,-20,l),
(663,-66,o),
(646,-114,q),
(611,-183,o),
(531,-244,qs),
(467,-290,o),
(382,-293,q),
(295,-293,o),
(213,-243,q),
(135,-175,o),
(102,-76,qs),
(79,-2,l),
(58,75,l),
(82,32,l),
(106,-25,l),
(142,-97,l),
(189,-157,l),
(235,-207,o),
(293,-227,q),
(343,-240,o),
(403,-236,q),
(475,-224,o),
(518,-195,qs),
(578,-155,o),
(606,-108,q),
(630,-61,o),
(634,-29,q),
(619,7,l),
(648,12,l)
);
},
{
closed = 1;
nodes = (
(876,143,qs),
(884,129,o),
(884,114,qs),
(884,105,o),
(866,75,o),
(855,70,q),
(848,69,o),
(832,69,qs),
(808,69,o),
(783,76,o),
(780,79,qs),
(772,88,o),
(766,106,q),
(765,108,o),
(757,150,q),
(750,148,o),
(720,140,o),
(705,136,q),
(707,130,o),
(712,117,qs),
(713,113,o),
(713,106,qs),
(713,93,o),
(697,76,o),
(688,76,qs),
(679,76,o),
(670,78,o),
(666,80,q),
(660,81,o),
(651,93,o),
(649,101,q),
(641,120,o),
(637,141,q),
(596,141,l),
(590,122,o),
(615,29,o),
(619,7,q),
(648,12,l),
(656,8,o),
(678,6,o),
(682,6,qs),
(697,6,o),
(733,17,o),
(738,23,qs),
(740,25,o),
(747,42,q),
(751,36,o),
(786,16,o),
(802,7,q),
(821,2,o),
(835,2,qs),
(846,2,o),
(865,5,o),
(899,20,o),
(924,41,o),
(930,57,qs),
(932,63,o),
(936,83,qs),
(937,87,o),
(941,106,o),
(941,113,qs),
(941,124,o),
(932,154,o),
(913,187,o),
(901,200,q),
(895,207,o),
(885,217,qs),
(871,231,o),
(855,242,qs),
(847,247,o),
(821,266,qs),
(800,282,o),
(763,301,o),
(748,309,qs),
(702,333,o),
(686,288,q),
(700,253,l),
(733,257,l),
(750,249,o),
(771,235,qs),
(783,227,o),
(800,214,qs),
(815,205,o),
(835,187,qs),
(844,178,o),
(861,162,q),
(872,150,o)
);
}
);
};
layerId = "6C4EBEF3-08A0-4132-A1BF-51041A26AB97";
name = "27 Sep 23 at 16:29";
shapes = (
{
closed = 1;
nodes = (
(488,-331,o),
(633,-183,o),
(633,0,cs),
(633,142,l),
(581,142,l),
(581,0,ls),
(581,-158,o),
(462,-279,o),
(308,-279,cs),
(154,-279,o),
(19,-203,o),
(35,0,c),
(24,0,l),
(-5,-218,o),
(151,-331,o),
(308,-331,cs)
);
},
{
closed = 1;
nodes = (
(829,52,l),
(799,52,o),
(781,71,o),
(781,142,c),
(729,142,l),
(729,27,o),
(761,0,o),
(829,0,c)
);
},
{
closed = 1;
nodes = (
(898,0,o),
(927,51,o),
(927,108,cs),
(927,170,o),
(893,240,o),
(841,259,c),
(823,210,l),
(855,197,o),
(878,149,o),
(878,110,cs),
(878,73,o),
(864,52,o),
(829,52,c),
(829,0,l)
);
},
{
closed = 1;
nodes = (
(871,196,l),
(841,259,l),
(832,258,l),
(818,242,o),
(812,227,o),
(812,213,cs),
(812,184,o),
(839,158,o),
(879,128,c)
);
},
{
closed = 1;
nodes = (
(739,0,o),
(781,27,o),
(781,142,c),
(729,142,l),
(729,71,o),
(711,52,o),
(681,52,c),
(681,0,l)
);
},
{
closed = 1;
nodes = (
(681,52,l),
(651,52,o),
(633,71,o),
(633,142,c),
(601,98,l),
(601,60,o),
(614,0,o),
(681,0,c)
);
}
);
width = 947;
},
{
associatedMasterId = m01;
background = {
shapes = (
{
closed = 1;
nodes = (
(657,-20,l),
(663,-66,o),
(646,-114,q),
(611,-183,o),
(531,-244,qs),
(467,-290,o),
(382,-293,q),
(295,-293,o),
(213,-243,q),
(135,-175,o),
(102,-76,qs),
(79,-2,l),
(58,75,l),
(82,32,l),
(106,-25,l),
(142,-97,l),
(189,-157,l),
(235,-207,o),
(293,-227,q),
(343,-240,o),
(403,-236,q),
(475,-224,o),
(518,-195,qs),
(578,-155,o),
(606,-108,q),
(630,-61,o),
(634,-29,q),
(619,7,l),
(648,12,l)
);
},
{
closed = 1;
nodes = (
(876,143,qs),
(884,129,o),
(884,114,qs),
(884,105,o),
(866,75,o),
(855,70,q),
(848,69,o),
(832,69,qs),
(808,69,o),
(783,76,o),
(780,79,qs),
(772,88,o),
(766,106,q),
(765,108,o),
(757,150,q),
(750,148,o),
(720,140,o),
(705,136,q),
(707,130,o),
(712,117,qs),
(713,113,o),
(713,106,qs),
(713,93,o),
(697,76,o),
(688,76,qs),
(679,76,o),
(670,78,o),
(666,80,q),
(660,81,o),
(651,93,o),
(649,101,q),
(641,120,o),
(637,141,q),
(596,141,l),
(590,122,o),
(615,29,o),
(619,7,q),
(648,12,l),
(656,8,o),
(678,6,o),
(682,6,qs),
(697,6,o),
(733,17,o),
(738,23,qs),
(740,25,o),
(747,42,q),
(751,36,o),
(786,16,o),
(802,7,q),
(821,2,o),
(835,2,qs),
(846,2,o),
(865,5,o),
(899,20,o),
(924,41,o),
(930,57,qs),
(932,63,o),
(936,83,qs),
(937,87,o),
(941,106,o),
(941,113,qs),
(941,124,o),
(932,154,o),
(913,187,o),
(901,200,q),
(895,207,o),
(885,217,qs),
(871,231,o),
(855,242,qs),
(847,247,o),
(821,266,qs),
(800,282,o),
(763,301,o),
(748,309,qs),
(702,333,o),
(686,288,q),
(700,253,l),
(733,257,l),
(750,249,o),
(771,235,qs),
(783,227,o),
(800,214,qs),
(815,205,o),
(835,187,qs),
(844,178,o),
(861,162,q),
(872,150,o)
);
}
);
};
layerId = "A8ECCBC4-EE42-48A9-8583-25861AA06019";
name = "27 Sep 23 at 16:29";
shapes = (
{
closed = 1;
nodes = (
(488,-331,o),
(633,-183,o),
(633,0,cs),
(633,142,l),
(581,142,l),
(581,0,ls),
(581,-158,o),
(462,-279,o),
(308,-279,cs),
(154,-279,o),
(19,-203,o),
(35,0,c),
(24,0,l),
(-5,-218,o),
(151,-331,o),
(308,-331,cs)
);
},
{
closed = 1;
nodes = (
(681,52,l),
(651,52,o),
(633,71,o),
(633,142,c),
(601,98,l),
(601,60,o),
(614,0,o),
(681,0,c)
);
},
{
closed = 1;
nodes = (
(739,0,o),
(781,27,o),
(781,142,c),
(729,142,l),
(729,71,o),
(711,52,o),
(681,52,c),
(681,0,l)
);
},
{
closed = 1;
nodes = (
(829,52,l),
(799,52,o),
(781,71,o),
(781,142,c),
(729,142,l),
(729,27,o),
(761,0,o),
(829,0,c)
);
},
{
closed = 1;
nodes = (
(829,0,l),
(949,0,o),
(921,153,o),
(850,255,c),
(817,204,l),
(865,133,o),
(888,52,o),
(829,52,c)
);
},
{
closed = 1;
nodes = (
(775,189,o),
(803,157,o),
(880,114,c),
(880,192,l),
(850,255,l),
(841,254,l)
);
}
);
width = 947;
},
{
associatedMasterId = m01;
background = {
shapes = (
{
closed = 1;
nodes = (
(657,-20,l),
(663,-66,o),
(646,-114,q),
(611,-183,o),
(531,-244,qs),
(467,-290,o),
(382,-293,q),
(295,-293,o),
(213,-243,q),
(135,-175,o),
(102,-76,qs),
(79,-2,l),
(58,75,l),
(82,32,l),
(106,-25,l),
(142,-97,l),
(189,-157,l),
(235,-207,o),
(293,-227,q),
(343,-240,o),
(403,-236,q),
(475,-224,o),
(518,-195,qs),
(578,-155,o),
(606,-108,q),
(630,-61,o),
(634,-29,q),
(619,7,l),
(648,12,l)
);
},
{
closed = 1;
nodes = (
(876,143,qs),
(884,129,o),
(884,114,qs),
(884,105,o),
(866,75,o),
(855,70,q),
(848,69,o),
(832,69,qs),
(808,69,o),
(783,76,o),
(780,79,qs),
(772,88,o),
(766,106,q),
(765,108,o),
(757,150,q),
(750,148,o),
(720,140,o),
(705,136,q),
(707,130,o),
(712,117,qs),
(713,113,o),
(713,106,qs),
(713,93,o),
(697,76,o),
(688,76,qs),
(679,76,o),
(670,78,o),
(666,80,q),
(660,81,o),
(651,93,o),
(649,101,q),
(641,120,o),
(637,141,q),
(596,141,l),
(590,122,o),
(615,29,o),
(619,7,q),
(648,12,l),
(656,8,o),
(678,6,o),
(682,6,qs),
(697,6,o),
(733,17,o),
(738,23,qs),
(740,25,o),
(747,42,q),
(751,36,o),
(786,16,o),
(802,7,q),
(821,2,o),
(835,2,qs),
(846,2,o),
(865,5,o),
(899,20,o),
(924,41,o),
(930,57,qs),
(932,63,o),
(936,83,qs),
(937,87,o),
(941,106,o),
(941,113,qs),
(941,124,o),
(932,154,o),
(913,187,o),
(901,200,q),
(895,207,o),
(885,217,qs),
(871,231,o),
(855,242,qs),
(847,247,o),
(821,266,qs),
(800,282,o),
(763,301,o),
(748,309,qs),
(702,333,o),
(686,288,q),
(700,253,l),
(733,257,l),
(750,249,o),
(771,235,qs),
(783,227,o),
(800,214,qs),
(815,205,o),
(835,187,qs),
(844,178,o),
(861,162,q),
(872,150,o)
);
}
);
};
layerId = "ABD36A2B-1574-47DE-8268-1F9AEE8D816D";
name = "27 Sep 23 at 16:30";
shapes = (
{
closed = 1;
nodes = (
(949,0,o),
(921,153,o),
(850,255,c),
(817,204,l),
(865,133,o),
(888,52,o),
(829,52,c),
(829,0,l)
);
},
{
closed = 1;
nodes = (
(681,52,l),
(651,52,o),
(633,71,o),
(633,142,c),
(601,98,l),
(601,60,o),
(614,0,o),
(681,0,c)
);
},
{
closed = 1;
nodes = (
(739,0,o),
(781,27,o),
(781,142,c),
(729,142,l),
(729,71,o),
(711,52,o),
(681,52,c),
(681,0,l)
);
},
{
closed = 1;
nodes = (
(829,52,l),
(799,52,o),
(781,71,o),
(781,142,c),
(729,142,l),
(729,27,o),
(761,0,o),
(829,0,c)
);
},
{
closed = 1;
nodes = (
(880,192,l),
(850,255,l),
(841,254,l),
(775,189,o),
(803,157,o),
(880,114,c)
);
},
{
closed = 0;
nodes = (
(596,158,l),
(682,-58,o),
(616,-273,o),
(379,-273,cs),
(152,-273,o),
(77,-9,o),
(57,76,cs)
);
}
);
width = 947;
}
);
unicode = 1587;
}
{
glyphname = "sad-ar";
layers = (
{
anchors = (
{
name = bottom;
pos = (488,-48);
},
{
name = top;
pos = (483,338);
}
);
background = {
shapes = (
{
closed = 1;
nodes = (
(1334,167,l),
(1331,189,o),
(1286,243,q),
(1264,283,o),
(1217,305,q),
(1136,312,l),
(1077,292,l),
(1027,267,o),
(991,229,q),
(953,177,l),
(944,128,l),
(931,105,o),
(949,73,q),
(985,37,l),
(960,38,o),
(957,31,q),
(949,-1,o),
(940,-24,q),
(903,-76,l),
(818,-105,o),
(812,-105,qs),
(788,-105,o),
(738,-86,q),
(706,-57,l),
(695,-13,l),
(714,54,o),
(732,78,q),
(750,112,o),
(830,132,q),
(742,135,l),
(679,109,l),
(642,43,o),
(627,5,q),
(635,-49,o),
(642,-87,q),
(720,-153,l),
(754,-178,o),
(848,-159,qs),
(890,-151,o),
(950,-119,q),
(997,-60,l),
(986,-22,o),
(1005,-10,q),
(1002,-2,o),
(1027,-2,qs),
(1279,-1,l),
(1338,73,l)
);
},
{
closed = 1;
nodes = (
(1021,124,l),
(1053,190,l),
(1126,248,l),
(1209,256,l),
(1259,220,l),
(1286,136,l),
(1267,78,l),
(1184,66,l),
(1041,83,l)
);
}
);
};
layerId = m01;
shapes = (
{
closed = 1;
nodes = (
(260,-164,o),
(339,-85,o),
(339,12,c),
(329,0,l),
(395,0,l),
(395,52,l),
(337,52,ls),
(305,52,o),
(287,38,o),
(287,12,cs),
(287,-56,o),
(231,-112,o),
(162,-112,cs),
(90,-112,o),
(31,-56,o),
(31,13,cs),
(31,60,o),
(39,83,o),
(77,137,c),
(71,141,l),
(27,95,o),
(10,49,o),
(10,2,cs),
(10,-85,o),
(78,-164,o),
(162,-164,cs)
);
},
{
closed = 1;
nodes = (
(555,0,ls),
(632,0,o),
(662,51,o),
(662,139,cs),
(662,204,o),
(618,298,o),
(503,298,cs),
(384,298,o),
(296,216,o),
(296,105,cs),
(296,51,o),
(325,0,o),
(395,0,cs)
);
},
{
closed = 1;
nodes = (
(363,52,o),
(348,76,o),
(348,105,cs),
(348,186,o),
(412,246,o),
(503,246,cs),
(577,246,o),
(610,183,o),
(610,139,cs),
(610,88,o),
(593,52,o),
(555,52,cs),
(395,52,ls)
);
}
);
width = 672;
},
{
associatedMasterId = m01;
background = {
shapes = (
{
closed = 1;
nodes = (
(1365,167,l),
(1362,189,o),
(1317,243,q),
(1295,283,o),
(1248,305,q),
(1167,312,l),
(1108,292,l),
(1058,267,o),
(1022,229,q),
(984,177,l),
(975,128,l),
(962,105,o),
(980,73,q),
(1016,37,l),
(991,38,o),
(988,31,q),
(980,-1,o),
(971,-24,q),
(934,-76,l),
(849,-105,o),
(843,-105,qs),
(819,-105,o),
(769,-86,q),
(737,-57,l),
(726,-13,l),
(745,54,o),
(763,78,q),
(781,112,o),
(861,132,q),
(773,135,l),
(710,109,l),
(673,43,o),
(658,5,q),
(666,-49,o),
(673,-87,q),
(751,-153,l),
(785,-178,o),
(879,-159,qs),
(921,-151,o),
(981,-119,q),
(1028,-60,l),
(1017,-22,o),
(1036,-10,q),
(1033,-2,o),
(1058,-2,qs),
(1310,-1,l),
(1369,73,l)
);
},
{
closed = 1;
nodes = (
(1052,124,l),
(1084,190,l),
(1157,248,l),
(1240,256,l),
(1290,220,l),
(1317,136,l),
(1298,78,l),
(1215,66,l),
(1072,83,l)
);
}
);
};
layerId = "1792D25D-522E-480C-B4B3-3CDF0987F5F7";
name = "27 Sep 23 at 16:33";
shapes = (
{
closed = 1;
nodes = (
(488,-331,o),
(633,-183,o),
(633,0,c),
(581,0,l),
(581,-158,o),
(462,-279,o),
(308,-279,cs),
(154,-279,o),
(19,-203,o),
(35,0,c),
(24,0,l),
(-5,-218,o),
(151,-331,o),
(308,-331,cs)
);
},
{
closed = 1;
nodes = (
(975,0,o),
(1058,-81,o),
(1070,0,cs),
(1072,13,l),
(875,0,l)
);
},
{
closed = 1;
nodes = (
(1070,0,l),
(1097,141,o),
(1000,306,o),
(878,306,cs),
(749,306,o),
(650,173,o),
(584,7,c),
(608,7,l),
(674,160,o),
(766,254,o),
(869,254,cs),
(966,254,o),
(1034,125,o),
(1013,21,c),
(1057,21,l),
(1057,52,l),
(1029,36,o),
(1008,52,o),
(959,52,cs),
(621,52,ls),
(595,52,o),
(581,38,o),
(581,12,cs),
(581,0,l)
);
}
);
width = 1095;
},
{
associatedMasterId = m01;
background = {
shapes = (
{
closed = 1;
nodes = (
(1365,167,l),
(1362,189,o),
(1317,243,q),
(1295,283,o),
(1248,305,q),
(1167,312,l),
(1108,292,l),
(1058,267,o),
(1022,229,q),
(984,177,l),
(975,128,l),
(962,105,o),
(980,73,q),
(1016,37,l),
(991,38,o),
(988,31,q),
(980,-1,o),
(971,-24,q),
(934,-76,l),
(849,-105,o),
(843,-105,qs),
(819,-105,o),
(769,-86,q),
(737,-57,l),
(726,-13,l),
(745,54,o),
(763,78,q),
(781,112,o),
(861,132,q),
(773,135,l),
(710,109,l),
(673,43,o),
(658,5,q),
(666,-49,o),
(673,-87,q),
(751,-153,l),
(785,-178,o),
(879,-159,qs),
(921,-151,o),
(981,-119,q),
(1028,-60,l),
(1017,-22,o),
(1036,-10,q),
(1033,-2,o),
(1058,-2,qs),
(1310,-1,l),
(1369,73,l)
);
},
{
closed = 1;
nodes = (
(1052,124,l),
(1084,190,l),
(1157,248,l),
(1240,256,l),
(1290,220,l),
(1317,136,l),
(1298,78,l),
(1215,66,l),
(1072,83,l)
);
}
);
};
layerId = "68D49BB4-190F-49BD-9A2F-09DA231FCFA8";
name = "5 Oct 23 at 19:26";
shapes = (
{
closed = 1;
nodes = (
(557,-284,o),
(646,-145,o),
(631,21,c),
(581,0,l),
(588,-131,o),
(515,-232,o),
(353,-232,cs),
(172,-232,o),
(81,-106,o),
(37,72,c),
(24,68,l),
(65,-130,o),
(160,-284,o),
(353,-284,cs)
);
},
{
closed = 1;
nodes = (
(975,0,o),
(1058,-81,o),
(1070,0,cs),
(1072,13,l),
(875,0,l)
);
},
{
closed = 1;
nodes = (
(1070,0,l),
(1097,141,o),
(1000,306,o),
(878,306,cs),
(749,306,o),
(650,173,o),
(584,7,c),
(608,7,l),
(674,160,o),
(766,254,o),
(869,254,cs),
(966,254,o),
(1034,125,o),
(1013,21,c),
(1057,21,l),
(1057,52,l),
(1029,36,o),
(1008,52,o),
(959,52,cs),
(621,52,ls),
(602,52,o),
(590,45,o),
(584,31,cs),
(582,26,o),
(581,19,o),
(581,12,cs),
(581,0,l)
);
}
);
width = 1095;
},
{
associatedMasterId = m01;
background = {
shapes = (
{
closed = 1;
nodes = (
(1365,167,l),
(1362,189,o),
(1317,243,q),
(1295,283,o),
(1248,305,q),
(1167,312,l),
(1108,292,l),
(1058,267,o),
(1022,229,q),
(984,177,l),
(975,128,l),
(962,105,o),
(980,73,q),
(1016,37,l),
(991,38,o),
(988,31,q),
(980,-1,o),
(971,-24,q),
(934,-76,l),
(849,-105,o),
(843,-105,qs),
(819,-105,o),
(769,-86,q),
(737,-57,l),
(726,-13,l),
(745,54,o),
(763,78,q),
(781,112,o),
(861,132,q),
(773,135,l),
(710,109,l),
(673,43,o),
(658,5,q),
(666,-49,o),
(673,-87,q),
(751,-153,l),
(785,-178,o),
(879,-159,qs),
(921,-151,o),
(981,-119,q),
(1028,-60,l),
(1017,-22,o),
(1036,-10,q),
(1033,-2,o),
(1058,-2,qs),
(1310,-1,l),
(1369,73,l)
);
},
{
closed = 1;
nodes = (
(1052,124,l),
(1084,190,l),
(1157,248,l),
(1240,256,l),
(1290,220,l),
(1317,136,l),
(1298,78,l),
(1215,66,l),
(1072,83,l)
);
}
);
};
layerId = "E9CDEBB8-4C87-4C57-98F3-0F1B467777F4";
name = "5 Oct 23 at 19:28";
shapes = (
{
closed = 1;
nodes = (
(1021,0,o),
(992,51,o),
(992,105,cs),
(992,216,o),
(1080,298,o),
(1199,298,cs),
(1325,298,o),
(1358,208,o),
(1358,139,cs),
(1358,51,o),
(1328,0,o),
(1257,0,cs),
(1080,0,l)
);
},
{
closed = 0;
nodes = (
(714,136,l),
(683,104,o),
(664,61,o),
(664,13,cs),
(664,-85,o),
(743,-164,o),
(841,-164,cs),
(939,-164,o),
(1018,-85,o),
(1018,13,cs),
(1018,34,o),
(1015,53,o),
(1008,72,c)
);
}
);
width = 1095;
},
{
associatedMasterId = m01;
background = {
shapes = (
{
closed = 1;
nodes = (
(1365,167,l),
(1362,189,o),
(1317,243,q),
(1295,283,o),
(1248,305,q),
(1167,312,l),
(1108,292,l),
(1058,267,o),
(1022,229,q),
(984,177,l),
(975,128,l),
(962,105,o),
(980,73,q),
(1016,37,l),
(991,38,o),
(988,31,q),
(980,-1,o),
(971,-24,q),
(934,-76,l),
(849,-105,o),
(843,-105,qs),
(819,-105,o),
(769,-86,q),
(737,-57,l),
(726,-13,l),
(745,54,o),
(763,78,q),
(781,112,o),
(861,132,q),
(773,135,l),
(710,109,l),
(673,43,o),
(658,5,q),
(666,-49,o),
(673,-87,q),
(751,-153,l),
(785,-178,o),
(879,-159,qs),
(921,-151,o),
(981,-119,q),
(1028,-60,l),
(1017,-22,o),
(1036,-10,q),
(1033,-2,o),
(1058,-2,qs),
(1310,-1,l),
(1369,73,l)
);
},
{
closed = 1;
nodes = (
(1052,124,l),
(1084,190,l),
(1157,248,l),
(1240,256,l),
(1290,220,l),
(1317,136,l),
(1298,78,l),
(1215,66,l),
(1072,83,l)
);
}
);
};
layerId = "12967CE1-201B-4027-83D3-56B035C46383";
name = "5 Oct 23 at 19:33";
shapes = (
{
closed = 1;
nodes = (
(1057,52,o),
(1044,71,o),
(1044,105,cs),
(1044,186,o),
(1108,246,o),
(1199,246,cs),
(1284,246,o),
(1306,193,o),
(1306,139,cs),
(1306,73,o),
(1292,52,o),
(1257,52,cs),
(1080,52,ls)
);
},
{
closed = 1;
nodes = (
(1257,0,ls),
(1328,0,o),
(1358,51,o),
(1358,139,cs),
(1358,208,o),
(1325,298,o),
(1199,298,cs),
(1080,298,o),
(992,216,o),
(992,105,cs),
(992,51,o),
(1021,0,o),
(1080,0,cs)
);
},
{
closed = 1;
nodes = (
(891,41,o),
(893,29,o),
(893,13,cs),
(893,-56,o),
(837,-112,o),
(768,-112,cs),
(696,-112,o),
(637,-56,o),
(637,13,cs),
(637,60,o),
(645,83,o),
(683,137,c),
(677,141,l),
(633,95,o),
(616,49,o),
(616,2,cs),
(616,-85,o),
(684,-164,o),
(768,-164,cs),
(866,-164,o),
(945,-85,o),
(945,13,cs),
(945,34,o),
(942,53,o),
(935,72,cs),
(926,96,l),
(877,78,l),
(886,54,ls)
);
}
);
width = 1095;
},
{
associatedMasterId = m01;
background = {
shapes = (
{
closed = 1;
nodes = (
(1365,167,l),
(1362,189,o),
(1317,243,q),
(1295,283,o),
(1248,305,q),
(1167,312,l),
(1108,292,l),
(1058,267,o),
(1022,229,q),
(984,177,l),
(975,128,l),
(962,105,o),
(980,73,q),
(1016,37,l),
(991,38,o),
(988,31,q),
(980,-1,o),
(971,-24,q),
(934,-76,l),
(849,-105,o),
(843,-105,qs),
(819,-105,o),
(769,-86,q),
(737,-57,l),
(726,-13,l),
(745,54,o),
(763,78,q),
(781,112,o),
(861,132,q),
(773,135,l),
(710,109,l),
(673,43,o),
(658,5,q),
(666,-49,o),
(673,-87,q),
(751,-153,l),
(785,-178,o),
(879,-159,qs),
(921,-151,o),
(981,-119,q),
(1028,-60,l),
(1017,-22,o),
(1036,-10,q),
(1033,-2,o),
(1058,-2,qs),
(1310,-1,l),
(1369,73,l)
);
},
{
closed = 1;
nodes = (
(1052,124,l),
(1084,190,l),
(1157,248,l),
(1240,256,l),
(1290,220,l),
(1317,136,l),
(1298,78,l),
(1215,66,l),
(1072,83,l)
);
}
);
};
layerId = "691CCF76-413C-4253-933C-6C354F602D78";
name = "5 Oct 23 at 19:36";
shapes = (
{
closed = 1;
nodes = (
(1059,52,o),
(1044,76,o),
(1044,105,cs),
(1044,186,o),
(1108,246,o),
(1199,246,cs),
(1273,246,o),
(1306,183,o),
(1306,139,cs),
(1306,88,o),
(1289,52,o),
(1251,52,cs),
(1091,52,ls)
);
},
{
closed = 1;
nodes = (
(1251,0,ls),
(1328,0,o),
(1358,51,o),
(1358,139,cs),
(1358,204,o),
(1314,298,o),
(1199,298,cs),
(1080,298,o),
(992,216,o),
(992,105,cs),
(992,51,o),
(1021,0,o),
(1091,0,cs)
);
},
{
closed = 1;
nodes = (
(1025,0,l),
(1091,0,l),
(1091,52,l),
(983,52,l),
(983,12,ls),
(983,-56,o),
(927,-112,o),
(858,-112,cs),
(786,-112,o),
(727,-56,o),
(727,13,cs),
(727,60,o),
(735,83,o),
(773,137,c),
(767,141,l),
(723,95,o),
(706,49,o),
(706,2,cs),
(706,-85,o),
(774,-164,o),
(858,-164,cs),
(956,-164,o),
(1035,-85,o),
(1035,12,c)
);
}
);
width = 1095;
}
);
unicode = 1589;
}
{
glyphname = "tah-ar";
layers = (
{
anchors = (
{
name = bottom;
pos = (193,-40);
},
{
name = top;
pos = (125,328);
}
);
background = {
shapes = (
{
closed = 1;
nodes = (
(452,62,o),
(428,90,q),
(386,120,ls),
(340,151,o),
(292,178,q),
(242,190,l),
(232,217,l),
(225,268,l),
(233,437,l),
(276,489,o),
(202,507,q),
(136,493,o),
(185,444,q),
(193,399,l),
(193,266,l),
(202,199,l),
(163,172,l),
(140,157,l),
(112,137,l),
(70,99,o),
(73,68,q),
(101,16,l),
(170,-3,l),
(399,-1,l),
(451,7,o),
(453,26,o)
);
},
{
closed = 1;
nodes = (
(134,64,l),
(150,98,l),
(220,161,o),
(241,100,q),
(253,162,o),
(395,49,q),
(296,50,l),
(178,49,l)
);
}
);
};
layerId = m01;
shapes = (
{
closed = 1;
nodes = (
(367,20,o),
(373,374,o),
(250,489,c),
(218,449,l),
(327,340,o),
(303,52,o),
(109,52,c),
(90,20,l)
);
},
{
closed = 1;
nodes = (
(269,0,ls),
(346,0,o),
(376,51,o),
(376,139,cs),
(376,204,o),
(332,298,o),
(217,298,cs),
(98,298,o),
(10,216,o),
(10,105,cs),
(10,51,o),
(39,0,o),
(109,0,cs)
);
},
{
closed = 1;
nodes = (
(77,52,o),
(62,76,o),
(62,105,cs),
(62,186,o),
(126,246,o),
(217,246,cs),
(291,246,o),
(324,183,o),
(324,139,cs),
(324,88,o),
(307,52,o),
(269,52,cs),
(109,52,ls)
);
},
{
closed = 1;
nodes = (
(280,426,l),
(250,489,l),
(241,488,l),
(175,420,o),
(205,386,o),
(287,341,c)
);
}
);
width = 386;
},
{
associatedMasterId = m01;
background = {
shapes = (
{
closed = 1;
nodes = (
(528,62,o),
(504,90,q),
(462,120,ls),
(416,151,o),
(368,178,q),
(318,190,l),
(308,217,l),
(301,268,l),
(309,437,l),
(352,489,o),
(278,507,q),
(212,493,o),
(261,444,q),
(269,399,l),
(269,266,l),
(278,199,l),
(239,172,l),
(216,157,l),
(188,137,l),
(146,99,o),
(149,68,q),
(177,16,l),
(246,-3,l),
(475,-1,l),
(527,7,o),
(529,26,o)
);
},
{
closed = 1;
nodes = (
(210,64,l),
(226,98,l),
(296,161,o),
(317,100,q),
(329,162,o),
(471,49,q),
(372,50,l),
(254,49,l)
);
}
);
};
layerId = "CD89173B-4FEC-4A2C-AF37-603AD102C649";
name = "27 Sep 23 at 16:35";
shapes = (
{
closed = 1;
nodes = (
(130,160,o),
(222,254,o),
(325,254,cs),
(422,254,o),
(490,125,o),
(469,21,c),
(513,21,l),
(513,52,l),
(485,36,o),
(464,52,o),
(415,52,cs),
(60,52,l),
(37,0,l),
(526,0,l),
(553,141,o),
(456,306,o),
(334,306,cs),
(205,306,o),
(106,173,o),
(40,7,c),
(64,7,l)
);
},
{
closed = 1;
nodes = (
(431,0,o),
(514,-81,o),
(526,0,cs),
(528,13,l),
(331,0,l)
);
},
{
closed = 0;
nodes = (
(332,486,l),
(432,407,o),
(557,17,o),
(51,17,cs)
);
}
);
width = 600;
},
{
associatedMasterId = m01;
background = {
shapes = (
{
closed = 1;
nodes = (
(528,62,o),
(504,90,q),
(462,120,ls),
(416,151,o),
(368,178,q),
(318,190,l),
(308,217,l),
(301,268,l),
(309,437,l),
(352,489,o),
(278,507,q),
(212,493,o),
(261,444,q),
(269,399,l),
(269,266,l),
(278,199,l),
(239,172,l),
(216,157,l),
(188,137,l),
(146,99,o),
(149,68,q),
(177,16,l),
(246,-3,l),
(475,-1,l),
(527,7,o),
(529,26,o)
);
},
{
closed = 1;
nodes = (
(210,64,l),
(226,98,l),
(296,161,o),
(317,100,q),
(329,162,o),
(471,49,q),
(372,50,l),
(254,49,l)
);
}
);
};
layerId = "9B2B179C-5E1A-43F2-872D-783E94862F62";
name = "27 Sep 23 at 16:37";
shapes = (
{
closed = 1;
nodes = (
(556,20,o),
(469,374,o),
(336,489,c),
(304,449,l),
(413,340,o),
(488,52,o),
(69,52,c),
(50,20,l)
);
},
{
closed = 1;
nodes = (
(431,0,o),
(514,-81,o),
(526,0,cs),
(528,13,l),
(331,0,l)
);
},
{
closed = 1;
nodes = (
(526,0,l),
(553,141,o),
(456,306,o),
(334,306,cs),
(205,306,o),
(106,173,o),
(40,7,c),
(64,7,l),
(130,160,o),
(222,254,o),
(325,254,cs),
(422,254,o),
(490,125,o),
(469,21,c),
(513,21,l),
(513,52,l),
(485,36,o),
(464,52,o),
(415,52,cs),
(60,52,l),
(37,0,l)
);
},
{
closed = 1;
nodes = (
(366,426,l),
(336,489,l),
(327,488,l),
(261,420,o),
(291,386,o),
(373,341,c)
);
}
);
width = 600;
},
{
associatedMasterId = m01;
background = {
shapes = (
{
closed = 1;
nodes = (
(533,62,o),
(509,90,q),
(467,120,ls),
(421,151,o),
(373,178,q),
(323,190,l),
(313,217,l),
(306,268,l),
(314,437,l),
(357,489,o),
(283,507,q),
(217,493,o),
(266,444,q),
(274,399,l),
(274,266,l),
(283,199,l),
(244,172,l),
(221,157,l),
(193,137,l),
(151,99,o),
(154,68,q),
(182,16,l),
(251,-3,l),
(480,-1,l),
(532,7,o),
(534,26,o)
);
},
{
closed = 1;
nodes = (
(215,64,l),
(231,98,l),
(301,161,o),
(322,100,q),
(334,162,o),
(476,49,q),
(377,50,l),
(259,49,l)
);
}
);
};
layerId = "D97A1385-4A71-4538-9C26-0681E31882BA";
name = "28 Sep 23 at 14:22";
shapes = (
{
closed = 1;
nodes = (
(-88,20,o),
(-175,374,o),
(-308,489,c),
(-340,449,l),
(-231,340,o),
(-156,52,o),
(-575,52,c),
(-594,20,l)
);
},
{
closed = 1;
nodes = (
(-213,0,o),
(-130,-81,o),
(-118,0,cs),
(-116,13,l),
(-313,0,l)
);
},
{
closed = 1;
nodes = (
(-118,0,l),
(-91,141,o),
(-188,306,o),
(-310,306,cs),
(-439,306,o),
(-538,173,o),
(-604,7,c),
(-580,7,l),
(-514,160,o),
(-422,254,o),
(-319,254,cs),
(-222,254,o),
(-154,125,o),
(-175,21,c),
(-131,21,l),
(-131,52,l),
(-159,36,o),
(-180,52,o),
(-229,52,cs),
(-577,52,ls),
(-605,52,o),
(-627,64,o),
(-626,89,c),
(-631,90,l),
(-650,45,o),
(-636,0,o),
(-585,0,cs)
);
},
{
closed = 1;
nodes = (
(-278,426,l),
(-308,489,l),
(-317,488,l),
(-383,420,o),
(-353,386,o),
(-271,341,c)
);
},
{
closed = 1;
nodes = (
(436,0,ls),
(501,0,o),
(536,28,o),
(536,79,cs),
(536,155,o),
(496,200,o),
(420,203,cs),
(364,205,o),
(308,204,o),
(252,202,cs),
(176,200,o),
(136,155,o),
(136,79,cs),
(136,28,o),
(171,0,o),
(236,0,cs)
);
}
);
width = 545;
},
{
associatedMasterId = m01;
background = {
shapes = (
{
closed = 1;
nodes = (
(533,62,o),
(509,90,q),
(467,120,ls),
(421,151,o),
(373,178,q),
(323,190,l),
(313,217,l),
(306,268,l),
(314,437,l),
(357,489,o),
(283,507,q),
(217,493,o),
(266,444,q),
(274,399,l),
(274,266,l),
(283,199,l),
(244,172,l),
(221,157,l),
(193,137,l),
(151,99,o),
(154,68,q),
(182,16,l),
(251,-3,l),
(480,-1,l),
(532,7,o),
(534,26,o)
);
},
{
closed = 1;
nodes = (
(215,64,l),
(231,98,l),
(301,161,o),
(322,100,q),
(334,162,o),
(476,49,q),
(377,50,l),
(259,49,l)
);
}
);
};
layerId = "953F1ECD-FB6E-4947-9AFE-4CD94D879414";
name = "28 Sep 23 at 14:22";
shapes = (
{
closed = 1;
nodes = (
(-88,20,o),
(-175,374,o),
(-308,489,c),
(-340,449,l),
(-231,340,o),
(-156,52,o),
(-575,52,c),
(-594,20,l)
);
},
{
closed = 1;
nodes = (
(-213,0,o),
(-130,-81,o),
(-118,0,cs),
(-116,13,l),
(-313,0,l)
);
},
{
closed = 1;
nodes = (
(-118,0,l),
(-91,141,o),
(-188,306,o),
(-310,306,cs),
(-439,306,o),
(-538,173,o),
(-604,7,c),
(-580,7,l),
(-514,160,o),
(-422,254,o),
(-319,254,cs),
(-222,254,o),
(-154,125,o),
(-175,21,c),
(-131,21,l),
(-131,52,l),
(-159,36,o),
(-180,52,o),
(-229,52,cs),
(-577,52,ls),
(-605,52,o),
(-627,64,o),
(-626,89,c),
(-631,90,l),
(-650,45,o),
(-636,0,o),
(-585,0,cs)
);
},
{
closed = 1;
nodes = (
(-278,426,l),
(-308,489,l),
(-317,488,l),
(-383,420,o),
(-353,386,o),
(-271,341,c)
);
},
{
closed = 1;
nodes = (
(436,0,ls),
(501,0,o),
(536,28,o),
(536,79,cs),
(536,155,o),
(496,200,o),
(420,203,cs),
(364,205,o),
(308,204,o),
(281,203,cs),
(180,199,o),
(99,141,o),
(99,75,cs),
(99,23,o),
(147,0,o),
(236,0,cs)
);
}
);
width = 545;
},
{
associatedMasterId = m01;
background = {
shapes = (
{
closed = 1;
nodes = (
(444,62,o),
(420,90,q),
(378,120,ls),
(332,151,o),
(284,178,q),
(234,190,l),
(224,217,l),
(217,268,l),
(225,437,l),
(268,489,o),
(194,507,q),
(128,493,o),
(177,444,q),
(185,399,l),
(185,266,l),
(194,199,l),
(155,172,l),
(132,157,l),
(104,137,l),
(62,99,o),
(65,68,q),
(93,16,l),
(162,-3,l),
(391,-1,l),
(443,7,o),
(445,26,o)
);
},
{
closed = 1;
nodes = (
(126,64,l),
(142,98,l),
(212,161,o),
(233,100,q),
(245,162,o),
(387,49,q),
(288,50,l),
(170,49,l)
);
}
);
};
layerId = "8BC1EBF0-6ED1-4520-8FC8-F2AFF5F3D535";
name = "5 Oct 23 at 19:39";
shapes = (
{
closed = 1;
nodes = (
(347,0,ls),
(412,0,o),
(447,28,o),
(447,79,cs),
(447,155,o),
(407,200,o),
(331,203,cs),
(275,205,o),
(219,204,o),
(192,203,cs),
(91,199,o),
(10,141,o),
(10,75,cs),
(10,23,o),
(58,0,o),
(147,0,cs)
);
},
{
closed = 1;
nodes = (
(80,52,o),
(62,64,o),
(62,75,cs),
(62,106,o),
(117,148,o),
(194,151,cs),
(220,152,o),
(275,153,o),
(329,151,cs),
(376,149,o),
(395,128,o),
(395,79,cs),
(395,59,o),
(384,52,o),
(347,52,cs),
(147,52,ls)
);
},
{
closed = 1;
nodes = (
(365,20,o),
(375,374,o),
(242,489,c),
(210,449,l),
(319,340,o),
(295,52,o),
(101,52,c),
(82,20,l)
);
},
{
closed = 1;
nodes = (
(272,426,l),
(242,489,l),
(233,488,l),
(167,420,o),
(197,386,o),
(279,341,c)
);
}
);
width = 457;
}
);
unicode = 1591;
}
{
glyphname = "ain-ar";
layers = (
{
anchors = (
{
name = bottom;
pos = (410,-30);
},
{
name = top;
pos = (410,490);
}
);
background = {
shapes = (
{
closed = 1;
nodes = (
(203,-18,qs),
(174,-60,o),
(167,-88,qs),
(147,-154,o),
(147,-210,qs),
(147,-270,o),
(175,-317,qs),
(198,-358,o),
(242,-389,qs),
(279,-415,o),
(387,-435,o),
(471,-435,qs),
(518,-435,o),
(667,-426,o),
(710,-418,qs),
(795,-404,o),
(880,-392,qs),
(1008,-372,o),
(1025,-359,q),
(1028,-356,o),
(1132,-331,qs),
(1167,-323,o),
(1236,-306,q),
(1198,-310,o),
(1161,-314,qs),
(1088,-323,o),
(1085,-321,q),
(1063,-325,o),
(908,-337,qs),
(828,-342,o),
(699,-354,o),
(586,-359,o),
(547,-359,qs),
(474,-359,o),
(412,-350,qs),
(379,-345,o),
(320,-334,o),
(288,-325,qs),
(240,-311,o),
(189,-227,o),
(189,-168,qs),
(189,-145,o),
(204,-97,qs),
(210,-75,o),
(290,3,o),
(325,25,qs),
(354,42,o),
(359,49,q),
(364,51,o),
(390,63,qs),
(423,77,o),
(451,80,o),
(485,84,o),
(497,84,qs),
(511,83,o),
(536,83,o),
(539,89,o),
(562,99,o),
(562,120,qs),
(562,125,o),
(564,144,o),
(564,151,q),
(562,151,o),
(539,157,o),
(529,159,q),
(514,159,o),
(489,147,o),
(476,147,qs),
(417,147,l),
(412,146,o),
(375,150,o),
(372,152,q),
(357,157,o),
(327,170,o),
(290,200,o),
(263,245,o),
(263,258,q),
(273,322,o),
(319,360,qs),
(341,379,o),
(403,407,o),
(421,407,qs),
(430,407,o),
(474,395,o),
(477,388,q),
(485,375,o),
(491,337,o),
(502,334,o),
(511,333,o),
(515,333,q),
(526,343,o),
(531,347,qs),
(547,360,o),
(544,363,qs),
(543,364,o),
(524,420,o),
(522,421,q),
(511,433,o),
(491,454,o),
(483,456,qs),
(464,460,o),
(438,461,o),
(427,461,q),
(380,450,l),
(373,450,o),
(343,438,o),
(332,431,qs),
(278,396,ls),
(263,386,o),
(244,348,qs),
(232,326,o),
(218,288,qs),
(211,269,o),
(211,248,qs),
(211,229,o),
(224,186,o),
(251,150,o),
(265,140,q),
(273,136,o),
(357,112,o),
(363,108,q),
(354,104,o),
(307,77,o),
(282,63,qs),
(275,59,o),
(261,44,qs),
(251,35,o),
(237,30,q),
(225,14,o)
);
}
);
};
layerId = m01;
shapes = (
{
closed = 1;
nodes = (
(561,119,cs),
(561,136,o),
(550,146,o),
(529,144,cs),
(249,122,o),
(89,-21,o),
(90,-196,cs),
(90,-369,o),
(205,-474,o),
(543,-509,c),
(545,-498,l),
(239,-453,o),
(141,-351,o),
(141,-193,cs),
(140,-49,o),
(273,71,o),
(531,90,cs),
(551,92,o),
(561,102,o)
);
},
{
closed = 1;
nodes = (
(395,118,l),
(320,149,o),
(274,193,o),
(274,267,cs),
(274,333,o),
(342,403,o),
(410,403,cs),
(451,403,o),
(484,378,o),
(501,330,cs),
(508,312,o),
(518,304,o),
(534,307,cs),
(550,310,o),
(557,323,o),
(551,342,cs),
(530,406,o),
(485,455,o),
(410,455,cs),
(312,455,o),
(222,361,o),
(222,267,cs),
(222,165,o),
(288,107,o),
(375,70,c)
);
}
);
width = 600;
},
{
associatedMasterId = m01;
background = {
shapes = (
{
closed = 1;
nodes = (
(203,-18,qs),
(174,-60,o),
(167,-88,qs),
(147,-154,o),
(147,-210,qs),
(147,-270,o),
(175,-317,qs),
(198,-358,o),
(242,-389,qs),
(279,-415,o),
(387,-435,o),
(471,-435,qs),
(518,-435,o),
(667,-426,o),
(710,-418,qs),
(795,-404,o),
(880,-392,qs),
(1008,-372,o),
(1025,-359,q),
(1028,-356,o),
(1132,-331,qs),
(1167,-323,o),
(1236,-306,q),
(1198,-310,o),
(1161,-314,qs),
(1088,-323,o),
(1085,-321,q),
(1063,-325,o),
(908,-337,qs),
(828,-342,o),
(699,-354,o),
(586,-359,o),
(547,-359,qs),
(474,-359,o),
(412,-350,qs),
(379,-345,o),
(320,-334,o),
(288,-325,qs),
(240,-311,o),
(189,-227,o),
(189,-168,qs),
(189,-145,o),
(204,-97,qs),
(210,-75,o),
(290,3,o),
(325,25,qs),
(354,42,o),
(359,49,q),
(364,51,o),
(390,63,qs),
(423,77,o),
(451,80,o),
(485,84,o),
(497,84,qs),
(511,83,o),
(536,83,o),
(539,89,o),
(562,99,o),
(562,120,qs),
(562,125,o),
(564,144,o),
(564,151,q),
(562,151,o),
(539,157,o),
(529,159,q),
(514,159,o),
(489,147,o),
(476,147,qs),
(417,147,l),
(412,146,o),
(375,150,o),
(372,152,q),
(357,157,o),
(327,170,o),
(290,200,o),
(263,245,o),
(263,258,q),
(273,322,o),
(319,360,qs),
(341,379,o),
(403,407,o),
(421,407,qs),
(430,407,o),
(474,395,o),
(477,388,q),
(485,375,o),
(491,337,o),
(502,334,o),
(511,333,o),
(515,333,q),
(526,343,o),
(531,347,qs),
(547,360,o),
(544,363,qs),
(543,364,o),
(524,420,o),
(522,421,q),
(511,433,o),
(491,454,o),
(483,456,qs),
(464,460,o),
(438,461,o),
(427,461,q),
(380,450,l),
(373,450,o),
(343,438,o),
(332,431,qs),
(278,396,ls),
(263,386,o),
(244,348,qs),
(232,326,o),
(218,288,qs),
(211,269,o),
(211,248,qs),
(211,229,o),
(224,186,o),
(251,150,o),
(265,140,q),
(273,136,o),
(357,112,o),
(363,108,q),
(354,104,o),
(307,77,o),
(282,63,qs),
(275,59,o),
(261,44,qs),
(251,35,o),
(237,30,q),
(225,14,o)
);
}
);
};
layerId = "7D791B1E-3BF9-4C69-B5DB-EE5BFF46D236";
name = "5 Oct 23 at 20:04";
shapes = (
{
closed = 0;
nodes = (
(535,113,l),
(279,113,o),
(140,-30,o),
(140,-207,cs),
(140,-382,o),
(250,-501,o),
(585,-534,cs)
);
},
{
closed = 0;
nodes = (
(365,103,l),
(284,137,o),
(228,188,o),
(228,276,cs),
(228,367,o),
(315,461,o),
(407,461,cs),
(489,461,o),
(516,411,o),
(531,339,cs)
);
}
);
width = 600;
},
{
associatedMasterId = m01;
background = {
shapes = (
{
closed = 1;
nodes = (
(203,-18,qs),
(174,-60,o),
(167,-88,qs),
(147,-154,o),
(147,-210,qs),
(147,-270,o),
(175,-317,qs),
(198,-358,o),
(242,-389,qs),
(279,-415,o),
(387,-435,o),
(471,-435,qs),
(518,-435,o),
(667,-426,o),
(710,-418,qs),
(795,-404,o),
(880,-392,qs),
(1008,-372,o),
(1025,-359,q),
(1028,-356,o),
(1132,-331,qs),
(1167,-323,o),
(1236,-306,q),
(1198,-310,o),
(1161,-314,qs),
(1088,-323,o),
(1085,-321,q),
(1063,-325,o),
(908,-337,qs),
(828,-342,o),
(699,-354,o),
(586,-359,o),
(547,-359,qs),
(474,-359,o),
(412,-350,qs),
(379,-345,o),
(320,-334,o),
(288,-325,qs),
(240,-311,o),
(189,-227,o),
(189,-168,qs),
(189,-145,o),
(204,-97,qs),
(210,-75,o),
(290,3,o),
(325,25,qs),
(354,42,o),
(359,49,q),
(364,51,o),
(390,63,qs),
(423,77,o),
(451,80,o),
(485,84,o),
(497,84,qs),
(511,83,o),
(536,83,o),
(539,89,o),
(562,99,o),
(562,120,qs),
(562,125,o),
(564,144,o),
(564,151,q),
(562,151,o),
(539,157,o),
(529,159,q),
(514,159,o),
(489,147,o),
(476,147,qs),
(417,147,l),
(412,146,o),
(375,150,o),
(372,152,q),
(357,157,o),
(327,170,o),
(290,200,o),
(263,245,o),
(263,258,q),
(273,322,o),
(319,360,qs),
(341,379,o),
(403,407,o),
(421,407,qs),
(430,407,o),
(474,395,o),
(477,388,q),
(485,375,o),
(491,337,o),
(502,334,o),
(511,333,o),
(515,333,q),
(526,343,o),
(531,347,qs),
(547,360,o),
(544,363,qs),
(543,364,o),
(524,420,o),
(522,421,q),
(511,433,o),
(491,454,o),
(483,456,qs),
(464,460,o),
(438,461,o),
(427,461,q),
(380,450,l),
(373,450,o),
(343,438,o),
(332,431,qs),
(278,396,ls),
(263,386,o),
(244,348,qs),
(232,326,o),
(218,288,qs),
(211,269,o),
(211,248,qs),
(211,229,o),
(224,186,o),
(251,150,o),
(265,140,q),
(273,136,o),
(357,112,o),
(363,108,q),
(354,104,o),
(307,77,o),
(282,63,qs),
(275,59,o),
(261,44,qs),
(251,35,o),
(237,30,q),
(225,14,o)
);
}
);
};
layerId = "51FE4866-4F39-47F6-81A0-C5F6FC419B27";
name = "5 Oct 23 at 20:07";
shapes = (
{
closed = 1;
nodes = (
(545,-498,l),
(239,-453,o),
(141,-351,o),
(141,-193,cs),
(140,-34,o),
(298,96,o),
(605,96,c),
(607,144,l),
(278,143,o),
(89,-7,o),
(90,-196,cs),
(90,-369,o),
(205,-474,o),
(543,-509,c)
);
},
{
closed = 1;
nodes = (
(395,118,l),
(320,149,o),
(274,193,o),
(274,267,cs),
(274,333,o),
(342,403,o),
(410,403,cs),
(451,403,o),
(484,378,o),
(501,330,cs),
(508,312,o),
(518,304,o),
(534,307,cs),
(534,307,ls),
(550,310,o),
(557,323,o),
(551,342,cs),
(530,406,o),
(485,455,o),
(410,455,cs),
(312,455,o),
(222,361,o),
(222,267,cs),
(222,165,o),
(288,107,o),
(375,70,c)
);
}
);
width = 600;
}
);
unicode = 1593;
}
{
glyphname = "kashida-ar";
layers = (
{
anchors = (
{
name = bottom;
pos = (50,0);
},
{
name = top;
pos = (50,101);
}
);
hints = (
{
name = _cap.strokebutt;
origin = (0,1);
type = Cap;
},
{
name = _cap.strokebutt;
origin = (0,3);
type = Cap;
}
);
layerId = m01;
shapes = (
{
closed = 1;
nodes = (
(0,0,l),
(100,0,l),
(100,52,l),
(0,52,l)
);
}
);
width = 100;
}
);
unicode = 1600;
}
{
glyphname = "kaf-ar";
kernRight = "middle-reh";
layers = (
{
anchors = (
{
name = bottom;
pos = (282,-40);
},
{
name = top;
pos = (328,362);
}
);
background = {
shapes = (
{
closed = 1;
nodes = (
(578,75,l),
(539,105,l),
(504,129,o),
(419,144,q),
(359,158,l),
(266,175,l),
(237,178,o),
(207,200,q),
(181,234,o),
(166,292,q),
(189,351,l),
(280,469,o),
(149,589,q),
(115,589,l),
(94,575,l),
(89,547,l),
(100,516,l),
(141,520,l),
(161,490,l),
(163,456,l),
(160,412,l),
(134,349,l),
(107,269,o),
(134,204,q),
(141,184,o),
(153,172,qs),
(171,154,o),
(192,146,q),
(234,129,l),
(340,104,l),
(463,81,l),
(497,80,l),
(494,58,l),
(372,39,l),
(229,38,l),
(85,49,l),
(61,83,l),
(60,128,o),
(58,165,o),
(25,152,q),
(10,127,l),
(4,97,l),
(14,37,l),
(43,6,l),
(147,-12,l),
(182,-17,l),
(374,-12,l),
(560,15,l),
(571,40,l)
);
}
);
};
layerId = m01;
shapes = (
{
closed = 1;
nodes = (
(-12,77,o),
(1,0,o),
(89,0,cs),
(401,0,ls),
(468,0,o),
(553,20,o),
(553,89,cs),
(553,240,o),
(161,172,o),
(161,317,cs),
(161,451,o),
(229,621,o),
(152,621,cs),
(116,621,o),
(85,564,o),
(68,520,c),
(77,516,l),
(94,558,o),
(118,576,o),
(140,576,cs),
(188,576,o),
(109,435,o),
(109,317,cs),
(109,128,o),
(501,164,o),
(501,89,cs),
(501,66,o),
(444,52,o),
(401,52,cs),
(89,52,ls),
(44,52,o),
(25,93,o),
(52,172,c),
(41,175,l)
);
}
);
width = 563;
},
{
associatedMasterId = m01;
background = {
shapes = (
{
closed = 1;
nodes = (
(723,75,l),
(684,105,l),
(649,129,o),
(564,144,q),
(504,158,l),
(411,175,l),
(382,178,o),
(352,200,q),
(326,234,o),
(311,292,q),
(334,351,l),
(425,469,o),
(294,589,q),
(260,589,l),
(239,575,l),
(234,547,l),
(245,516,l),
(286,520,l),
(306,490,l),
(308,456,l),
(305,412,l),
(279,349,l),
(252,269,o),
(279,204,q),
(286,184,o),
(298,172,qs),
(316,154,o),
(337,146,q),
(379,129,l),
(485,104,l),
(608,81,l),
(642,80,l),
(639,58,l),
(517,39,l),
(374,38,l),
(230,49,l),
(206,83,l),
(205,128,o),
(203,165,o),
(170,152,q),
(155,127,l),
(149,97,l),
(159,37,l),
(188,6,l),
(292,-12,l),
(327,-17,l),
(519,-12,l),
(705,15,l),
(716,40,l)
);
}
);
};
layerId = "A1BDE451-A6A3-49BF-9446-CD217375F716";
name = "6 Oct 23 at 13:11";
shapes = (
{
closed = 0;
nodes = (
(221,503,l),
(221,543,o),
(242,583,o),
(293,583,cs),
(384,583,o),
(280,417,o),
(280,266,cs),
(280,122,o),
(692,183,o),
(692,64,cs),
(692,13,o),
(601,0,o),
(546,0,cs),
(234,0,ls),
(182,0,o),
(149,59,o),
(191,150,cs)
);
}
);
width = 600;
},
{
associatedMasterId = m01;
background = {
shapes = (
{
closed = 1;
nodes = (
(723,75,l),
(684,105,l),
(649,129,o),
(564,144,q),
(504,158,l),
(411,175,l),
(382,178,o),
(352,200,q),
(326,234,o),
(311,292,q),
(334,351,l),
(425,469,o),
(294,589,q),
(260,589,l),
(239,575,l),
(234,547,l),
(245,516,l),
(286,520,l),
(306,490,l),
(308,456,l),
(305,412,l),
(279,349,l),
(252,269,o),
(279,204,q),
(286,184,o),
(298,172,qs),
(316,154,o),
(337,146,q),
(379,129,l),
(485,104,l),
(608,81,l),
(642,80,l),
(639,58,l),
(517,39,l),
(374,38,l),
(230,49,l),
(206,83,l),
(205,128,o),
(203,165,o),
(170,152,q),
(155,127,l),
(149,97,l),
(159,37,l),
(188,6,l),
(292,-12,l),
(327,-17,l),
(519,-12,l),
(705,15,l),
(716,40,l)
);
}
);
};
layerId = "6C56D640-B9D0-483D-8D52-AFF7E71C15EA";
name = "6 Oct 23 at 13:12";
shapes = (
{
closed = 0;
nodes = (
(221,503,l),
(221,541,o),
(239,579,o),
(282,579,cs),
(372,579,o),
(280,415,o),
(280,296,cs),
(280,122,o),
(692,183,o),
(692,64,cs),
(692,13,o),
(601,0,o),
(546,0,cs),
(234,0,ls),
(163,0,o),
(149,76,o),
(191,150,cs)
);
}
);
width = 600;
},
{
associatedMasterId = m01;
background = {
shapes = (
{
closed = 1;
nodes = (
(723,75,l),
(684,105,l),
(649,129,o),
(564,144,q),
(504,158,l),
(411,175,l),
(382,178,o),
(352,200,q),
(326,234,o),
(311,292,q),
(334,351,l),
(425,469,o),
(294,589,q),
(260,589,l),
(239,575,l),
(234,547,l),
(245,516,l),
(286,520,l),
(306,490,l),
(308,456,l),
(305,412,l),
(279,349,l),
(252,269,o),
(279,204,q),
(286,184,o),
(298,172,qs),
(316,154,o),
(337,146,q),
(379,129,l),
(485,104,l),
(608,81,l),
(642,80,l),
(639,58,l),
(517,39,l),
(374,38,l),
(230,49,l),
(206,83,l),
(205,128,o),
(203,165,o),
(170,152,q),
(155,127,l),
(149,97,l),
(159,37,l),
(188,6,l),
(292,-12,l),
(327,-17,l),
(519,-12,l),
(705,15,l),
(716,40,l)
);
}
);
};
layerId = "7E04D0E2-E581-4520-954F-D3BF11EC198D";
name = "6 Oct 23 at 14:46";
shapes = (
{
closed = 1;
nodes = (
(133,77,o),
(146,0,o),
(234,0,cs),
(546,0,ls),
(613,0,o),
(698,20,o),
(698,89,cs),
(698,240,o),
(306,172,o),
(306,317,cs),
(306,451,o),
(374,621,o),
(297,621,cs),
(261,621,o),
(230,564,o),
(213,520,c),
(222,516,l),
(239,558,o),
(263,576,o),
(285,576,cs),
(333,576,o),
(254,435,o),
(254,317,cs),
(254,128,o),
(646,164,o),
(646,89,cs),
(646,66,o),
(589,52,o),
(546,52,cs),
(234,52,ls),
(189,52,o),
(170,93,o),
(197,172,c),
(186,175,l)
);
}
);
width = 600;
}
);
unicode = 1603;
}
{
glyphname = "lam-ar";
layers = (
{
anchors = (
{
name = bottom;
pos = (580,-293);
},
{
name = top;
pos = (296,509);
}
);
background = {
shapes = (
{
closed = 1;
nodes = (
(542,655,o),
(564,578,q),
(590,545,o),
(586,422,q),
(586,-60,ls),
(586,-101,o),
(574,-111,q),
(574,-157,o),
(529,-192,q),
(491,-246,o),
(396,-260,q),
(288,-255,l),
(176,-224,o),
(133,-160,q),
(70,-105,o),
(51,-16,q),
(44,136,l),
(22,37,l),
(22,-76,o),
(51,-126,q),
(87,-212,o),
(171,-269,q),
(230,-295,l),
(366,-328,o),
(453,-303,qs),
(546,-273,o),
(585,-223,q),
(620,-152,l),
(633,-119,o),
(632,-57,qs),
(632,680,l)
);
}
);
};
layerId = m01;
shapes = (
{
closed = 1;
nodes = (
(488,-301,o),
(633,-153,o),
(633,30,c),
(581,30,l),
(581,-128,o),
(462,-249,o),
(308,-249,cs),
(154,-249,o),
(19,-173,o),
(35,30,c),
(24,30,l),
(-5,-188,o),
(151,-301,o),
(308,-301,cs)
);
},
{
closed = 1;
nodes = (
(633,30,l),
(633,427,l),
(581,427,l),
(581,30,l)
);
},
{
closed = 1;
nodes = (
(602,535,l),
(577,645,l),
(567,645,l),
(531,619,o),
(516,592,o),
(516,564,cs),
(516,528,o),
(544,488,o),
(584,451,c)
);
},
{
closed = 1;
nodes = (
(633,427,l),
(633,509,o),
(613,593,o),
(577,645,c),
(532,609,l),
(564,563,o),
(581,494,o),
(581,427,c)
);
}
);
width = 643;
},
{
anchors = (
{
name = bottom;
pos = (543,-285);
},
{
name = top;
pos = (539,644);
}
);
associatedMasterId = m01;
background = {
shapes = (
{
closed = 1;
nodes = (
(542,655,o),
(564,578,q),
(590,545,o),
(586,422,q),
(586,-60,ls),
(586,-101,o),
(574,-111,q),
(574,-157,o),
(529,-192,q),
(491,-246,o),
(396,-260,q),
(288,-255,l),
(176,-224,o),
(133,-160,q),
(70,-105,o),
(51,-16,q),
(44,136,l),
(22,37,l),
(22,-76,o),
(51,-126,q),
(87,-212,o),
(171,-269,q),
(230,-295,l),
(366,-328,o),
(453,-303,qs),
(546,-273,o),
(585,-223,q),
(620,-152,l),
(633,-119,o),
(632,-57,qs),
(632,680,l)
);
}
);
};
layerId = "A1B3FBA0-7744-467D-B80E-69E023D22ED7";
name = "7 Oct 23 at 12:18";
shapes = (
{
closed = 1;
nodes = (
(488,-301,o),
(633,-153,o),
(633,30,c),
(581,30,l),
(581,-128,o),
(462,-249,o),
(308,-249,cs),
(154,-249,o),
(19,-173,o),
(35,30,c),
(24,30,l),
(-5,-188,o),
(151,-301,o),
(308,-301,cs)
);
},
{
closed = 1;
nodes = (
(633,30,l),
(633,630,l),
(581,561,l),
(581,30,l)
);
},
{
closed = 1;
nodes = (
(624,518,l),
(633,630,l),
(618,630,l),
(519,601,o),
(534,527,o),
(581,443,c)
);
}
);
width = 643;
}
);
unicode = 1604;
}
{
glyphname = "meem-ar";
layers = (
{
anchors = (
{
name = bottom;
pos = (239,-60);
},
{
name = top;
pos = (237,256);
}
);
background = {
shapes = (
{
closed = 1;
nodes = (
(373,180,o),
(341,237,q),
(276,318,o),
(183,281,q),
(129,253,l),
(96,222,l),
(65,172,l),
(41,116,l),
(21,57,o),
(22,-19,q),
(32,-95,o),
(53,-149,q),
(62,-161,ls),
(92,-205,o),
(145,-232,q),
(187,-268,o),
(297,-274,q),
(436,-291,o),
(589,-234,q),
(430,-248,o),
(360,-234,q),
(247,-244,o),
(138,-150,q),
(93,-75,l),
(84,0,l),
(97,82,l),
(135,171,l),
(158,199,l),
(174,146,l),
(226,105,l),
(294,106,l)
);
},
{
closed = 1;
nodes = (
(251,160,q),
(246,166,o),
(235,187,q),
(221,223,o),
(259,232,q),
(284,222,o),
(289,199,q),
(284,174,l),
(270,156,o)
);
}
);
};
layerId = m01;
shapes = (
{
closed = 1;
nodes = (
(136,-325,o),
(62,-176,o),
(62,-42,cs),
(62,55,o),
(115,149,o),
(244,149,cs),
(290,149,o),
(308,134,o),
(308,103,cs),
(308,83,o),
(297,72,o),
(274,72,cs),
(241,72,o),
(222,93,o),
(222,143,cs),
(222,169,l),
(170,169,l),
(170,143,ls),
(170,65,o),
(210,20,o),
(274,20,cs),
(331,20,o),
(360,58,o),
(360,103,cs),
(360,162,o),
(318,201,o),
(244,201,cs),
(75,201,o),
(10,73,o),
(10,-42,cs),
(10,-182,o),
(104,-367,o),
(547,-266,c),
(545,-257,l)
);
}
);
width = 397;
},
{
associatedMasterId = m01;
background = {
shapes = (
{
closed = 1;
nodes = (
(504,180,o),
(472,237,q),
(407,318,o),
(314,281,q),
(260,253,l),
(227,222,l),
(196,172,l),
(172,116,l),
(152,57,o),
(153,-19,q),
(163,-95,o),
(184,-149,q),
(193,-161,ls),
(223,-205,o),
(276,-232,q),
(318,-268,o),
(428,-274,q),
(567,-291,o),
(720,-234,q),
(561,-248,o),
(491,-234,q),
(378,-244,o),
(269,-150,q),
(224,-75,l),
(215,0,l),
(228,82,l),
(266,171,l),
(289,199,l),
(305,146,l),
(357,105,l),
(425,106,l)
);
},
{
closed = 1;
nodes = (
(382,160,q),
(377,166,o),
(366,187,q),
(352,223,o),
(390,232,q),
(415,222,o),
(420,199,q),
(415,174,l),
(401,156,o)
);
}
);
};
layerId = "EB7B567A-3F35-468D-8156-518F272322F1";
name = "6 Oct 23 at 23:21";
shapes = (
{
closed = 0;
nodes = (
(320,232,l),
(320,168,o),
(346,135,o),
(391,135,cs),
(434,135,o),
(454,164,o),
(454,211,cs),
(454,247,o),
(426,275,o),
(368,275,cs),
(224,275,o),
(167,135,o),
(167,1,cs),
(167,-140,o),
(284,-344,o),
(717,-234,cs)
);
}
);
width = 600;
},
{
associatedMasterId = m01;
background = {
shapes = (
{
closed = 1;
nodes = (
(504,180,o),
(472,237,q),
(407,318,o),
(314,281,q),
(260,253,l),
(227,222,l),
(196,172,l),
(172,116,l),
(152,57,o),
(153,-19,q),
(163,-95,o),
(184,-149,q),
(193,-161,ls),
(223,-205,o),
(276,-232,q),
(318,-268,o),
(428,-274,q),
(567,-291,o),
(720,-234,q),
(561,-248,o),
(491,-234,q),
(378,-244,o),
(269,-150,q),
(224,-75,l),
(215,0,l),
(228,82,l),
(266,171,l),
(289,199,l),
(305,146,l),
(357,105,l),
(425,106,l)
);
},
{
closed = 1;
nodes = (
(382,160,q),
(377,166,o),
(366,187,q),
(352,223,o),
(390,232,q),
(415,222,o),
(420,199,q),
(415,174,l),
(401,156,o)
);
}
);
};
layerId = "0712F7EA-1B3C-4721-BEB7-11ED2F1EBA54";
name = "6 Oct 23 at 23:21";
shapes = (
{
closed = 1;
nodes = (
(301,-313,o),
(193,-129,o),
(193,1,cs),
(193,127,o),
(244,249,o),
(368,249,cs),
(411,249,o),
(428,232,o),
(428,211,cs),
(428,176,o),
(417,161,o),
(391,161,cs),
(362,161,o),
(346,182,o),
(346,232,cs),
(346,258,l),
(294,258,l),
(294,232,ls),
(294,154,o),
(331,109,o),
(391,109,cs),
(450,109,o),
(480,151,o),
(480,211,cs),
(480,262,o),
(441,301,o),
(368,301,cs),
(204,301,o),
(141,143,o),
(141,1,cs),
(141,-151,o),
(267,-375,o),
(723,-259,cs),
(749,-253,l),
(736,-202,l),
(711,-209,ls)
);
}
);
width = 600;
}
);
unicode = 1605;
}
{
glyphname = "heh-ar";
kernRight = "middle-reh";
layers = (
{
anchors = (
{
name = bottom;
pos = (123,-31);
},
{
name = top;
pos = (120,241);
}
);
background = {
shapes = (
{
closed = 1;
nodes = (
(752,309,l),
(759,292,l),
(776,245,l),
(778,176,l),
(795,132,l),
(822,73,l),
(851,39,l),
(846,19,l),
(820,23,l),
(776,7,l),
(702,1,l),
(630,-3,l),
(591,22,l),
(576,61,l),
(578,100,l),
(602,131,l),
(650,161,l),
(680,160,l),
(713,170,l),
(735,188,l),
(739,209,l),
(707,223,l),
(688,252,l),
(677,306,l),
(688,327,l),
(730,311,l)
);
},
{
closed = 1;
nodes = (
(645,104,l),
(625,95,l),
(629,71,l),
(659,51,l),
(723,50,l),
(787,66,l),
(782,87,l),
(746,127,l),
(666,114,l)
);
},
{
closed = 1;
nodes = (
(147,64,q),
(132,63,l),
(119,64,l),
(107,71,o),
(107,77,qs),
(107,88,o),
(112,99,o),
(116,105,qs),
(118,107,o),
(121,111,q),
(137,109,o),
(158,87,o),
(158,74,q),
(152,65,o)
);
},
{
closed = 1;
nodes = (
(231,258,qs),
(217,258,o),
(194,251,o),
(173,242,o),
(149,226,o),
(124,205,o),
(112,194,qs),
(98,178,o),
(85,152,o),
(76,128,qs),
(73,117,o),
(70,91,o),
(70,78,qs),
(70,64,o),
(73,36,o),
(78,27,qs),
(80,25,o),
(88,14,q),
(97,5,o),
(103,2,o),
(115,0,o),
(120,0,qs),
(127,0,o),
(141,5,o),
(147,7,qs),
(158,12,o),
(163,15,qs),
(175,23,o),
(186,35,o),
(195,56,o),
(195,72,qs),
(195,86,o),
(188,110,o),
(175,122,qs),
(157,136,o),
(155,138,q),
(152,140,o),
(145,144,o),
(134,151,q),
(143,165,o),
(147,170,o),
(155,181,qs),
(168,195,o),
(175,200,o),
(191,213,q),
(206,221,o),
(222,228,q),
(225,231,o),
(238,236,o),
(247,242,o),
(248,249,qs),
(250,258,o)
);
}
);
};
layerId = m01;
shapes = (
{
closed = 1;
nodes = (
(77,-1,o),
(123,-1,cs),
(173,-1,o),
(186,35,o),
(186,74,cs),
(186,126,o),
(129,168,o),
(20,206,c),
(10,188,l),
(96,155,o),
(150,117,o),
(150,85,cs),
(150,66,o),
(139,61,o),
(123,61,cs),
(106,61,o),
(96,67,o),
(96,85,cs),
(96,117,o),
(152,192,o),
(285,199,c),
(281,212,l),
(117,222,o),
(57,127,o),
(57,70,cs),
(57,27,o)
);
}
);
width = 295;
},
{
associatedMasterId = m01;
background = {
shapes = (
{
closed = 1;
nodes = (
(207,309,l),
(214,292,l),
(231,245,l),
(233,176,l),
(250,132,l),
(277,73,l),
(306,39,l),
(301,19,l),
(275,23,l),
(231,7,l),
(157,1,l),
(85,-3,l),
(46,22,l),
(31,61,l),
(33,100,l),
(57,131,l),
(105,161,l),
(135,160,l),
(168,170,l),
(190,188,l),
(194,209,l),
(162,223,l),
(143,252,l),
(132,306,l),
(143,327,l),
(185,311,l)
);
},
{
closed = 1;
nodes = (
(100,104,l),
(80,95,l),
(84,71,l),
(114,51,l),
(178,50,l),
(242,66,l),
(237,87,l),
(201,127,l),
(121,114,l)
);
}
);
};
layerId = "D8910B02-98A1-4A8F-94B9-5F4963ABEEDA";
name = "27 Sep 23 at 23:54";
shapes = (
{
closed = 1;
nodes = (
(173,0,o),
(224,14,o),
(270,63,c),
(268,117,l),
(244,142,o),
(180,179,o),
(130,179,cs),
(54,179,o),
(10,142,o),
(10,80,cs),
(10,33,o),
(44,0,o),
(103,0,cs)
);
},
{
closed = 1;
nodes = (
(75,51,o),
(54,65,o),
(54,100,cs),
(54,134,o),
(90,160,o),
(136,160,cs),
(180,160,o),
(220,139,o),
(256,110,c),
(257,94,l),
(219,63,o),
(176,51,o),
(114,51,cs)
);
},
{
closed = 1;
nodes = (
(342,-35,l),
(298,0,o),
(297,19,o),
(297,80,c),
(245,80,l),
(245,1,o),
(272,-15,o),
(338,-41,c)
);
},
{
closed = 1;
nodes = (
(297,80,l),
(297,405,l),
(245,336,l),
(245,80,l)
);
},
{
closed = 1;
nodes = (
(288,293,l),
(297,405,l),
(287,405,l),
(232,389,o),
(211,359,o),
(211,321,cs),
(211,291,o),
(224,255,o),
(245,218,c)
);
}
);
width = 352;
}
);
unicode = 1607;
}
{
glyphname = "waw-ar";
kernRight = "reh-reh";
layers = (
{
anchors = (
{
name = bottom;
pos = (330,-152);
},
{
name = center;
pos = (271,0);
},
{
name = top;
pos = (283,228);
}
);
background = {
shapes = (
{
closed = 1;
nodes = (
(225,164,o),
(218,157,qs),
(206,146,o),
(196,128,o),
(192,103,o),
(192,89,o),
(192,78,q),
(194,64,o),
(199,47,o),
(207,36,q),
(219,28,o),
(230,20,q),
(243,13,o),
(251,9,o),
(276,5,o),
(287,3,qs),
(288,3,o),
(296,3,o),
(302,4,q),
(333,6,l),
(333,-1,o),
(333,-9,q),
(328,-25,o),
(325,-38,qs),
(317,-67,l),
(307,-92,o),
(294,-114,o),
(273,-142,q),
(259,-162,o),
(237,-183,qs),
(229,-190,o),
(212,-203,qs),
(200,-212,o),
(174,-231,o),
(160,-241,o),
(133,-255,o),
(120,-260,o),
(105,-266,o),
(96,-268,o),
(80,-273,o),
(67,-274,o),
(57,-275,o),
(54,-278,q),
(57,-288,o),
(68,-293,qs),
(71,-294,o),
(78,-296,q),
(93,-296,o),
(117,-299,q),
(132,-297,o),
(149,-292,o),
(173,-284,o),
(191,-278,o),
(217,-263,o),
(235,-253,o),
(248,-241,qs),
(266,-224,o),
(274,-215,qs),
(279,-210,o),
(297,-186,qs),
(306,-176,o),
(319,-151,qs),
(337,-116,o),
(346,-101,q),
(354,-82,o),
(359,-54,qs),
(361,-39,o),
(367,-10,qs),
(368,-4,o),
(371,10,q),
(371,24,o),
(371,37,qs),
(371,63,ls),
(371,83,o),
(357,118,o),
(343,142,qs),
(338,150,o),
(326,162,o),
(319,166,qs),
(301,177,o),
(278,180,o),
(269,180,qs),
(257,180,o),
(245,175,qs),
(233,170,o)
);
},
{
closed = 1;
nodes = (
(306,102,l),
(306,79,l),
(296,65,l),
(277,63,l),
(257,76,l),
(255,103,l),
(275,120,l),
(294,116,l)
);
}
);
};
layerId = m01;
shapes = (
{
closed = 1;
nodes = (
(320,-208,o),
(373,-28,o),
(373,52,cs),
(373,133,o),
(327,188,o),
(283,188,cs),
(234,188,o),
(199,125,o),
(199,70,cs),
(199,24,o),
(220,0,o),
(271,0,cs),
(309,0,o),
(332,10,o),
(346,28,c),
(336,45,l),
(317,-97,o),
(151,-167,o),
(39,-167,cs),
(10,-167,l),
(10,-180,l),
(38,-197,o),
(82,-208,o),
(117,-208,cs)
);
},
{
closed = 1;
nodes = (
(335,65,l),
(325,57,o),
(302,50,o),
(283,51,cs),
(263,51,o),
(247,58,o),
(247,79,cs),
(247,96,o),
(264,108,o),
(283,108,cs),
(312,108,o),
(328,66,o),
(330,39,c)
);
}
);
width = 383;
},
{
associatedMasterId = m01;
background = {
shapes = (
{
closed = 1;
nodes = (
(294,164,o),
(287,157,qs),
(275,146,o),
(265,128,o),
(261,103,o),
(261,89,o),
(261,78,q),
(263,64,o),
(268,47,o),
(276,36,q),
(288,28,o),
(299,20,q),
(312,13,o),
(320,9,o),
(345,5,o),
(356,3,qs),
(357,3,o),
(365,3,o),
(371,4,q),
(402,6,l),
(402,-1,o),
(402,-9,q),
(397,-25,o),
(394,-38,qs),
(386,-67,l),
(376,-92,o),
(363,-114,o),
(342,-142,q),
(328,-162,o),
(306,-183,qs),
(298,-190,o),
(281,-203,qs),
(269,-212,o),
(243,-231,o),
(229,-241,o),
(202,-255,o),
(189,-260,o),
(174,-266,o),
(165,-268,o),
(149,-273,o),
(136,-274,o),
(126,-275,o),
(123,-278,q),
(126,-288,o),
(137,-293,qs),
(140,-294,o),
(147,-296,q),
(162,-296,o),
(186,-299,q),
(201,-297,o),
(218,-292,o),
(242,-284,o),
(260,-278,o),
(286,-263,o),
(304,-253,o),
(317,-241,qs),
(335,-224,o),
(343,-215,qs),
(348,-210,o),
(366,-186,qs),
(375,-176,o),
(388,-151,qs),
(406,-116,o),
(415,-101,q),
(423,-82,o),
(428,-54,qs),
(430,-39,o),
(436,-10,qs),
(437,-4,o),
(440,10,q),
(440,24,o),
(440,37,qs),
(440,63,ls),
(440,83,o),
(426,118,o),
(412,142,qs),
(407,150,o),
(395,162,o),
(388,166,qs),
(370,177,o),
(347,180,o),
(338,180,qs),
(326,180,o),
(314,175,qs),
(302,170,o)
);
},
{
closed = 1;
nodes = (
(375,102,l),
(375,79,l),
(365,65,l),
(346,63,l),
(326,76,l),
(324,103,l),
(344,120,l),
(363,116,l)
);
}
);
};
layerId = "635F44CC-CD44-4001-8554-26D58BFA26FD";
name = "27 Sep 23 at 23:07";
shapes = (
{
closed = 1;
nodes = (
(399,-208,o),
(452,-28,o),
(452,52,cs),
(452,111,o),
(433,177,o),
(397,217,c),
(388,216,l),
(415,43,l),
(395,-97,o),
(229,-167,o),
(118,-167,cs),
(89,-167,l),
(89,-180,l),
(117,-197,o),
(161,-208,o),
(196,-208,cs)
);
},
{
closed = 1;
nodes = (
(398,1,o),
(430,20,o),
(436,41,c),
(397,217,l),
(383,235,o),
(360,230,o),
(337,230,cs),
(289,230,o),
(258,132,o),
(258,92,cs),
(258,52,o),
(282,1,o),
(340,1,cs)
);
}
);
width = 600;
},
{
associatedMasterId = m01;
background = {
shapes = (
{
closed = 1;
nodes = (
(294,164,o),
(287,157,qs),
(275,146,o),
(265,128,o),
(261,103,o),
(261,89,o),
(261,78,q),
(263,64,o),
(268,47,o),
(276,36,q),
(288,28,o),
(299,20,q),
(312,13,o),
(320,9,o),
(345,5,o),
(356,3,qs),
(357,3,o),
(365,3,o),
(371,4,q),
(402,6,l),
(402,-1,o),
(402,-9,q),
(397,-25,o),
(394,-38,qs),
(386,-67,l),
(376,-92,o),
(363,-114,o),
(342,-142,q),
(328,-162,o),
(306,-183,qs),
(298,-190,o),
(281,-203,qs),
(269,-212,o),
(243,-231,o),
(229,-241,o),
(202,-255,o),
(189,-260,o),
(174,-266,o),
(165,-268,o),
(149,-273,o),
(136,-274,o),
(126,-275,o),
(123,-278,q),
(126,-288,o),
(137,-293,qs),
(140,-294,o),
(147,-296,q),
(162,-296,o),
(186,-299,q),
(201,-297,o),
(218,-292,o),
(242,-284,o),
(260,-278,o),
(286,-263,o),
(304,-253,o),
(317,-241,qs),
(335,-224,o),
(343,-215,qs),
(348,-210,o),
(366,-186,qs),
(375,-176,o),
(388,-151,qs),
(406,-116,o),
(415,-101,q),
(423,-82,o),
(428,-54,qs),
(430,-39,o),
(436,-10,qs),
(437,-4,o),
(440,10,q),
(440,24,o),
(440,37,qs),
(440,63,ls),
(440,83,o),
(426,118,o),
(412,142,qs),
(407,150,o),
(395,162,o),
(388,166,qs),
(370,177,o),
(347,180,o),
(338,180,qs),
(326,180,o),
(314,175,qs),
(302,170,o)
);
},
{
closed = 1;
nodes = (
(375,102,l),
(375,79,l),
(365,65,l),
(346,63,l),
(326,76,l),
(324,103,l),
(344,120,l),
(363,116,l)
);
}
);
};
layerId = "FEFE8739-EA78-457F-94ED-A91633CE3431";
name = "27 Sep 23 at 23:14";
shapes = (
{
closed = 1;
nodes = (
(399,-208,o),
(452,-28,o),
(452,52,cs),
(452,167,o),
(401,230,o),
(352,230,cs),
(297,230,o),
(258,157,o),
(258,92,cs),
(258,32,o),
(282,0,o),
(340,0,cs),
(383,0,o),
(409,10,o),
(425,28,c),
(415,45,l),
(396,-97,o),
(230,-167,o),
(118,-167,cs),
(89,-167,l),
(89,-180,l),
(117,-197,o),
(161,-208,o),
(196,-208,cs)
);
},
{
closed = 1;
nodes = (
(414,87,l),
(402,80,o),
(375,73,o),
(352,73,cs),
(327,73,o),
(306,80,o),
(306,101,cs),
(306,130,o),
(328,150,o),
(352,150,cs),
(387,150,o),
(406,96,o),
(409,61,c)
);
}
);
width = 600;
}
);
unicode = 1608;
}
{
glyphname = "alefMaksura-ar";
kernRight = "waw-yeh";
layers = (
{
anchors = (
{
name = bottom;
pos = (613,-299);
},
{
name = top;
pos = (227,63);
}
);
background = {
shapes = (
{
closed = 1;
nodes = (
(1041,94,l),
(1018,115,l),
(961,114,l),
(970,99,l),
(1002,95,l),
(1046,84,l),
(1055,48,l),
(1044,-11,l),
(1015,-72,l),
(952,-136,l),
(828,-215,l),
(703,-253,l),
(573,-272,l),
(431,-264,l),
(291,-222,l),
(177,-141,l),
(86,-34,l),
(38,61,l),
(21,154,l),
(62,105,l),
(103,39,l),
(168,-46,l),
(238,-117,l),
(322,-170,l),
(412,-202,l),
(505,-207,l),
(610,-206,l),
(730,-190,l),
(813,-163,l),
(905,-110,l),
(964,-52,l),
(993,-2,l),
(1000,36,l),
(986,59,l),
(961,55,l),
(920,45,l),
(901,69,l),
(901,106,l),
(904,131,l),
(948,160,l),
(1007,167,l),
(1054,152,l),
(1086,134,l),
(1081,96,l)
);
}
);
};
layerId = m01;
shapes = (
{
closed = 1;
nodes = (
(1043,107,l),
(1076,163,o),
(1042,210,o),
(973,210,cs),
(928,210,o),
(888,182,o),
(888,121,cs),
(888,9,o),
(1022,60,o),
(1022,-19,cs),
(1022,-130,o),
(832,-227,o),
(614,-227,cs),
(386,-227,o),
(128,-128,o),
(21,157,c),
(10,153,l),
(118,-163,o),
(379,-279,o),
(613,-279,cs),
(857,-279,o),
(1074,-164,o),
(1074,-19,cs),
(1074,99,o),
(940,66,o),
(940,121,cs),
(940,143,o),
(952,153,o),
(973,153,cs),
(1000,153,o),
(1019,137,o),
(1029,107,c)
);
}
);
width = 1084;
},
{
associatedMasterId = m01;
background = {
shapes = (
{
closed = 1;
nodes = (
(728,94,l),
(705,115,l),
(648,114,l),
(657,99,l),
(689,95,l),
(733,84,l),
(742,48,l),
(731,-11,l),
(702,-72,l),
(639,-136,l),
(515,-215,l),
(390,-253,l),
(260,-272,l),
(118,-264,l),
(-22,-222,l),
(-136,-141,l),
(-227,-34,l),
(-275,61,l),
(-292,154,l),
(-251,105,l),
(-210,39,l),
(-145,-46,l),
(-75,-117,l),
(9,-170,l),
(99,-202,l),
(192,-207,l),
(297,-206,l),
(417,-190,l),
(500,-163,l),
(592,-110,l),
(651,-52,l),
(680,-2,l),
(687,36,l),
(673,59,l),
(648,55,l),
(607,45,l),
(588,69,l),
(588,106,l),
(591,131,l),
(635,160,l),
(694,167,l),
(741,152,l),
(773,134,l),
(768,96,l)
);
}
);
};
layerId = "2AF6B7FF-5D22-4307-832E-2809EC2F6C32";
name = "27 Sep 23 at 17:48";
shapes = (
{
closed = 0;
nodes = (
(735,130,l),
(735,205,o),
(585,207,o),
(585,125,cs),
(585,36,o),
(735,86,o),
(735,-19,cs),
(735,-275,o),
(-85,-443,o),
(-300,154,cs)
);
}
);
width = 600;
},
{
associatedMasterId = m01;
background = {
shapes = (
{
closed = 1;
nodes = (
(728,94,l),
(705,115,l),
(648,114,l),
(657,99,l),
(689,95,l),
(733,84,l),
(742,48,l),
(731,-11,l),
(702,-72,l),
(639,-136,l),
(515,-215,l),
(390,-253,l),
(260,-272,l),
(118,-264,l),
(-22,-222,l),
(-136,-141,l),
(-227,-34,l),
(-275,61,l),
(-292,154,l),
(-251,105,l),
(-210,39,l),
(-145,-46,l),
(-75,-117,l),
(9,-170,l),
(99,-202,l),
(192,-207,l),
(297,-206,l),
(417,-190,l),
(500,-163,l),
(592,-110,l),
(651,-52,l),
(680,-2,l),
(687,36,l),
(673,59,l),
(648,55,l),
(607,45,l),
(588,69,l),
(588,106,l),
(591,131,l),
(635,160,l),
(694,167,l),
(741,152,l),
(773,134,l),
(768,96,l)
);
}
);
};
layerId = "2C780F3A-2CA0-4A17-8D25-1DEC7EA84E94";
name = "27 Sep 23 at 17:49";
shapes = (
{
closed = 1;
nodes = (
(-101,-477,o),
(761,-308,o),
(761,-19,cs),
(761,99,o),
(627,66,o),
(627,121,cs),
(627,173,o),
(694,159,o),
(720,99,c),
(767,134,l),
(733,234,o),
(575,241,o),
(575,121,cs),
(575,9,o),
(709,60,o),
(709,-19,cs),
(709,-244,o),
(-70,-408,o),
(-276,163,c),
(-324,145,l)
);
}
);
width = 600;
}
);
unicode = 1609;
}
{
glyphname = "dammatan-ar";
layers = (
{
anchors = (
{
name = _top;
pos = (138,572);
},
{
name = top;
pos = (138,680);
}
);
background = {
shapes = (
{
closed = 1;
nodes = (
(158,630,q),
(142,643,o),
(142,648,qs),
(142,659,o),
(157,659,qs),
(173,659,o),
(173,643,qs),
(173,639,o)
);
},
{
closed = 1;
nodes = (
(168,685,o),
(144,675,q),
(133,667,l),
(124,656,o),
(124,645,q),
(124,636,o),
(132,627,qs),
(140,617,l),
(131,600,o),
(99,593,q),
(107,606,l),
(109,617,l),
(105,624,l),
(95,628,l),
(87,629,l),
(74,622,l),
(82,620,l),
(90,614,l),
(89,609,l),
(85,599,l),
(83,595,l),
(78,586,l),
(96,575,o),
(118,581,q),
(140,590,l),
(155,597,o),
(161,602,q),
(175,612,ls),
(193,625,o),
(193,638,qs),
(193,657,o)
);
}
);
};
layerId = m01;
shapes = (
{
closed = 1;
nodes = (
(160,572,o),
(213,604,o),
(213,638,cs),
(213,659,o),
(201,680,o),
(178,680,cs),
(155,680,o),
(136,662,o),
(136,639,cs),
(136,627,o),
(143,615,o),
(155,607,c),
(122,592,o),
(104,588,o),
(67,587,c),
(67,576,l),
(79,573,o),
(91,572,o),
(104,572,cs)
);
},
{
closed = 1;
nodes = (
(91,587,o),
(107,605,o),
(107,622,cs),
(107,633,o),
(99,639,o),
(88,639,cs),
(81,639,o),
(73,637,o),
(63,632,c),
(65,624,l),
(70,626,o),
(75,627,o),
(78,627,cs),
(84,627,o),
(87,624,o),
(87,619,cs),
(87,608,o),
(80,597,o),
(67,587,c),
(81,582,l)
);
},
{
closed = 1;
nodes = (
(161,625,o),
(155,631,o),
(155,642,cs),
(155,650,o),
(165,656,o),
(173,656,cs),
(184,656,o),
(192,647,o),
(192,639,cs),
(192,632,o),
(183,622,o),
(174,619,c)
);
}
);
width = 300;
}
);
unicode = 1612;
}
{
glyphname = "fatha-ar";
layers = (
{
anchors = (
{
name = _top;
pos = (137,679);
},
{
name = top;
pos = (137,735);
}
);
layerId = m01;
shapes = (
{
closed = 1;
nodes = (
(39,686,o),
(124,694,qs),
(195,700,o),
(212,709,qs),
(248,731,l),
(199,726,o),
(150,722,qs),
(80,714,o),
(62,705,qs),
(26,683,l)
);
}
);
width = 300;
}
);
unicode = 1614;
}
{
glyphname = "damma-ar";
layers = (
{
anchors = (
{
name = _top;
pos = (140,559);
},
{
name = top;
pos = (140,693);
}
);
layerId = m01;
shapes = (
{
closed = 1;
nodes = (
(78,573,o),
(90,572,o),
(104,572,cs),
(159,572,o),
(213,604,o),
(213,638,cs),
(213,659,o),
(201,680,o),
(178,680,cs),
(155,680,o),
(135,662,o),
(135,639,cs),
(135,627,o),
(143,615,o),
(155,607,c),
(122,592,o),
(104,588,o),
(66,587,c),
(66,576,l)
);
},
{
closed = 1;
nodes = (
(161,625,o),
(155,631,o),
(155,642,cs),
(155,650,o),
(164,656,o),
(173,656,cs),
(184,656,o),
(192,647,o),
(192,639,cs),
(192,632,o),
(182,622,o),
(174,619,c)
);
}
);
width = 300;
}
);
unicode = 1615;
}
{
glyphname = "kasra-ar";
layers = (
{
anchors = (
{
name = _bottom;
pos = (153,123);
},
{
name = bottom;
pos = (153,51);
}
);
layerId = m01;
shapes = (
{
closed = 1;
nodes = (
(55,66,o),
(140,74,qs),
(211,80,o),
(228,89,qs),
(264,111,l),
(215,106,o),
(166,102,qs),
(96,94,o),
(78,85,qs),
(42,63,l)
);
}
);
width = 300;
}
);
unicode = 1616;
}
{
glyphname = "shadda-ar";
layers = (
{
anchors = (
{
name = _top;
pos = (142,569);
},
{
name = top;
pos = (142,690);
}
);
background = {
shapes = (
{
closed = 1;
nodes = (
(101,588,o),
(120,592,o),
(153,605,cs),
(194,623,o),
(211,632,o),
(200,668,cs),
(197,679,o),
(193,683,o),
(176,681,c),
(179,665,o),
(182,652,o),
(178,646,cs),
(170,638,o),
(164,636,o),
(156,641,cs),
(152,645,o),
(142,670,o),
(131,664,cs),
(125,661,o),
(124,654,o),
(126,646,cs),
(131,632,o),
(131,623,o),
(130,621,cs),
(123,613,o),
(116,613,o),
(107,620,cs),
(98,628,o),
(93,635,o),
(94,643,c),
(85,639,l),
(73,618,o),
(81,605,o),
(95,594,c)
);
}
);
};
layerId = m01;
shapes = (
{
closed = 1;
nodes = (
(129,582,o),
(155,600,o),
(146,642,c),
(135,627,l),
(152,608,o),
(170,606,o),
(192,613,cs),
(212,620,o),
(227,647,o),
(200,690,c),
(186,684,l),
(198,658,o),
(191,638,o),
(174,638,cs),
(160,638,o),
(152,648,o),
(143,667,c),
(120,655,l),
(129,632,o),
(125,612,o),
(105,612,cs),
(90,612,o),
(79,623,o),
(83,648,c),
(76,648,l),
(62,609,o),
(66,582,o),
(100,582,cs)
);
}
);
width = 300;
}
);
unicode = 1617;
}
{
glyphname = "sukun-ar";
layers = (
{
anchors = (
{
name = _top;
pos = (130,623);
},
{
name = top;
pos = (130,789);
}
);
background = {
shapes = (
{
closed = 1;
nodes = (
(137,663,o),
(137,675,q),
(115,652,ls),
(98,635,o),
(98,622,qs),
(98,610,o),
(118,593,o),
(132,593,qs),
(146,593,o),
(166,611,o),
(166,624,qs),
(166,635,o)
);
},
{
closed = 1;
nodes = (
(137,609,o),
(131,609,qs),
(116,609,o),
(116,624,qs),
(116,630,o),
(126,641,o),
(131,647,q),
(137,641,o),
(148,628,o),
(148,622,qs),
(148,617,o)
);
}
);
};
layerId = m01;
shapes = (
{
closed = 1;
nodes = (
(157,638,o),
(179,649,o),
(179,682,cs),
(179,719,o),
(142,732,o),
(134,763,c),
(127,763,l),
(120,741,l),
(130,706,o),
(152,702,o),
(152,680,cs),
(152,669,o),
(142,661,o),
(130,661,cs),
(116,661,o),
(108,671,o),
(108,680,cs),
(108,696,o),
(116,710,o),
(140,722,c),
(138,735,l),
(104,726,o),
(82,704,o),
(82,679,cs),
(82,653,o),
(104,638,o),
(130,638,cs)
);
}
);
width = 300;
}
);
unicode = 1618;
}
{
glyphname = "madda-ar";
layers = (
{
anchors = (
{
name = _top;
pos = (109,688);
},
{
name = top;
pos = (109,753);
}
);
background = {
shapes = (
{
closed = 1;
nodes = (
(195,751,l),
(194,752,o),
(193,753,o),
(192,753,c),
(180,742,o),
(166,734,o),
(149,728,cs),
(128,722,o),
(123,721,o),
(111,721,cs),
(105,721,ls),
(89,721,o),
(76,725,o),
(71,727,cs),
(60,732,l),
(51,735,l),
(45,734,o),
(20,698,o),
(22,692,cs),
(24,688,l),
(25,687,l),
(28,687,l),
(30,690,o),
(32,693,o),
(35,697,cs),
(38,701,o),
(40,704,o),
(43,706,c),
(47,701,o),
(54,698,o),
(65,697,cs),
(74,695,o),
(79,695,o),
(92,695,cs),
(119,695,o),
(140,701,o),
(157,709,cs),
(161,711,o),
(168,715,o),
(178,722,c),
(183,724,o),
(187,728,o),
(191,733,c),
(193,737,o),
(195,740,o),
(195,744,c),
(196,747,l)
);
}
);
};
layerId = m01;
shapes = (
{
closed = 1;
nodes = (
(49,734,l),
(36,721,o),
(28,707,o),
(21,690,c),
(26,688,l),
(33,698,o),
(40,706,o),
(50,712,c),
(37,711,l),
(52,700,o),
(72,695,o),
(94,695,cs),
(134,695,o),
(179,714,o),
(196,750,c),
(192,753,l),
(167,731,o),
(137,720,o),
(108,720,cs),
(89,720,o),
(71,725,o),
(55,734,c)
);
}
);
width = 300;
}
);
unicode = 1619;
}
{
glyphname = "hamzaabove-ar";
layers = (
{
anchors = (
{
name = _top;
pos = (71,602);
},
{
name = top;
pos = (71,787);
}
);
background = {
shapes = (
{
closed = 1;
nodes = (
(59,686,q),
(69,684,o),
(80,682,qs),
(90,682,l),
(101,682,ls),
(103,682,o),
(111,680,q),
(110,677,o),
(103,676,qs),
(95,674,l),
(72,672,l),
(62,672,o),
(42,676,o),
(30,682,o),
(26,688,q),
(21,704,l),
(24,708,o),
(31,716,o),
(45,724,o),
(55,731,q),
(35,740,o),
(44,752,qs),
(51,759,l),
(64,767,l),
(88,775,o),
(108,771,q),
(108,754,l),
(92,753,l),
(79,752,o),
(68,749,o),
(72,743,q),
(75,742,l),
(78,741,o),
(89,739,q),
(100,737,o),
(84,722,q),
(71,717,l),
(60,710,o),
(50,705,o),
(42,699,q),
(43,689,o)
);
}
);
};
layerId = m01;
shapes = (
{
closed = 1;
nodes = (
(90,630,l),
(60,630,o),
(32,644,o),
(32,660,cs),
(32,676,o),
(66,689,o),
(89,695,cs),
(99,698,o),
(101,702,o),
(101,710,cs),
(101,718,o),
(96,722,o),
(89,722,cs),
(70,723,o),
(55,727,o),
(55,734,cs),
(55,744,o),
(86,757,o),
(116,751,cs),
(125,748,o),
(130,751,o),
(134,757,cs),
(138,765,o),
(134,771,o),
(124,773,cs),
(81,782,o),
(31,767,o),
(31,734,cs),
(31,717,o),
(47,707,o),
(67,702,c),
(70,714,l),
(38,705,o),
(7,689,o),
(7,661,cs),
(7,636,o),
(32,625,o),
(90,625,c)
);
}
);
width = 300;
}
);
unicode = 1620;
}
{
glyphname = "hamzabelow-ar";
layers = (
{
anchors = (
{
name = _bottom;
pos = (71,211);
},
{
name = bottom;
pos = (71,33);
}
);
layerId = m01;
shapes = (
{
closed = 1;
nodes = (
(90,50,l),
(60,50,o),
(32,64,o),
(32,80,cs),
(32,96,o),
(66,109,o),
(89,115,cs),
(99,118,o),
(101,122,o),
(101,130,cs),
(101,138,o),
(96,142,o),
(89,142,cs),
(70,143,o),
(55,147,o),
(55,154,cs),
(55,164,o),
(86,177,o),
(116,171,cs),
(125,168,o),
(130,171,o),
(134,177,cs),
(138,185,o),
(134,191,o),
(124,193,cs),
(81,202,o),
(31,187,o),
(31,154,cs),
(31,137,o),
(47,127,o),
(67,122,c),
(70,134,l),
(38,125,o),
(7,109,o),
(7,81,cs),
(7,56,o),
(32,45,o),
(90,45,c)
);
}
);
width = 300;
}
);
unicode = 1621;
}
{
glyphname = "alefbelow-ar";
layers = (
{
anchors = (
{
name = _bottom;
pos = (143,157);
},
{
name = bottom;
pos = (143,-9);
}
);
layerId = m01;
shapes = (
{
closed = 1;
nodes = (
(153,3,l),
(159,23,ls),
(164,39,o),
(166,52,o),
(166,68,cs),
(166,75,ls),
(166,95,o),
(161,112,o),
(153,130,cs),
(143,145,l),
(130,128,l),
(136,120,ls),
(144,104,o),
(147,92,o),
(147,75,cs),
(147,3,l)
);
},
{
closed = 1;
nodes = (
(151,103,l),
(143,145,l),
(139,145,l),
(125,135,o),
(120,125,o),
(120,113,cs),
(120,101,o),
(132,84,o),
(149,68,c)
);
}
);
width = 300;
}
);
unicode = 1622;
}
{
glyphname = "zero-ar";
layers = (
{
layerId = m01;
shapes = (
{
closed = 1;
nodes = (
(114,242,l),
(184,171,l),
(112,100,l),
(42,170,l)
);
}
);
width = 226;
}
);
metricRight = "=|";
unicode = 1632;
}
{
glyphname = "one-ar";
layers = (
{
layerId = m01;
shapes = (
{
closed = 1;
nodes = (
(121,315,o),
(146,196,o),
(146,80,c),
(146,32,o),
(138,5,o),
(121,1,c),
(121,116,o),
(89,249,o),
(27,402,c),
(59,446,l),
(64,453,o),
(68,452,o),
(72,443,c)
);
}
);
width = 173;
}
);
metricRight = "=|";
unicode = 1633;
}
{
glyphname = "two-ar";
layers = (
{
layerId = m01;
shapes = (
{
closed = 1;
nodes = (
(138,211,o),
(146,142,o),
(146,79,c),
(146,31,o),
(138,5,o),
(121,1,c),
(121,116,o),
(89,250,o),
(27,402,c),
(59,446,l),
(67,457,o),
(71,446,o),
(75,435,c),
(80,421,o),
(94,386,o),
(96,382,c),
(106,358,o),
(131,346,o),
(174,346,c),
(223,346,o),
(251,374,o),
(256,431,c),
(258,446,l),
(285,442,l),
(284,425,l),
(281,330,o),
(242,283,o),
(163,283,c),
(147,283,o),
(135,284,o),
(121,286,c)
);
}
);
width = 312;
}
);
metricRight = "=|";
unicode = 1634;
}
{
glyphname = "three-ar";
layers = (
{
layerId = m01;
shapes = (
{
closed = 1;
nodes = (
(138,211,o),
(146,142,o),
(146,79,c),
(146,31,o),
(138,5,o),
(121,1,c),
(121,117,o),
(90,250,o),
(27,402,c),
(59,446,l),
(64,453,o),
(69,452,o),
(72,443,c),
(79,422,o),
(85,407,o),
(90,394,c),
(102,362,o),
(123,346,o),
(155,346,c),
(187,346,o),
(203,364,o),
(205,400,c),
(207,434,l),
(238,433,l),
(239,400,l),
(241,364,o),
(252,346,o),
(274,346,c),
(306,346,o),
(322,372,o),
(322,426,c),
(322,442,l),
(352,440,l),
(352,416,l),
(352,330,o),
(327,286,o),
(275,286,c),
(249,286,o),
(229,299,o),
(215,322,c),
(198,297,o),
(173,284,o),
(141,284,c),
(135,284,o),
(128,285,o),
(121,286,c)
);
}
);
width = 379;
}
);
metricRight = "=|";
unicode = 1635;
}
{
glyphname = "four-ar";
layers = (
{
layerId = m01;
shapes = (
{
closed = 1;
nodes = (
(31,112,o),
(64,153,o),
(127,197,c),
(66,244,l),
(35,268,o),
(27,280,o),
(27,298,c),
(27,318,o),
(37,338,o),
(58,357,c),
(79,375,o),
(119,397,o),
(179,422,c),
(185,425,o),
(190,426,o),
(194,426,c),
(199,426,o),
(201,423,o),
(201,418,c),
(201,416,o),
(201,414,o),
(201,413,c),
(195,386,l),
(192,374,o),
(189,360,o),
(187,346,c),
(161,345,o),
(128,338,o),
(89,325,c),
(81,322,o),
(78,319,o),
(78,314,c),
(78,310,o),
(83,303,o),
(92,295,c),
(151,249,l),
(168,234,o),
(178,222,o),
(178,209,c),
(178,195,o),
(167,181,o),
(147,165,c),
(127,150,o),
(105,130,o),
(81,106,c),
(75,100,o),
(73,95,o),
(73,90,c),
(73,86,o),
(78,82,o),
(87,80,c),
(103,76,o),
(123,74,o),
(144,74,c),
(172,74,o),
(205,78,o),
(243,83,c),
(241,25,l),
(241,15,o),
(237,10,o),
(230,10,c),
(211,8,o),
(193,7,o),
(176,7,c),
(81,7,o),
(31,30,o),
(31,71,c)
);
}
);
width = 270;
}
);
metricRight = "=|";
unicode = 1636;
}
{
glyphname = "five-ar";
layers = (
{
layerId = m01;
shapes = (
{
closed = 1;
nodes = (
(211,72,o),
(245,97,o),
(245,147,c),
(245,196,o),
(210,250,o),
(144,312,c),
(83,242,o),
(53,186,o),
(53,142,c),
(53,95,o),
(84,72,o),
(145,72,c)
);
},
{
closed = 1;
nodes = (
(62,3,o),
(21,49,o),
(21,138,c),
(21,198,o),
(51,264,o),
(110,339,c),
(84,358,l),
(125,429,l),
(229,331,o),
(281,238,o),
(281,147,c),
(281,51,o),
(235,3,o),
(144,3,c)
);
}
);
width = 302;
}
);
metricRight = "=|";
unicode = 1637;
}
{
glyphname = "six-ar";
layers = (
{
layerId = m01;
shapes = (
{
closed = 1;
nodes = (
(284,225,o),
(306,103,o),
(348,60,c),
(313,2,l),
(292,23,o),
(275,58,o),
(263,105,c),
(251,154,o),
(247,238,o),
(245,361,c),
(213,347,o),
(178,341,o),
(140,341,c),
(107,341,o),
(73,346,o),
(36,355,c),
(27,358,o),
(22,383,o),
(21,431,c),
(21,438,o),
(25,441,o),
(30,439,c),
(71,423,o),
(120,416,o),
(177,416,c),
(209,416,o),
(243,418,o),
(280,423,c)
);
}
);
width = 369;
}
);
metricRight = "=|";
unicode = 1638;
}
{
glyphname = "seven-ar";
layers = (
{
layerId = m01;
shapes = (
{
closed = 1;
nodes = (
(52,450,l),
(52,452,o),
(53,452,o),
(54,452,c),
(56,452,o),
(57,450,o),
(59,448,c),
(101,374,o),
(138,266,o),
(168,128,c),
(197,254,o),
(236,361,o),
(285,450,c),
(287,453,o),
(288,454,o),
(289,454,c),
(290,454,o),
(291,454,o),
(291,451,c),
(317,388,l),
(245,262,o),
(200,134,o),
(180,2,c),
(157,2,l),
(137,135,o),
(95,263,o),
(23,387,c)
);
}
);
width = 340;
}
);
metricRight = "=|";
unicode = 1639;
}
{
glyphname = "eight-ar";
layers = (
{
layerId = m01;
shapes = (
{
closed = 1;
nodes = (
(23,66,l),
(95,190,o),
(137,318,o),
(157,451,c),
(180,451,l),
(200,320,o),
(245,191,o),
(317,66,c),
(291,2,l),
(291,0,o),
(290,-1,o),
(289,-1,c),
(288,-1,o),
(287,1,o),
(285,4,c),
(236,92,o),
(197,199,o),
(168,325,c),
(138,186,o),
(101,80,o),
(59,6,c),
(57,2,o),
(56,1,o),
(54,1,c),
(53,1,o),
(52,2,o),
(52,2,c)
);
}
);
width = 340;
}
);
metricRight = "=|";
unicode = 1640;
}
{
glyphname = "nine-ar";
layers = (
{
layerId = m01;
shapes = (
{
closed = 1;
nodes = (
(156,224,o),
(134,221,o),
(114,221,c),
(55,221,o),
(27,249,o),
(27,303,c),
(27,374,o),
(65,449,o),
(119,449,c),
(191,449,o),
(211,372,o),
(216,280,c),
(224,158,o),
(243,83,o),
(271,56,c),
(241,1,l),
(227,13,o),
(216,29,o),
(207,51,c),
(193,85,o),
(185,145,o),
(182,230,c)
);
},
{
closed = 1;
nodes = (
(58,287,o),
(87,282,o),
(115,282,c),
(132,282,o),
(152,284,o),
(175,289,c),
(171,345,o),
(158,382,o),
(112,382,c),
(79,382,o),
(58,346,o),
(58,314,c)
);
}
);
width = 298;
}
);
metricRight = "=|";
unicode = 1641;
}
{
glyphname = "percent-ar";
layers = (
{
layerId = m01;
shapes = (
{
closed = 1;
nodes = (
(245,58,o),
(226,78,o),
(226,102,c),
(226,126,o),
(245,145,o),
(269,145,c),
(293,145,o),
(312,126,o),
(312,102,c),
(312,78,o),
(293,58,o),
(269,58,c)
);
},
{
closed = 1;
nodes = (
(65,376,o),
(45,396,o),
(45,421,c),
(45,445,o),
(65,466,o),
(90,466,c),
(115,466,o),
(135,445,o),
(135,421,c),
(135,396,o),
(115,376,o),
(90,376,c)
);
},
{
closed = 1;
nodes = (
(275,529,l),
(325,529,l),
(84,0,l),
(30,0,l)
);
}
);
width = 355;
}
);
unicode = 1642;
}
{
glyphname = "behDotless-ar";
layers = (
{
anchors = (
{
name = bottom;
pos = (328,-54);
},
{
name = ring;
pos = (295,0);
},
{
name = top;
pos = (307,228);
}
);
background = {
shapes = (
{
closed = 1;
nodes = (
(393,649,o),
(375,647,q),
(341,649,o),
(246,625,o),
(234,614,q),
(193,594,o),
(116,530,o),
(100,510,qs),
(80,485,o),
(44,414,o),
(21,335,o),
(17,295,o),
(17,250,qs),
(17,223,o),
(26,162,o),
(33,145,qs),
(45,113,o),
(65,86,o),
(95,62,qs),
(116,44,o),
(135,36,qs),
(146,31,o),
(220,8,o),
(243,4,o),
(311,-3,qs),
(344,-6,o),
(358,-6,qs),
(371,-5,o),
(398,-5,o),
(415,-5,q),
(473,0,o),
(518,4,o),
(561,22,q),
(570,30,o),
(587,42,q),
(600,55,o),
(609,105,o),
(609,121,qs),
(609,137,o),
(607,152,o),
(604,166,q),
(595,187,o),
(574,211,o),
(546,222,o),
(537,222,qs),
(513,222,o),
(481,191,o),
(481,167,qs),
(481,150,o),
(492,111,o),
(507,95,qs),
(518,83,o),
(518,80,qs),
(518,71,o),
(491,60,o),
(460,52,o),
(436,52,q),
(417,49,o),
(378,49,qs),
(362,49,o),
(325,50,o),
(282,54,qs),
(243,60,o),
(204,68,o),
(185,74,qs),
(154,84,o),
(126,108,qs),
(91,136,o),
(83,169,qs),
(70,220,o),
(68,250,qs),
(66,273,o),
(67,308,o),
(84,374,o),
(94,407,qs),
(114,465,o),
(159,506,qs),
(206,547,o),
(258,577,q),
(290,588,o),
(320,598,q),
(341,601,o),
(367,602,q),
(398,594,o),
(419,573,o),
(433,548,qs),
(442,528,o),
(437,492,o),
(447,470,q),
(448,466,o),
(456,466,qs),
(466,466,o),
(490,486,o),
(494,507,o),
(501,524,o),
(501,542,qs),
(500,573,o),
(491,594,o),
(472,610,q),
(470,622,o)
);
}
);
};
layerId = m01;
shapes = (
{
closed = 1;
nodes = (
(329,51,l),
(181,51,o),
(52,137,o),
(52,289,cs),
(52,482,o),
(187,582,o),
(328,582,cs),
(380,582,o),
(433,567,o),
(479,537,c),
(484,545,l),
(435,582,o),
(376,599,o),
(317,599,cs),
(165,599,o),
(10,485,o),
(10,289,cs),
(10,114,o),
(149,0,o),
(329,0,c)
);
},
{
closed = 1;
nodes = (
(542,0,o),
(605,73,o),
(605,133,cs),
(605,174,o),
(575,208,o),
(543,208,cs),
(505,208,o),
(485,176,o),
(485,143,cs),
(485,110,o),
(506,77,o),
(549,77,c),
(519,90,l),
(486,67,o),
(427,51,o),
(329,51,c),
(329,0,l)
);
}
);
width = 621;
},
{
associatedMasterId = m01;
background = {
shapes = (
{
closed = 1;
nodes = (
(403,649,o),
(385,647,q),
(351,649,o),
(256,625,o),
(244,614,q),
(203,594,o),
(126,530,o),
(110,510,qs),
(90,485,o),
(54,414,o),
(31,335,o),
(27,295,o),
(27,250,qs),
(27,223,o),
(36,162,o),
(43,145,qs),
(55,113,o),
(75,86,o),
(105,62,qs),
(126,44,o),
(145,36,qs),
(156,31,o),
(230,8,o),
(253,4,o),
(321,-3,qs),
(354,-6,o),
(368,-6,qs),
(381,-5,o),
(408,-5,o),
(425,-5,q),
(483,0,o),
(528,4,o),
(571,22,q),
(580,30,o),
(597,42,q),
(610,55,o),
(619,105,o),
(619,121,qs),
(619,137,o),
(617,152,o),
(614,166,q),
(605,187,o),
(584,211,o),
(556,222,o),
(547,222,qs),
(523,222,o),
(491,191,o),
(491,167,qs),
(491,150,o),
(502,111,o),
(517,95,qs),
(528,83,o),
(528,80,qs),
(528,71,o),
(501,60,o),
(470,52,o),
(446,52,q),
(427,49,o),
(388,49,qs),
(372,49,o),
(335,50,o),
(292,54,qs),
(253,60,o),
(214,68,o),
(195,74,qs),
(164,84,o),
(136,108,qs),
(101,136,o),
(93,169,qs),
(80,220,o),
(78,250,qs),
(76,273,o),
(77,308,o),
(94,374,o),
(104,407,qs),
(124,465,o),
(169,506,qs),
(216,547,o),
(268,577,q),
(300,588,o),
(330,598,q),
(351,601,o),
(377,602,q),
(408,594,o),
(429,573,o),
(443,548,qs),
(452,528,o),
(447,492,o),
(457,470,q),
(458,466,o),
(466,466,qs),
(476,466,o),
(500,486,o),
(504,507,o),
(511,524,o),
(511,542,qs),
(510,573,o),
(501,594,o),
(482,610,q),
(480,622,o)
);
}
);
};
layerId = "37C68E92-69B6-4904-AADA-7397983CCB55";
name = "27 Sep 23 at 16:19";
shapes = (
{
closed = 1;
nodes = (
(339,52,ls),
(196,52,o),
(72,138,o),
(72,289,cs),
(72,482,o),
(202,582,o),
(338,582,cs),
(390,582,o),
(443,567,o),
(489,537,c),
(494,545,l),
(445,582,o),
(386,599,o),
(327,599,cs),
(175,599,o),
(20,485,o),
(20,289,cs),
(20,114,o),
(159,0,o),
(339,0,cs),
(569,0,l),
(570,52,l)
);
},
{
closed = 1;
nodes = (
(590,52,l),
(478,52,l),
(473,0,l),
(486,-24,o),
(510,-37,o),
(533,-37,cs),
(562,-37,o),
(590,-15,o),
(590,37,c)
);
}
);
width = 610;
},
{
associatedMasterId = m01;
background = {
shapes = (
{
closed = 1;
nodes = (
(403,649,o),
(385,647,q),
(351,649,o),
(256,625,o),
(244,614,q),
(203,594,o),
(126,530,o),
(110,510,qs),
(90,485,o),
(54,414,o),
(31,335,o),
(27,295,o),
(27,250,qs),
(27,223,o),
(36,162,o),
(43,145,qs),
(55,113,o),
(75,86,o),
(105,62,qs),
(126,44,o),
(145,36,qs),
(156,31,o),
(230,8,o),
(253,4,o),
(321,-3,qs),
(354,-6,o),
(368,-6,qs),
(381,-5,o),
(408,-5,o),
(425,-5,q),
(483,0,o),
(528,4,o),
(571,22,q),
(580,30,o),
(597,42,q),
(610,55,o),
(619,105,o),
(619,121,qs),
(619,137,o),
(617,152,o),
(614,166,q),
(605,187,o),
(584,211,o),
(556,222,o),
(547,222,qs),
(523,222,o),
(491,191,o),
(491,167,qs),
(491,150,o),
(502,111,o),
(517,95,qs),
(528,83,o),
(528,80,qs),
(528,71,o),
(501,60,o),
(470,52,o),
(446,52,q),
(427,49,o),
(388,49,qs),
(372,49,o),
(335,50,o),
(292,54,qs),
(253,60,o),
(214,68,o),
(195,74,qs),
(164,84,o),
(136,108,qs),
(101,136,o),
(93,169,qs),
(80,220,o),
(78,250,qs),
(76,273,o),
(77,308,o),
(94,374,o),
(104,407,qs),
(124,465,o),
(169,506,qs),
(216,547,o),
(268,577,q),
(300,588,o),
(330,598,q),
(351,601,o),
(377,602,q),
(408,594,o),
(429,573,o),
(443,548,qs),
(452,528,o),
(447,492,o),
(457,470,q),
(458,466,o),
(466,466,qs),
(476,466,o),
(500,486,o),
(504,507,o),
(511,524,o),
(511,542,qs),
(510,573,o),
(501,594,o),
(482,610,q),
(480,622,o)
);
}
);
};
layerId = "DEFD117B-21DF-4087-A4AB-5648C24EFD6E";
name = "27 Sep 23 at 16:20";
shapes = (
{
closed = 1;
nodes = (
(339,52,l),
(196,52,o),
(72,138,o),
(72,289,cs),
(72,482,o),
(202,582,o),
(338,582,cs),
(390,582,o),
(443,567,o),
(489,537,c),
(494,545,l),
(445,582,o),
(386,599,o),
(327,599,cs),
(175,599,o),
(20,485,o),
(20,289,cs),
(20,114,o),
(159,0,o),
(339,0,c)
);
},
{
closed = 0;
nodes = (
(339,0,l),
(697,0,o),
(645,228,o),
(530,228,cs),
(432,228,o),
(424,77,o),
(536,77,cs)
);
}
);
width = 610;
},
{
associatedMasterId = m01;
background = {
shapes = (
{
closed = 1;
nodes = (
(403,649,o),
(385,647,q),
(351,649,o),
(256,625,o),
(244,614,q),
(203,594,o),
(126,530,o),
(110,510,qs),
(90,485,o),
(54,414,o),
(31,335,o),
(27,295,o),
(27,250,qs),
(27,223,o),
(36,162,o),
(43,145,qs),
(55,113,o),
(75,86,o),
(105,62,qs),
(126,44,o),
(145,36,qs),
(156,31,o),
(230,8,o),
(253,4,o),
(321,-3,qs),
(354,-6,o),
(368,-6,qs),
(381,-5,o),
(408,-5,o),
(425,-5,q),
(483,0,o),
(528,4,o),
(571,22,q),
(580,30,o),
(597,42,q),
(610,55,o),
(619,105,o),
(619,121,qs),
(619,137,o),
(617,152,o),
(614,166,q),
(605,187,o),
(584,211,o),
(556,222,o),
(547,222,qs),
(523,222,o),
(491,191,o),
(491,167,qs),
(491,150,o),
(502,111,o),
(517,95,qs),
(528,83,o),
(528,80,qs),
(528,71,o),
(501,60,o),
(470,52,o),
(446,52,q),
(427,49,o),
(388,49,qs),
(372,49,o),
(335,50,o),
(292,54,qs),
(253,60,o),
(214,68,o),
(195,74,qs),
(164,84,o),
(136,108,qs),
(101,136,o),
(93,169,qs),
(80,220,o),
(78,250,qs),
(76,273,o),
(77,308,o),
(94,374,o),
(104,407,qs),
(124,465,o),
(169,506,qs),
(216,547,o),
(268,577,q),
(300,588,o),
(330,598,q),
(351,601,o),
(377,602,q),
(408,594,o),
(429,573,o),
(443,548,qs),
(452,528,o),
(447,492,o),
(457,470,q),
(458,466,o),
(466,466,qs),
(476,466,o),
(500,486,o),
(504,507,o),
(511,524,o),
(511,542,qs),
(510,573,o),
(501,594,o),
(482,610,q),
(480,622,o)
);
}
);
};
layerId = "AF21928E-51E3-4C28-951F-E96DA429801C";
name = "27 Sep 23 at 16:21";
shapes = (
{
closed = 1;
nodes = (
(339,52,l),
(196,52,o),
(72,138,o),
(72,289,cs),
(72,482,o),
(202,582,o),
(338,582,cs),
(390,582,o),
(443,567,o),
(489,537,c),
(494,545,l),
(445,582,o),
(386,599,o),
(327,599,cs),
(175,599,o),
(20,485,o),
(20,289,cs),
(20,114,o),
(159,0,o),
(339,0,c)
);
},
{
closed = 1;
nodes = (
(493,129,o),
(497,176,o),
(530,176,cs),
(581,176,o),
(608,52,o),
(339,52,c),
(339,0,l),
(697,0,o),
(645,228,o),
(530,228,cs),
(432,228,o),
(411,64,o),
(568,77,c),
(568,129,l)
);
}
);
width = 610;
}
);
unicode = 1646;
}
{
glyphname = "qafDotless-ar";
kernRight = "middle-reh";
layers = (
{
anchors = (
{
name = bottom;
pos = (685,-168);
},
{
name = top;
pos = (625,272);
}
);
background = {
shapes = (
{
closed = 1;
nodes = (
(929,-4,qs),
(936,14,o),
(936,35,qs),
(938,66,l),
(937,78,o),
(934,91,qs),
(932,104,o),
(921,136,o),
(898,145,q),
(869,151,o),
(847,145,q),
(832,138,ls),
(808,126,o),
(799,95,q),
(794,69,l),
(797,28,o),
(870,28,o),
(873,28,qs),
(880,28,o),
(886,18,qs),
(891,10,o),
(888,-3,qs),
(885,-15,o),
(880,-29,q),
(875,-47,o),
(864,-65,qs),
(850,-88,o),
(834,-114,q),
(821,-132,o),
(801,-157,qs),
(778,-186,o),
(750,-209,q),
(725,-236,o),
(695,-257,qs),
(666,-275,o),
(646,-289,q),
(615,-306,o),
(551,-324,o),
(502,-324,qs),
(442,-324,o),
(395,-306,qs),
(365,-295,o),
(315,-256,o),
(271,-219,qs),
(230,-186,o),
(185,-147,o),
(169,-132,o),
(141,-103,qs),
(139,-101,o),
(128,-88,qs),
(121,-80,o),
(117,-78,o),
(107,-72,o),
(106,-72,qs),
(103,-72,o),
(104,-77,o),
(106,-81,qs),
(106,-82,o),
(112,-90,o),
(118,-103,o),
(125,-114,qs),
(129,-121,o),
(139,-135,qs),
(152,-154,o),
(164,-169,qs),
(171,-178,o),
(184,-193,qs),
(193,-204,o),
(204,-217,qs),
(210,-224,o),
(230,-242,qs),
(236,-246,o),
(248,-258,qs),
(266,-275,o),
(273,-279,q),
(292,-294,o),
(311,-310,qs),
(324,-320,o),
(338,-330,qs),
(363,-348,o),
(394,-359,qs),
(447,-379,o),
(509,-379,qs),
(563,-379,o),
(607,-366,qs),
(644,-355,o),
(680,-332,qs),
(708,-315,o),
(742,-285,qs),
(784,-250,o),
(813,-214,qs),
(831,-192,o),
(862,-147,qs),
(868,-137,o),
(877,-122,qs),
(889,-102,o),
(896,-87,qs),
(905,-66,o),
(908,-60,o),
(920,-34,q),
(925,-12,o)
);
},
{
closed = 1;
nodes = (
(872,106,ls),
(887,104,o),
(895,90,q),
(909,73,o),
(888,66,qs),
(873,62,o),
(855,62,q),
(828,59,o),
(828,81,qs),
(830,104,o),
(858,110,q)
);
}
);
};
layerId = m01;
shapes = (
{
closed = 1;
nodes = (
(625,-199,o),
(735,44,o),
(735,122,cs),
(735,192,o),
(685,233,o),
(630,233,cs),
(560,233,o),
(518,177,o),
(518,120,cs),
(518,64,o),
(557,7,o),
(643,0,c),
(637,12,l),
(574,-93,o),
(464,-147,o),
(339,-147,cs),
(158,-147,o),
(67,-21,o),
(23,157,c),
(10,153,l),
(51,-45,o),
(146,-199,o),
(339,-199,cs)
);
},
{
closed = 1;
nodes = (
(673,51,l),
(604,53,o),
(574,92,o),
(574,127,cs),
(574,155,o),
(595,181,o),
(630,181,cs),
(658,181,o),
(676,153,o),
(676,117,cs),
(676,93,o),
(667,72,o),
(653,41,c)
);
}
);
width = 755;
},
{
associatedMasterId = m01;
background = {
shapes = (
{
closed = 1;
nodes = (
(973,-4,qs),
(980,14,o),
(980,35,qs),
(982,66,l),
(981,78,o),
(978,91,qs),
(976,104,o),
(965,136,o),
(942,145,q),
(913,151,o),
(891,145,q),
(876,138,ls),
(852,126,o),
(843,95,q),
(838,69,l),
(841,28,o),
(914,28,o),
(917,28,qs),
(924,28,o),
(930,18,qs),
(935,10,o),
(932,-3,qs),
(929,-15,o),
(924,-29,q),
(919,-47,o),
(908,-65,qs),
(894,-88,o),
(878,-114,q),
(865,-132,o),
(845,-157,qs),
(822,-186,o),
(794,-209,q),
(769,-236,o),
(739,-257,qs),
(710,-275,o),
(690,-289,q),
(659,-306,o),
(595,-324,o),
(546,-324,qs),
(486,-324,o),
(439,-306,qs),
(409,-295,o),
(359,-256,o),
(315,-219,qs),
(274,-186,o),
(229,-147,o),
(213,-132,o),
(185,-103,qs),
(183,-101,o),
(172,-88,qs),
(165,-80,o),
(161,-78,o),
(151,-72,o),
(150,-72,qs),
(147,-72,o),
(148,-77,o),
(150,-81,qs),
(150,-82,o),
(156,-90,o),
(162,-103,o),
(169,-114,qs),
(173,-121,o),
(183,-135,qs),
(196,-154,o),
(208,-169,qs),
(215,-178,o),
(228,-193,qs),
(237,-204,o),
(248,-217,qs),
(254,-224,o),
(274,-242,qs),
(280,-246,o),
(292,-258,qs),
(310,-275,o),
(317,-279,q),
(336,-294,o),
(355,-310,qs),
(368,-320,o),
(382,-330,qs),
(407,-348,o),
(438,-359,qs),
(491,-379,o),
(553,-379,qs),
(607,-379,o),
(651,-366,qs),
(688,-355,o),
(724,-332,qs),
(752,-315,o),
(786,-285,qs),
(828,-250,o),
(857,-214,qs),
(875,-192,o),
(906,-147,qs),
(912,-137,o),
(921,-122,qs),
(933,-102,o),
(940,-87,qs),
(949,-66,o),
(952,-60,o),
(964,-34,q),
(969,-12,o)
);
},
{
closed = 1;
nodes = (
(916,106,ls),
(931,104,o),
(939,90,q),
(953,73,o),
(932,66,qs),
(917,62,o),
(899,62,q),
(872,59,o),
(872,81,qs),
(874,104,o),
(902,110,q)
);
}
);
};
layerId = "DF1C5431-233B-4AAC-895D-EA637EF242E5";
name = "5 Oct 23 at 21:46";
shapes = (
{
closed = 1;
nodes = (
(635,-284,o),
(711,-71,o),
(633,141,c),
(586,119,l),
(653,-64,o),
(591,-232,o),
(383,-232,cs),
(202,-232,o),
(111,-106,o),
(67,72,c),
(54,68,l),
(95,-130,o),
(190,-284,o),
(383,-284,cs)
);
}
);
width = 600;
},
{
associatedMasterId = m01;
background = {
shapes = (
{
closed = 1;
nodes = (
(973,-4,qs),
(980,14,o),
(980,35,qs),
(982,66,l),
(981,78,o),
(978,91,qs),
(976,104,o),
(965,136,o),
(942,145,q),
(913,151,o),
(891,145,q),
(876,138,ls),
(852,126,o),
(843,95,q),
(838,69,l),
(841,28,o),
(914,28,o),
(917,28,qs),
(924,28,o),
(930,18,qs),
(935,10,o),
(932,-3,qs),
(929,-15,o),
(924,-29,q),
(919,-47,o),
(908,-65,qs),
(894,-88,o),
(878,-114,q),
(865,-132,o),
(845,-157,qs),
(822,-186,o),
(794,-209,q),
(769,-236,o),
(739,-257,qs),
(710,-275,o),
(690,-289,q),
(659,-306,o),
(595,-324,o),
(546,-324,qs),
(486,-324,o),
(439,-306,qs),
(409,-295,o),
(359,-256,o),
(315,-219,qs),
(274,-186,o),
(229,-147,o),
(213,-132,o),
(185,-103,qs),
(183,-101,o),
(172,-88,qs),
(165,-80,o),
(161,-78,o),
(151,-72,o),
(150,-72,qs),
(147,-72,o),
(148,-77,o),
(150,-81,qs),
(150,-82,o),
(156,-90,o),
(162,-103,o),
(169,-114,qs),
(173,-121,o),
(183,-135,qs),
(196,-154,o),
(208,-169,qs),
(215,-178,o),
(228,-193,qs),
(237,-204,o),
(248,-217,qs),
(254,-224,o),
(274,-242,qs),
(280,-246,o),
(292,-258,qs),
(310,-275,o),
(317,-279,q),
(336,-294,o),
(355,-310,qs),
(368,-320,o),
(382,-330,qs),
(407,-348,o),
(438,-359,qs),
(491,-379,o),
(553,-379,qs),
(607,-379,o),
(651,-366,qs),
(688,-355,o),
(724,-332,qs),
(752,-315,o),
(786,-285,qs),
(828,-250,o),
(857,-214,qs),
(875,-192,o),
(906,-147,qs),
(912,-137,o),
(921,-122,qs),
(933,-102,o),
(940,-87,qs),
(949,-66,o),
(952,-60,o),
(964,-34,q),
(969,-12,o)
);
},
{
closed = 1;
nodes = (
(916,106,ls),
(931,104,o),
(939,90,q),
(953,73,o),
(932,66,qs),
(917,62,o),
(899,62,q),
(872,59,o),
(872,81,qs),
(874,104,o),
(902,110,q)
);
}
);
};
layerId = "76B182EE-4CC3-4DF6-A719-D70605DF986E";
name = "5 Oct 23 at 21:47";
shapes = (
{
closed = 1;
nodes = (
(383,-232,l),
(202,-232,o),
(111,-106,o),
(67,72,c),
(54,68,l),
(95,-130,o),
(190,-284,o),
(383,-284,c)
);
},
{
closed = 0;
nodes = (
(388,-257,l),
(592.008,-257,o),
(768,-159,o),
(819,21,cs)
);
}
);
width = 600;
},
{
associatedMasterId = m01;
background = {
shapes = (
{
closed = 1;
nodes = (
(973,-4,qs),
(980,14,o),
(980,35,qs),
(982,66,l),
(981,78,o),
(978,91,qs),
(976,104,o),
(965,136,o),
(942,145,q),
(913,151,o),
(891,145,q),
(876,138,ls),
(852,126,o),
(843,95,q),
(838,69,l),
(841,28,o),
(914,28,o),
(917,28,qs),
(924,28,o),
(930,18,qs),
(935,10,o),
(932,-3,qs),
(929,-15,o),
(924,-29,q),
(919,-47,o),
(908,-65,qs),
(894,-88,o),
(878,-114,q),
(865,-132,o),
(845,-157,qs),
(822,-186,o),
(794,-209,q),
(769,-236,o),
(739,-257,qs),
(710,-275,o),
(690,-289,q),
(659,-306,o),
(595,-324,o),
(546,-324,qs),
(486,-324,o),
(439,-306,qs),
(409,-295,o),
(359,-256,o),
(315,-219,qs),
(274,-186,o),
(229,-147,o),
(213,-132,o),
(185,-103,qs),
(183,-101,o),
(172,-88,qs),
(165,-80,o),
(161,-78,o),
(151,-72,o),
(150,-72,qs),
(147,-72,o),
(148,-77,o),
(150,-81,qs),
(150,-82,o),
(156,-90,o),
(162,-103,o),
(169,-114,qs),
(173,-121,o),
(183,-135,qs),
(196,-154,o),
(208,-169,qs),
(215,-178,o),
(228,-193,qs),
(237,-204,o),
(248,-217,qs),
(254,-224,o),
(274,-242,qs),
(280,-246,o),
(292,-258,qs),
(310,-275,o),
(317,-279,q),
(336,-294,o),
(355,-310,qs),
(368,-320,o),
(382,-330,qs),
(407,-348,o),
(438,-359,qs),
(491,-379,o),
(553,-379,qs),
(607,-379,o),
(651,-366,qs),
(688,-355,o),
(724,-332,qs),
(752,-315,o),
(786,-285,qs),
(828,-250,o),
(857,-214,qs),
(875,-192,o),
(906,-147,qs),
(912,-137,o),
(921,-122,qs),
(933,-102,o),
(940,-87,qs),
(949,-66,o),
(952,-60,o),
(964,-34,q),
(969,-12,o)
);
},
{
closed = 1;
nodes = (
(916,106,ls),
(931,104,o),
(939,90,q),
(953,73,o),
(932,66,qs),
(917,62,o),
(899,62,q),
(872,59,o),
(872,81,qs),
(874,104,o),
(902,110,q)
);
}
);
};
layerId = "F2DA9D41-C3E7-40E9-A613-A353E7BDD830";
name = "5 Oct 23 at 21:48";
shapes = (
{
closed = 1;
nodes = (
(383,-232,l),
(202,-232,o),
(111,-106,o),
(67,72,c),
(54,68,l),
(95,-130,o),
(190,-284,o),
(383,-284,c)
);
},
{
closed = 1;
nodes = (
(686,-138,o),
(547,-232,o),
(383,-232,c),
(383,-284,l),
(567,-284,o),
(728,-178,o),
(776,27,c),
(726,41,l)
);
},
{
closed = 1;
nodes = (
(776,27,l),
(776,92,o),
(736,148,o),
(674,148,cs),
(601,148,o),
(558,91,o),
(558,33,cs),
(558,-29,o),
(608,-92,o),
(723,-86,c),
(723,-34,l),
(650,-34,o),
(618,6,o),
(618,42,cs),
(618,70,o),
(639,96,o),
(674,96,cs),
(702,96,o),
(720,68,o),
(720,32,cs),
(720,22,o),
(719,12,o),
(716,1,c)
);
}
);
width = 600;
}
);
unicode = 1647;
}
{
glyphname = "alefabove-ar";
layers = (
{
anchors = (
{
name = _top;
pos = (142,604);
},
{
name = top;
pos = (143,772);
}
);
layerId = m01;
shapes = (
{
closed = 1;
nodes = (
(153,616,l),
(159,636,ls),
(164,652,o),
(166,665,o),
(166,681,cs),
(166,688,ls),
(166,708,o),
(161,725,o),
(153,743,cs),
(143,758,l),
(130,741,l),
(136,733,ls),
(144,717,o),
(147,705,o),
(147,688,cs),
(147,616,l)
);
},
{
closed = 1;
nodes = (
(151,716,l),
(143,758,l),
(139,758,l),
(125,748,o),
(120,738,o),
(120,726,cs),
(120,714,o),
(132,697,o),
(149,681,c)
);
}
);
width = 300;
},
{
associatedMasterId = m01;
layerId = "D0F18ED0-7A39-492E-B764-59F520574DA9";
name = "7 Oct 23 at 13:01";
shapes = (
{
closed = 0;
nodes = (
(133,740,l),
(141,727,ls),
(148,714,o),
(151,703,o),
(151,688,cs),
(151,643,l)
);
}
);
width = 300;
},
{
associatedMasterId = m01;
layerId = "BE348745-F7BB-45F2-94B8-50BF2642D4FA";
name = "7 Oct 23 at 13:02";
shapes = (
{
closed = 1;
nodes = (
(162,688,ls),
(162,704,o),
(158,718,o),
(151,733,cs),
(143,746,l),
(129,737,l),
(137,725,ls),
(144,712,o),
(146,702,o),
(146,688,cs),
(146,643,l),
(162,643,l)
);
},
{
closed = 1;
nodes = (
(150,711,l),
(143,746,l),
(140,746,l),
(128,737,o),
(124,729,o),
(124,719,cs),
(124,710,o),
(133,696,o),
(145,684,c)
);
}
);
width = 300;
},
{
associatedMasterId = m01;
layerId = "99E756BA-070E-41D5-9745-21F2058291B8";
name = "7 Oct 23 at 13:03";
shapes = (
{
closed = 1;
nodes = (
(162,688,ls),
(162,704,o),
(158,718,o),
(151,733,cs),
(143,746,l),
(132,732,l),
(137,725,ls),
(144,712,o),
(146,702,o),
(146,688,cs),
(146,608,l),
(151,608,l),
(162,643,l)
);
},
{
closed = 1;
nodes = (
(150,711,l),
(143,746,l),
(140,746,l),
(128,737,o),
(124,729,o),
(124,719,cs),
(124,709,o),
(134,695,o),
(148,682,c)
);
}
);
width = 300;
}
);
unicode = 1648;
}
